RecursiveSans-StrictSemiBold.ufo
<glyph name="exclam" format="1">
  <advance width="350"/>
  <unicode hex="0021"/>
  <outline>
    <contour>
      <point x="218" y="273" type="line"/>
      <point x="228" y="349"/>
      <point x="237" y="426"/>
      <point x="246" y="502" type="curve"/>
      <point x="246" y="689" type="line" smooth="yes"/>
      <point x="246" y="696"/>
      <point x="241" y="700"/>
      <point x="235" y="700" type="curve" smooth="yes"/>
      <point x="181" y="700"/>
      <point x="138" y="700"/>
      <point x="104" y="700" type="curve"/>
      <point x="104" y="662"/>
      <point x="104" y="627"/>
      <point x="104" y="590" type="curve" smooth="yes"/>
      <point x="104" y="502" type="line"/>
      <point x="129" y="284"/>
      <point x="130" y="280"/>
      <point x="134" y="276" type="curve" smooth="yes"/>
      <point x="136" y="274"/>
      <point x="138" y="273"/>
      <point x="142" y="273" type="curve"/>
    </contour>
    <contour>
      <point x="262" y="-8" type="curve"/>
      <point x="262" y="153" type="line" smooth="yes"/>
      <point x="262" y="159"/>
      <point x="257" y="164"/>
      <point x="251" y="164" type="curve" smooth="yes"/>
      <point x="199" y="164"/>
      <point x="140" y="164"/>
      <point x="88" y="164" type="curve"/>
      <point x="88" y="3" type="line" smooth="yes"/>
      <point x="88" y="-3"/>
      <point x="93" y="-8"/>
      <point x="99" y="-8" type="curve" smooth="yes"/>
      <point x="151" y="-8"/>
      <point x="210" y="-8"/>
    </contour>
  </outline>
</glyph>
<glyph name="quotedbl" format="1">
  <advance width="600"/>
  <unicode hex="0022"/>
  <outline>
    <contour>
      <point x="230" y="450" type="curve"/>
      <point x="253" y="737" type="line" smooth="yes"/>
      <point x="254" y="746"/>
      <point x="249" y="750"/>
      <point x="243" y="750" type="curve" smooth="yes"/>
      <point x="202" y="750"/>
      <point x="156" y="750"/>
      <point x="105" y="750" type="curve"/>
      <point x="108" y="714"/>
      <point x="110" y="683"/>
      <point x="113" y="648" type="curve" smooth="yes"/>
      <point x="128" y="461" type="line" smooth="yes"/>
      <point x="129" y="454"/>
      <point x="134" y="450"/>
      <point x="140" y="450" type="curve" smooth="yes"/>
      <point x="170" y="450"/>
      <point x="200" y="450"/>
    </contour>
    <contour>
      <point x="471" y="450" type="curve"/>
      <point x="494" y="737" type="line" smooth="yes"/>
      <point x="495" y="746"/>
      <point x="490" y="750"/>
      <point x="484" y="750" type="curve" smooth="yes"/>
      <point x="443" y="750"/>
      <point x="397" y="750"/>
      <point x="346" y="750" type="curve"/>
      <point x="369" y="461" type="line"/>
      <point x="370" y="454"/>
      <point x="375" y="450"/>
      <point x="381" y="450" type="curve" smooth="yes"/>
      <point x="411" y="450"/>
      <point x="441" y="450"/>
    </contour>
  </outline>
</glyph>
<glyph name="numbersign" format="1">
  <advance width="600"/>
  <unicode hex="0023"/>
  <outline>
    <contour>
      <point x="215" y="720" type="curve"/>
      <point x="166" y="474"/>
      <point x="116" y="226"/>
      <point x="67" y="-20" type="curve"/>
      <point x="94" y="-20"/>
      <point x="122" y="-20"/>
      <point x="149" y="-20" type="curve"/>
      <point x="156" y="-20"/>
      <point x="161" y="-19"/>
      <point x="163" y="-9" type="curve" smooth="yes"/>
      <point x="211" y="230"/>
      <point x="260" y="470"/>
      <point x="307" y="709" type="curve" smooth="yes"/>
      <point x="309" y="718"/>
      <point x="305" y="720"/>
      <point x="298" y="720" type="curve" smooth="yes"/>
      <point x="272" y="720"/>
      <point x="242" y="720"/>
    </contour>
    <contour>
      <point x="439" y="720" type="curve"/>
      <point x="390" y="474"/>
      <point x="340" y="226"/>
      <point x="291" y="-20" type="curve"/>
      <point x="317" y="-20"/>
      <point x="347" y="-20"/>
      <point x="373" y="-20" type="curve"/>
      <point x="380" y="-20"/>
      <point x="385" y="-19"/>
      <point x="387" y="-9" type="curve" smooth="yes"/>
      <point x="435" y="230"/>
      <point x="484" y="470"/>
      <point x="531" y="709" type="curve" smooth="yes"/>
      <point x="533" y="718"/>
      <point x="529" y="720"/>
      <point x="522" y="720" type="curve" smooth="yes"/>
      <point x="496" y="720"/>
      <point x="464" y="720"/>
    </contour>
    <contour>
      <point x="581" y="440" type="line"/>
      <point x="581" y="453"/>
      <point x="581" y="509"/>
      <point x="581" y="522" type="curve" smooth="yes"/>
      <point x="581" y="525"/>
      <point x="580" y="528"/>
      <point x="578" y="530" type="curve" smooth="yes"/>
      <point x="576" y="532"/>
      <point x="573" y="533"/>
      <point x="570" y="533" type="curve"/>
      <point x="61" y="533" type="line"/>
      <point x="61" y="520"/>
      <point x="61" y="464"/>
      <point x="61" y="451" type="curve" smooth="yes"/>
      <point x="61" y="445"/>
      <point x="66" y="440"/>
      <point x="72" y="440" type="curve"/>
    </contour>
    <contour>
      <point x="21" y="253" type="line"/>
      <point x="21" y="240"/>
      <point x="21" y="191"/>
      <point x="21" y="178" type="curve" smooth="yes"/>
      <point x="21" y="175"/>
      <point x="22" y="172"/>
      <point x="24" y="170" type="curve" smooth="yes"/>
      <point x="26" y="168"/>
      <point x="29" y="167"/>
      <point x="32" y="167" type="curve"/>
      <point x="541" y="167" type="line"/>
      <point x="541" y="180"/>
      <point x="541" y="229"/>
      <point x="541" y="242" type="curve" smooth="yes"/>
      <point x="541" y="248"/>
      <point x="536" y="253"/>
      <point x="530" y="253" type="curve"/>
    </contour>
  </outline>
</glyph>
<glyph name="percent" format="1">
  <advance width="600"/>
  <unicode hex="0025"/>
  <outline>
    <contour>
      <point x="171" y="633" type="curve"/>
      <point x="218" y="633"/>
      <point x="241" y="606"/>
      <point x="241" y="558" type="curve" smooth="yes"/>
      <point x="241" y="517" type="line" smooth="yes"/>
      <point x="241" y="465"/>
      <point x="218" y="436"/>
      <point x="172" y="436" type="curve" smooth="yes"/>
      <point x="137" y="436"/>
      <point x="123" y="438"/>
      <point x="97" y="444" type="curve"/>
      <point x="87" y="396"/>
      <point x="123" y="359"/>
      <point x="171" y="359" type="curve" smooth="yes"/>
      <point x="264" y="359"/>
      <point x="325" y="420"/>
      <point x="325" y="513" type="curve" smooth="yes"/>
      <point x="325" y="559" type="line" smooth="yes"/>
      <point x="325" y="652"/>
      <point x="266" y="710"/>
      <point x="173" y="710" type="curve" smooth="yes"/>
      <point x="157" y="710"/>
      <point x="154" y="696"/>
    </contour>
    <contour>
      <point x="172" y="436" type="curve"/>
      <point x="126" y="436"/>
      <point x="103" y="464"/>
      <point x="103" y="511" type="curve" smooth="yes"/>
      <point x="103" y="552" type="line" smooth="yes"/>
      <point x="103" y="604"/>
      <point x="126" y="633"/>
      <point x="171" y="633" type="curve" smooth="yes"/>
      <point x="207" y="633"/>
      <point x="221" y="631"/>
      <point x="247" y="624" type="curve"/>
      <point x="257" y="673"/>
      <point x="221" y="710"/>
      <point x="173" y="710" type="curve" smooth="yes"/>
      <point x="79" y="710"/>
      <point x="19" y="649"/>
      <point x="19" y="556" type="curve" smooth="yes"/>
      <point x="19" y="509" type="line" smooth="yes"/>
      <point x="19" y="416"/>
      <point x="77" y="359"/>
      <point x="171" y="359" type="curve" smooth="yes"/>
      <point x="187" y="359"/>
      <point x="190" y="373"/>
    </contour>
    <contour>
      <point x="428" y="264" type="curve"/>
      <point x="474" y="264"/>
      <point x="497" y="237"/>
      <point x="497" y="189" type="curve" smooth="yes"/>
      <point x="497" y="148" type="line" smooth="yes"/>
      <point x="497" y="96"/>
      <point x="474" y="67"/>
      <point x="429" y="67" type="curve" smooth="yes"/>
      <point x="393" y="67"/>
      <point x="379" y="69"/>
      <point x="353" y="76" type="curve"/>
      <point x="343" y="27"/>
      <point x="379" y="-10"/>
      <point x="427" y="-10" type="curve" smooth="yes"/>
      <point x="521" y="-10"/>
      <point x="581" y="51"/>
      <point x="581" y="144" type="curve" smooth="yes"/>
      <point x="581" y="191" type="line" smooth="yes"/>
      <point x="581" y="284"/>
      <point x="523" y="341"/>
      <point x="429" y="341" type="curve" smooth="yes"/>
      <point x="413" y="341"/>
      <point x="410" y="327"/>
    </contour>
    <contour>
      <point x="429" y="67" type="curve"/>
      <point x="382" y="67"/>
      <point x="359" y="95"/>
      <point x="359" y="143" type="curve" smooth="yes"/>
      <point x="359" y="183" type="line" smooth="yes"/>
      <point x="359" y="235"/>
      <point x="382" y="264"/>
      <point x="428" y="264" type="curve" smooth="yes"/>
      <point x="463" y="264"/>
      <point x="477" y="262"/>
      <point x="503" y="256" type="curve"/>
      <point x="513" y="304"/>
      <point x="477" y="341"/>
      <point x="429" y="341" type="curve" smooth="yes"/>
      <point x="336" y="341"/>
      <point x="275" y="280"/>
      <point x="275" y="187" type="curve" smooth="yes"/>
      <point x="275" y="141" type="line" smooth="yes"/>
      <point x="275" y="48"/>
      <point x="334" y="-10"/>
      <point x="427" y="-10" type="curve" smooth="yes"/>
      <point x="443" y="-10"/>
      <point x="446" y="4"/>
    </contour>
    <contour>
      <point x="362" y="405" type="curve"/>
      <point x="382" y="405"/>
      <point x="404" y="405"/>
      <point x="433" y="405" type="curve" smooth="yes"/>
      <point x="438" y="405"/>
      <point x="440" y="406"/>
      <point x="443" y="412" type="curve" smooth="yes"/>
      <point x="488" y="507"/>
      <point x="534" y="602"/>
      <point x="579" y="697" type="curve" smooth="yes"/>
      <point x="583" y="705"/>
      <point x="579" y="710"/>
      <point x="571" y="710" type="curve" smooth="yes"/>
      <point x="532" y="710"/>
      <point x="506" y="710"/>
      <point x="461" y="710" type="curve"/>
      <point x="428" y="608"/>
      <point x="395" y="507"/>
    </contour>
    <contour>
      <point x="238" y="296" type="curve"/>
      <point x="218" y="296"/>
      <point x="196" y="296"/>
      <point x="167" y="296" type="curve" smooth="yes"/>
      <point x="162" y="296"/>
      <point x="160" y="295"/>
      <point x="157" y="289" type="curve" smooth="yes"/>
      <point x="112" y="194"/>
      <point x="66" y="99"/>
      <point x="21" y="4" type="curve" smooth="yes"/>
      <point x="17" y="-4"/>
      <point x="21" y="-9"/>
      <point x="29" y="-9" type="curve" smooth="yes"/>
      <point x="68" y="-9"/>
      <point x="94" y="-9"/>
      <point x="139" y="-9" type="curve"/>
      <point x="172" y="93"/>
      <point x="205" y="194"/>
    </contour>
  </outline>
</glyph>
<glyph name="quotesingle" format="1">
  <advance width="250"/>
  <unicode hex="0027"/>
  <outline>
    <contour>
      <point x="179" y="450" type="curve"/>
      <point x="202" y="737" type="line" smooth="yes"/>
      <point x="203" y="746"/>
      <point x="198" y="750"/>
      <point x="192" y="750" type="curve" smooth="yes"/>
      <point x="149" y="750"/>
      <point x="101" y="750"/>
      <point x="47" y="750" type="curve"/>
      <point x="50" y="714"/>
      <point x="52" y="683"/>
      <point x="55" y="648" type="curve" smooth="yes"/>
      <point x="70" y="461" type="line" smooth="yes"/>
      <point x="71" y="454"/>
      <point x="76" y="450"/>
      <point x="82" y="450" type="curve" smooth="yes"/>
      <point x="115" y="450"/>
      <point x="147" y="450"/>
    </contour>
  </outline>
</glyph>
<glyph name="parenleft" format="1">
  <advance width="400"/>
  <unicode hex="0028"/>
  <outline>
    <contour>
      <point x="257" y="745" type="curve" smooth="yes"/>
      <point x="140" y="629"/>
      <point x="85" y="485"/>
      <point x="85" y="316" type="curve" smooth="yes"/>
      <point x="85" y="308" type="line" smooth="yes"/>
      <point x="85" y="138"/>
      <point x="140" y="-5"/>
      <point x="257" y="-121" type="curve" smooth="yes"/>
      <point x="263" y="-128"/>
      <point x="269" y="-129"/>
      <point x="277" y="-129" type="curve" smooth="yes"/>
      <point x="319" y="-129"/>
      <point x="351" y="-129"/>
      <point x="396" y="-129" type="curve"/>
      <point x="396" y="-112" type="line"/>
      <point x="268" y="6"/>
      <point x="204" y="146"/>
      <point x="204" y="308" type="curve" smooth="yes"/>
      <point x="204" y="316" type="line" smooth="yes"/>
      <point x="204" y="478"/>
      <point x="268" y="618"/>
      <point x="396" y="736" type="curve"/>
      <point x="396" y="753" type="line"/>
      <point x="351" y="753"/>
      <point x="319" y="753"/>
      <point x="277" y="753" type="curve" smooth="yes"/>
      <point x="269" y="753"/>
      <point x="263" y="752"/>
    </contour>
  </outline>
</glyph>
<glyph name="parenright" format="1">
  <advance width="400"/>
  <unicode hex="0029"/>
  <outline>
    <contour>
      <point x="143" y="-121" type="curve" smooth="yes"/>
      <point x="260" y="-5"/>
      <point x="315" y="138"/>
      <point x="315" y="308" type="curve" smooth="yes"/>
      <point x="315" y="316" type="line" smooth="yes"/>
      <point x="315" y="485"/>
      <point x="260" y="629"/>
      <point x="143" y="745" type="curve" smooth="yes"/>
      <point x="137" y="752"/>
      <point x="131" y="753"/>
      <point x="123" y="753" type="curve" smooth="yes"/>
      <point x="81" y="753"/>
      <point x="49" y="753"/>
      <point x="4" y="753" type="curve"/>
      <point x="4" y="736" type="line"/>
      <point x="132" y="618"/>
      <point x="196" y="478"/>
      <point x="196" y="316" type="curve" smooth="yes"/>
      <point x="196" y="308" type="line" smooth="yes"/>
      <point x="196" y="146"/>
      <point x="132" y="6"/>
      <point x="4" y="-112" type="curve"/>
      <point x="4" y="-129" type="line"/>
      <point x="49" y="-129"/>
      <point x="81" y="-129"/>
      <point x="123" y="-129" type="curve" smooth="yes"/>
      <point x="131" y="-129"/>
      <point x="137" y="-128"/>
    </contour>
  </outline>
</glyph>
<glyph name="asterisk" format="1">
  <advance width="500"/>
  <unicode hex="002A"/>
  <outline>
    <contour>
      <point x="204" y="769" type="curve"/>
      <point x="208" y="742"/>
      <point x="213" y="715"/>
      <point x="218" y="686" type="curve" smooth="yes"/>
      <point x="237" y="562" type="line"/>
      <point x="205" y="363" type="line" smooth="yes"/>
      <point x="204" y="358"/>
      <point x="206" y="355"/>
      <point x="212" y="355" type="curve"/>
      <point x="240" y="355"/>
      <point x="269" y="355"/>
      <point x="297" y="355" type="curve"/>
      <point x="292" y="383"/>
      <point x="287" y="410"/>
      <point x="283" y="437" type="curve" smooth="yes"/>
      <point x="264" y="562" type="line"/>
      <point x="296" y="761" type="line" smooth="yes"/>
      <point x="296" y="766"/>
      <point x="294" y="769"/>
      <point x="289" y="769" type="curve" smooth="yes"/>
      <point x="261" y="769"/>
      <point x="232" y="769"/>
    </contour>
    <contour>
      <point x="406" y="706" type="curve"/>
      <point x="244" y="574" type="line"/>
      <point x="55" y="503" type="line" smooth="yes"/>
      <point x="50" y="501"/>
      <point x="49" y="497"/>
      <point x="52" y="491" type="curve"/>
      <point x="66" y="466"/>
      <point x="80" y="443"/>
      <point x="95" y="419" type="curve"/>
      <point x="257" y="551" type="line"/>
      <point x="445" y="622" type="line" smooth="yes"/>
      <point x="450" y="624"/>
      <point x="452" y="628"/>
      <point x="448" y="634" type="curve" smooth="yes"/>
      <point x="435" y="657"/>
      <point x="420" y="681"/>
    </contour>
    <contour>
      <point x="453" y="499" type="curve"/>
      <point x="257" y="574" type="line"/>
      <point x="101" y="702" type="line" smooth="yes"/>
      <point x="97" y="705"/>
      <point x="93" y="704"/>
      <point x="90" y="699" type="curve"/>
      <point x="76" y="674"/>
      <point x="61" y="650"/>
      <point x="47" y="626" type="curve"/>
      <point x="244" y="551" type="line"/>
      <point x="399" y="424" type="line" smooth="yes"/>
      <point x="404" y="420"/>
      <point x="408" y="421"/>
      <point x="411" y="427" type="curve"/>
      <point x="425" y="451"/>
      <point x="439" y="475"/>
    </contour>
  </outline>
</glyph>
<glyph name="plus" format="1">
  <advance width="600"/>
  <unicode hex="002B"/>
  <outline>
    <contour>
      <point x="65" y="357" type="line"/>
      <point x="65" y="323"/>
      <point x="65" y="288"/>
      <point x="65" y="254" type="curve" smooth="yes"/>
      <point x="65" y="251"/>
      <point x="66" y="248"/>
      <point x="68" y="246" type="curve" smooth="yes"/>
      <point x="70" y="244"/>
      <point x="73" y="243"/>
      <point x="76" y="243" type="curve"/>
      <point x="535" y="243" type="line"/>
      <point x="535" y="277"/>
      <point x="535" y="312"/>
      <point x="535" y="346" type="curve" smooth="yes"/>
      <point x="535" y="352"/>
      <point x="530" y="357"/>
      <point x="524" y="357" type="curve"/>
    </contour>
    <contour>
      <point x="358" y="66" type="curve"/>
      <point x="358" y="523" type="line" smooth="yes"/>
      <point x="358" y="526"/>
      <point x="357" y="529"/>
      <point x="355" y="531" type="curve" smooth="yes"/>
      <point x="353" y="533"/>
      <point x="350" y="534"/>
      <point x="347" y="534" type="curve" smooth="yes"/>
      <point x="313" y="534"/>
      <point x="283" y="534"/>
      <point x="242" y="534" type="curve"/>
      <point x="242" y="510"/>
      <point x="242" y="475"/>
      <point x="242" y="435" type="curve" smooth="yes"/>
      <point x="242" y="77" type="line" smooth="yes"/>
      <point x="242" y="71"/>
      <point x="247" y="66"/>
      <point x="253" y="66" type="curve" smooth="yes"/>
      <point x="290" y="66"/>
      <point x="321" y="66"/>
    </contour>
  </outline>
</glyph>
<glyph name="comma" format="1">
  <advance width="350"/>
  <unicode hex="002C"/>
  <outline>
    <contour>
      <point x="163" y="-190" type="curve" smooth="yes"/>
      <point x="168" y="-190"/>
      <point x="171" y="-189"/>
      <point x="173" y="-183" type="curve"/>
      <point x="214" y="-79"/>
      <point x="259" y="37"/>
      <point x="295" y="125" type="curve"/>
      <point x="298" y="133"/>
      <point x="295" y="138"/>
      <point x="287" y="138" type="curve" smooth="yes"/>
      <point x="229" y="138"/>
      <point x="194" y="138"/>
      <point x="126" y="138" type="curve"/>
      <point x="102" y="29"/>
      <point x="78" y="-81"/>
      <point x="54" y="-190" type="curve"/>
      <point x="83" y="-190"/>
      <point x="115" y="-190"/>
    </contour>
  </outline>
</glyph>
<glyph name="period" format="1">
  <advance width="300"/>
  <unicode hex="002E"/>
  <outline>
    <contour>
      <point x="237" y="-8" type="curve"/>
      <point x="237" y="153" type="line" smooth="yes"/>
      <point x="237" y="159"/>
      <point x="232" y="164"/>
      <point x="226" y="164" type="curve" smooth="yes"/>
      <point x="174" y="164"/>
      <point x="115" y="164"/>
      <point x="63" y="164" type="curve"/>
      <point x="63" y="3" type="line" smooth="yes"/>
      <point x="63" y="-3"/>
      <point x="68" y="-8"/>
      <point x="74" y="-8" type="curve" smooth="yes"/>
      <point x="126" y="-8"/>
      <point x="185" y="-8"/>
    </contour>
  </outline>
</glyph>
<glyph name="zero" format="1">
  <advance width="600"/>
  <unicode hex="0030"/>
  <outline>
    <contour>
      <point x="300" y="720" type="curve" smooth="yes"/>
      <point x="161" y="720"/>
      <point x="59" y="618"/>
      <point x="59" y="445" type="curve" smooth="yes"/>
      <point x="59" y="255" type="line" smooth="yes"/>
      <point x="59" y="85"/>
      <point x="159" y="-20"/>
      <point x="300" y="-20" type="curve"/>
      <point x="315" y="-20"/>
      <point x="323" y="-9"/>
      <point x="300" y="88" type="curve"/>
      <point x="224" y="88"/>
      <point x="174" y="135"/>
      <point x="174" y="255" type="curve" smooth="yes"/>
      <point x="174" y="445" type="line" smooth="yes"/>
      <point x="174" y="565"/>
      <point x="224" y="612"/>
      <point x="300" y="612" type="curve" smooth="yes"/>
      <point x="343" y="612"/>
      <point x="381" y="612"/>
      <point x="409" y="612" type="curve"/>
      <point x="409" y="677"/>
      <point x="378" y="720"/>
    </contour>
    <contour>
      <point x="300" y="-20" type="curve" smooth="yes"/>
      <point x="439" y="-20"/>
      <point x="541" y="82"/>
      <point x="541" y="255" type="curve" smooth="yes"/>
      <point x="541" y="445" type="line" smooth="yes"/>
      <point x="541" y="615"/>
      <point x="442" y="720"/>
      <point x="300" y="720" type="curve"/>
      <point x="285" y="720"/>
      <point x="277" y="709"/>
      <point x="300" y="612" type="curve"/>
      <point x="375" y="612"/>
      <point x="426" y="565"/>
      <point x="426" y="445" type="curve" smooth="yes"/>
      <point x="426" y="255" type="line" smooth="yes"/>
      <point x="426" y="136"/>
      <point x="376" y="88"/>
      <point x="291" y="88" type="curve" smooth="yes"/>
      <point x="240" y="88"/>
      <point x="219" y="88"/>
      <point x="191" y="88" type="curve"/>
      <point x="191" y="23"/>
      <point x="222" y="-20"/>
    </contour>
  </outline>
</glyph>
<glyph name="one" format="1">
  <advance width="600"/>
  <unicode hex="0031"/>
  <outline>
    <contour>
      <point x="393" y="30" type="curve"/>
      <point x="393" y="253"/>
      <point x="393" y="477"/>
      <point x="393" y="699" type="curve" smooth="yes"/>
      <point x="393" y="705"/>
      <point x="388" y="710"/>
      <point x="382" y="710" type="curve" smooth="yes"/>
      <point x="277" y="710" type="line"/>
      <point x="277" y="500"/>
      <point x="277" y="284"/>
      <point x="277" y="74" type="curve" smooth="yes"/>
      <point x="277" y="39"/>
      <point x="327" y="30"/>
    </contour>
    <contour>
      <point x="83" y="109" type="line"/>
      <point x="83" y="76"/>
      <point x="83" y="48"/>
      <point x="83" y="11" type="curve" smooth="yes"/>
      <point x="83" y="7"/>
      <point x="84" y="5"/>
      <point x="86" y="3" type="curve" smooth="yes"/>
      <point x="88" y="1"/>
      <point x="91" y="0"/>
      <point x="94" y="0" type="curve" smooth="yes"/>
      <point x="547" y="0" type="line"/>
      <point x="547" y="29"/>
      <point x="547" y="61"/>
      <point x="547" y="98" type="curve" smooth="yes"/>
      <point x="547" y="106"/>
      <point x="543" y="109"/>
      <point x="536" y="109" type="curve" smooth="yes"/>
    </contour>
    <contour>
      <point x="106" y="448" type="curve" smooth="yes"/>
      <point x="112" y="448"/>
      <point x="117" y="450"/>
      <point x="308" y="602" type="curve" smooth="yes"/>
      <point x="338" y="623"/>
      <point x="366" y="646"/>
      <point x="366" y="652" type="curve" smooth="yes"/>
      <point x="366" y="675"/>
      <point x="352" y="710"/>
      <point x="288" y="710" type="curve"/>
      <point x="267" y="710" type="line"/>
      <point x="240" y="688"/>
      <point x="212" y="666"/>
      <point x="184" y="644" type="curve"/>
      <point x="156" y="622"/>
      <point x="127" y="599"/>
      <point x="99" y="577" type="curve"/>
      <point x="99" y="456" type="line" smooth="yes"/>
      <point x="99" y="450"/>
      <point x="102" y="448"/>
    </contour>
  </outline>
</glyph>
<glyph name="two" format="1">
  <advance width="600"/>
  <unicode hex="0032"/>
  <outline>
    <contour>
      <point x="412" y="605" type="curve"/>
      <point x="412" y="579"/>
      <point x="412" y="563"/>
      <point x="412" y="525" type="curve" smooth="yes"/>
      <point x="412" y="480"/>
      <point x="392" y="452"/>
      <point x="274" y="375" type="curve" smooth="yes"/>
      <point x="120" y="273"/>
      <point x="63" y="196"/>
      <point x="63" y="85" type="curve" smooth="yes"/>
      <point x="63" y="72"/>
      <point x="96" y="70"/>
      <point x="181" y="70" type="curve"/>
      <point x="181" y="166"/>
      <point x="204" y="196"/>
      <point x="334" y="283" type="curve" smooth="yes"/>
      <point x="471" y="373"/>
      <point x="527" y="429"/>
      <point x="527" y="520" type="curve" smooth="yes"/>
      <point x="527" y="550" type="line" smooth="yes"/>
      <point x="527" y="580"/>
      <point x="494" y="605"/>
    </contour>
    <contour>
      <point x="543" y="0" type="line"/>
      <point x="543" y="29"/>
      <point x="543" y="61"/>
      <point x="543" y="98" type="curve" smooth="yes"/>
      <point x="543" y="106"/>
      <point x="539" y="109"/>
      <point x="532" y="109" type="curve" smooth="yes"/>
      <point x="163" y="109" type="line" smooth="yes"/>
      <point x="129" y="109"/>
      <point x="95" y="103"/>
      <point x="63" y="85" type="curve"/>
      <point x="63" y="60"/>
      <point x="63" y="46"/>
      <point x="63" y="11" type="curve" smooth="yes"/>
      <point x="63" y="4"/>
      <point x="67" y="0"/>
      <point x="74" y="0" type="curve" smooth="yes"/>
    </contour>
    <contour>
      <point x="300" y="720" type="curve" smooth="yes"/>
      <point x="197" y="720"/>
      <point x="113" y="690"/>
      <point x="86" y="663" type="curve" smooth="yes"/>
      <point x="83" y="661"/>
      <point x="82" y="658"/>
      <point x="82" y="653" type="curve" smooth="yes"/>
      <point x="82" y="609"/>
      <point x="82" y="579"/>
      <point x="82" y="549" type="curve"/>
      <point x="99" y="549" type="line"/>
      <point x="159" y="588"/>
      <point x="220" y="605"/>
      <point x="299" y="605" type="curve" smooth="yes"/>
      <point x="376" y="605"/>
      <point x="412" y="587"/>
      <point x="412" y="540" type="curve" smooth="yes"/>
      <point x="412" y="515"/>
      <point x="412" y="496"/>
      <point x="412" y="479" type="curve"/>
      <point x="488" y="480"/>
      <point x="527" y="511"/>
      <point x="527" y="550" type="curve" smooth="yes"/>
      <point x="527" y="655"/>
      <point x="442" y="720"/>
    </contour>
  </outline>
</glyph>
<glyph name="three" format="1">
  <advance width="600"/>
  <unicode hex="0033"/>
  <outline>
    <contour>
      <point x="280" y="605" type="curve" smooth="yes"/>
      <point x="380" y="605"/>
      <point x="416" y="566"/>
      <point x="416" y="518" type="curve" smooth="yes"/>
      <point x="416" y="493"/>
      <point x="416" y="477"/>
      <point x="416" y="457" type="curve"/>
      <point x="477" y="457"/>
      <point x="531" y="479"/>
      <point x="531" y="529" type="curve" smooth="yes"/>
      <point x="531" y="555" type="line" smooth="yes"/>
      <point x="531" y="649"/>
      <point x="435" y="720"/>
      <point x="284" y="720" type="curve" smooth="yes"/>
      <point x="187" y="720"/>
      <point x="100" y="696"/>
      <point x="80" y="676" type="curve" smooth="yes"/>
      <point x="78" y="674"/>
      <point x="78" y="672"/>
      <point x="78" y="669" type="curve" smooth="yes"/>
      <point x="78" y="627"/>
      <point x="78" y="591"/>
      <point x="78" y="565" type="curve"/>
      <point x="95" y="565" type="line"/>
      <point x="153" y="593"/>
      <point x="198" y="605"/>
    </contour>
    <contour>
      <point x="169" y="339" type="curve" smooth="yes"/>
      <point x="387" y="339"/>
      <point x="531" y="390"/>
      <point x="531" y="529" type="curve" smooth="yes"/>
      <point x="531" y="557"/>
      <point x="470" y="584"/>
      <point x="414" y="584" type="curve"/>
      <point x="414" y="559"/>
      <point x="414" y="536"/>
      <point x="414" y="513" type="curve" smooth="yes"/>
      <point x="414" y="454"/>
      <point x="369" y="411"/>
      <point x="158" y="411" type="curve"/>
      <point x="158" y="394"/>
      <point x="158" y="367"/>
      <point x="158" y="350" type="curve" smooth="yes"/>
      <point x="158" y="344"/>
      <point x="163" y="339"/>
    </contour>
    <contour>
      <point x="169" y="303" type="curve" smooth="yes"/>
      <point x="358" y="303"/>
      <point x="424" y="267"/>
      <point x="424" y="194" type="curve" smooth="yes"/>
      <point x="424" y="170"/>
      <point x="424" y="158"/>
      <point x="424" y="126" type="curve"/>
      <point x="494" y="126"/>
      <point x="541" y="150"/>
      <point x="541" y="198" type="curve" smooth="yes"/>
      <point x="541" y="325"/>
      <point x="397" y="378"/>
      <point x="158" y="378" type="curve"/>
      <point x="158" y="357"/>
      <point x="158" y="334"/>
      <point x="158" y="314" type="curve" smooth="yes"/>
      <point x="158" y="306"/>
      <point x="162" y="303"/>
    </contour>
    <contour>
      <point x="277" y="95" type="curve" smooth="yes"/>
      <point x="189" y="95"/>
      <point x="141" y="105"/>
      <point x="78" y="139" type="curve"/>
      <point x="61" y="139" type="line"/>
      <point x="61" y="110"/>
      <point x="61" y="74"/>
      <point x="61" y="31" type="curve" smooth="yes"/>
      <point x="61" y="28"/>
      <point x="62" y="26"/>
      <point x="64" y="24" type="curve" smooth="yes"/>
      <point x="84" y="4"/>
      <point x="177" y="-20"/>
      <point x="281" y="-20" type="curve" smooth="yes"/>
      <point x="443" y="-20"/>
      <point x="541" y="53"/>
      <point x="541" y="168" type="curve" smooth="yes"/>
      <point x="541" y="198" type="line" smooth="yes"/>
      <point x="541" y="239"/>
      <point x="486" y="261"/>
      <point x="425" y="260" type="curve"/>
      <point x="425" y="234"/>
      <point x="425" y="217"/>
      <point x="425" y="193" type="curve" smooth="yes"/>
      <point x="425" y="139"/>
      <point x="386" y="95"/>
    </contour>
  </outline>
</glyph>
<glyph name="four" format="1">
  <advance width="600"/>
  <unicode hex="0034"/>
  <outline>
    <contour>
      <point x="151" y="217" type="curve"/>
      <point x="249" y="373"/>
      <point x="348" y="529"/>
      <point x="446" y="684" type="curve"/>
      <point x="446" y="700" type="line"/>
      <point x="381" y="700"/>
      <point x="338" y="700"/>
      <point x="329" y="700" type="curve" smooth="yes"/>
      <point x="323" y="700"/>
      <point x="317" y="699"/>
      <point x="312" y="691" type="curve" smooth="yes"/>
      <point x="194" y="500"/>
      <point x="45" y="254"/>
      <point x="45" y="247" type="curve" smooth="yes"/>
      <point x="45" y="227"/>
      <point x="108" y="217"/>
    </contour>
    <contour>
      <point x="560" y="151" type="line"/>
      <point x="560" y="184"/>
      <point x="560" y="216"/>
      <point x="560" y="249" type="curve" smooth="yes"/>
      <point x="560" y="255"/>
      <point x="555" y="260"/>
      <point x="549" y="260" type="curve" smooth="yes"/>
      <point x="389" y="260" type="line"/>
      <point x="343" y="260"/>
      <point x="186" y="254"/>
      <point x="45" y="247" type="curve"/>
      <point x="45" y="162" type="line" smooth="yes"/>
      <point x="45" y="159"/>
      <point x="46" y="156"/>
      <point x="48" y="154" type="curve" smooth="yes"/>
      <point x="50" y="152"/>
      <point x="53" y="151"/>
      <point x="56" y="151" type="curve" smooth="yes"/>
    </contour>
    <contour>
      <point x="490" y="0" type="curve"/>
      <point x="490" y="30"/>
      <point x="490" y="64"/>
      <point x="490" y="99" type="curve" smooth="yes"/>
      <point x="490" y="379" type="line" smooth="yes"/>
      <point x="490" y="386"/>
      <point x="486" y="390"/>
      <point x="479" y="390" type="curve" smooth="yes"/>
      <point x="395" y="390" type="line"/>
      <point x="388" y="340"/>
      <point x="381" y="292"/>
      <point x="374" y="242" type="curve"/>
      <point x="374" y="11" type="line" smooth="yes"/>
      <point x="374" y="5"/>
      <point x="379" y="0"/>
      <point x="385" y="0" type="curve" smooth="yes"/>
      <point x="420" y="0"/>
      <point x="455" y="0"/>
    </contour>
  </outline>
</glyph>
<glyph name="five" format="1">
  <advance width="600"/>
  <unicode hex="0035"/>
  <outline>
    <contour>
      <point x="157" y="700" type="line"/>
      <point x="157" y="666"/>
      <point x="157" y="636"/>
      <point x="157" y="602" type="curve" smooth="yes"/>
      <point x="157" y="599"/>
      <point x="158" y="596"/>
      <point x="160" y="594" type="curve" smooth="yes"/>
      <point x="162" y="592"/>
      <point x="165" y="591"/>
      <point x="168" y="591" type="curve" smooth="yes"/>
      <point x="513" y="591" type="line"/>
      <point x="513" y="615"/>
      <point x="513" y="650"/>
      <point x="513" y="689" type="curve" smooth="yes"/>
      <point x="513" y="695"/>
      <point x="508" y="700"/>
      <point x="502" y="700" type="curve" smooth="yes"/>
    </contour>
    <contour>
      <point x="193" y="310" type="line"/>
      <point x="241" y="676" type="line" smooth="yes"/>
      <point x="244" y="691"/>
      <point x="226" y="700"/>
      <point x="171" y="700" type="curve" smooth="yes"/>
      <point x="128" y="700" type="line"/>
      <point x="82" y="328" type="line" smooth="yes"/>
      <point x="81" y="316"/>
      <point x="84" y="310"/>
      <point x="94" y="310" type="curve" smooth="yes"/>
    </contour>
    <contour>
      <point x="167" y="373" type="curve"/>
      <point x="147" y="344"/>
      <point x="162" y="310"/>
      <point x="193" y="310" type="curve"/>
      <point x="224" y="324"/>
      <point x="259" y="332"/>
      <point x="301" y="332" type="curve" smooth="yes"/>
      <point x="394" y="332"/>
      <point x="425" y="295"/>
      <point x="425" y="234" type="curve" smooth="yes"/>
      <point x="425" y="219"/>
      <point x="425" y="201"/>
      <point x="425" y="184" type="curve"/>
      <point x="464" y="184"/>
      <point x="541" y="205"/>
      <point x="541" y="241" type="curve" smooth="yes"/>
      <point x="541" y="363"/>
      <point x="457" y="432"/>
      <point x="340" y="432" type="curve" smooth="yes"/>
      <point x="260" y="432"/>
      <point x="214" y="410"/>
    </contour>
    <contour>
      <point x="281" y="-20" type="curve" smooth="yes"/>
      <point x="445" y="-20"/>
      <point x="541" y="71"/>
      <point x="541" y="194" type="curve" smooth="yes"/>
      <point x="541" y="241" type="line" smooth="yes"/>
      <point x="541" y="283"/>
      <point x="479" y="325"/>
      <point x="425" y="312" type="curve"/>
      <point x="425" y="284"/>
      <point x="425" y="261"/>
      <point x="425" y="231" type="curve" smooth="yes"/>
      <point x="425" y="203" type="line" smooth="yes"/>
      <point x="425" y="137"/>
      <point x="379" y="95"/>
      <point x="278" y="95" type="curve" smooth="yes"/>
      <point x="195" y="95"/>
      <point x="150" y="106"/>
      <point x="91" y="139" type="curve"/>
      <point x="74" y="139" type="line"/>
      <point x="74" y="110"/>
      <point x="74" y="74"/>
      <point x="74" y="31" type="curve" smooth="yes"/>
      <point x="74" y="28"/>
      <point x="75" y="26"/>
      <point x="77" y="24" type="curve" smooth="yes"/>
      <point x="98" y="3"/>
      <point x="184" y="-20"/>
    </contour>
  </outline>
</glyph>
<glyph name="six" format="1">
  <advance width="600"/>
  <unicode hex="0036"/>
  <outline>
    <contour>
      <point x="200" y="88" type="curve"/>
      <point x="200" y="8"/>
      <point x="246" y="-21"/>
      <point x="308" y="-21" type="curve"/>
      <point x="447" y="-21"/>
      <point x="545" y="70"/>
      <point x="545" y="190" type="curve" smooth="yes"/>
      <point x="545" y="251" type="line" smooth="yes"/>
      <point x="545" y="293"/>
      <point x="491" y="322"/>
      <point x="432" y="322" type="curve"/>
      <point x="432" y="292"/>
      <point x="432" y="271"/>
      <point x="432" y="238" type="curve" smooth="yes"/>
      <point x="432" y="202" type="line" smooth="yes"/>
      <point x="432" y="134"/>
      <point x="386" y="88"/>
      <point x="301" y="88" type="curve" smooth="yes"/>
      <point x="255" y="88"/>
      <point x="227" y="88"/>
    </contour>
    <contour>
      <point x="236" y="605" type="curve"/>
      <point x="269" y="605"/>
      <point x="289" y="605"/>
      <point x="334" y="605" type="curve" smooth="yes"/>
      <point x="405" y="605"/>
      <point x="443" y="594"/>
      <point x="495" y="566" type="curve"/>
      <point x="512" y="566" type="line"/>
      <point x="512" y="595"/>
      <point x="512" y="630"/>
      <point x="512" y="673" type="curve" smooth="yes"/>
      <point x="512" y="676"/>
      <point x="512" y="678"/>
      <point x="510" y="680" type="curve" smooth="yes"/>
      <point x="493" y="697"/>
      <point x="425" y="720"/>
      <point x="348" y="720" type="curve" smooth="yes"/>
      <point x="252" y="720"/>
      <point x="236" y="662"/>
    </contour>
    <contour>
      <point x="59" y="410" type="curve" smooth="yes"/>
      <point x="59" y="265" type="line" smooth="yes"/>
      <point x="59" y="76"/>
      <point x="146" y="-21"/>
      <point x="308" y="-21" type="curve" smooth="yes"/>
      <point x="320" y="-21"/>
      <point x="329" y="0"/>
      <point x="301" y="88" type="curve"/>
      <point x="214" y="88"/>
      <point x="177" y="137"/>
      <point x="177" y="262" type="curve" smooth="yes"/>
      <point x="177" y="414" type="line" smooth="yes"/>
      <point x="177" y="549"/>
      <point x="227" y="605"/>
      <point x="334" y="605" type="curve"/>
      <point x="372" y="703"/>
      <point x="368" y="720"/>
      <point x="348" y="720" type="curve" smooth="yes"/>
      <point x="208" y="720"/>
      <point x="59" y="650"/>
    </contour>
    <contour>
      <point x="344" y="438" type="curve" smooth="yes"/>
      <point x="273" y="438"/>
      <point x="211" y="411"/>
      <point x="177" y="377" type="curve" smooth="yes"/>
      <point x="166" y="367"/>
      <point x="162" y="348"/>
      <point x="162" y="279" type="curve"/>
      <point x="207" y="318"/>
      <point x="255" y="334"/>
      <point x="311" y="334" type="curve" smooth="yes"/>
      <point x="394" y="334"/>
      <point x="432" y="303"/>
      <point x="432" y="238" type="curve" smooth="yes"/>
      <point x="432" y="225"/>
      <point x="432" y="209"/>
      <point x="432" y="201" type="curve"/>
      <point x="527" y="202"/>
      <point x="545" y="233"/>
      <point x="545" y="251" type="curve" smooth="yes"/>
      <point x="545" y="369"/>
      <point x="465" y="438"/>
    </contour>
  </outline>
</glyph>
<glyph name="seven" format="1">
  <advance width="600"/>
  <unicode hex="0037"/>
  <outline>
    <contour>
      <point x="460" y="591" type="line" smooth="yes"/>
      <point x="489" y="591"/>
      <point x="517" y="594"/>
      <point x="547" y="601" type="curve"/>
      <point x="547" y="689" type="line"/>
      <point x="547" y="695"/>
      <point x="542" y="700"/>
      <point x="536" y="700" type="curve"/>
      <point x="60" y="700" type="line"/>
      <point x="60" y="654" type="line" smooth="yes"/>
      <point x="60" y="611"/>
      <point x="74" y="591"/>
      <point x="94" y="591" type="curve" smooth="yes"/>
    </contour>
    <contour>
      <point x="309" y="0" type="line"/>
      <point x="455" y="368"/>
      <point x="547" y="593"/>
      <point x="547" y="601" type="curve" smooth="yes"/>
      <point x="547" y="632"/>
      <point x="513" y="639"/>
      <point x="441" y="638" type="curve"/>
      <point x="281" y="249"/>
      <point x="187" y="22"/>
      <point x="187" y="11" type="curve" smooth="yes"/>
      <point x="187" y="5"/>
      <point x="192" y="0"/>
      <point x="198" y="0" type="curve" smooth="yes"/>
    </contour>
    <contour>
      <point x="176" y="480" type="curve"/>
      <point x="176" y="529"/>
      <point x="176" y="616"/>
      <point x="176" y="666" type="curve"/>
      <point x="176" y="691"/>
      <point x="148" y="700"/>
      <point x="72" y="700" type="curve" smooth="yes"/>
      <point x="60" y="700" type="line"/>
      <point x="60" y="644"/>
      <point x="60" y="546"/>
      <point x="60" y="491" type="curve"/>
      <point x="60" y="485"/>
      <point x="65" y="480"/>
      <point x="71" y="480" type="curve" smooth="yes"/>
      <point x="106" y="480"/>
      <point x="141" y="480"/>
    </contour>
  </outline>
</glyph>
<glyph name="eight" format="1">
  <advance width="600"/>
  <unicode hex="0038"/>
  <outline>
    <contour>
      <point x="380" y="370" type="curve" smooth="yes"/>
      <point x="267" y="411" type="line" smooth="yes"/>
      <point x="209" y="431"/>
      <point x="182" y="462"/>
      <point x="182" y="506" type="curve" smooth="yes"/>
      <point x="182" y="527"/>
      <point x="182" y="547"/>
      <point x="182" y="577" type="curve"/>
      <point x="124" y="576"/>
      <point x="73" y="553"/>
      <point x="73" y="505" type="curve" smooth="yes"/>
      <point x="73" y="416"/>
      <point x="121" y="360"/>
      <point x="242" y="316" type="curve" smooth="yes"/>
      <point x="351" y="275" type="line" smooth="yes"/>
      <point x="414" y="251"/>
      <point x="436" y="230"/>
      <point x="436" y="185" type="curve" smooth="yes"/>
      <point x="436" y="139"/>
      <point x="435" y="125"/>
      <point x="435" y="105" type="curve"/>
      <point x="494" y="108"/>
      <point x="545" y="143"/>
      <point x="545" y="192" type="curve"/>
      <point x="545" y="276"/>
      <point x="494" y="329"/>
    </contour>
    <contour>
      <point x="299" y="-20" type="curve" smooth="yes"/>
      <point x="451" y="-20"/>
      <point x="545" y="59"/>
      <point x="545" y="157" type="curve" smooth="yes"/>
      <point x="545" y="192" type="line" smooth="yes"/>
      <point x="545" y="228"/>
      <point x="500" y="247"/>
      <point x="436" y="249" type="curve"/>
      <point x="436" y="242"/>
      <point x="436" y="215"/>
      <point x="436" y="174" type="curve" smooth="yes"/>
      <point x="436" y="121"/>
      <point x="390" y="88"/>
      <point x="299" y="88" type="curve" smooth="yes"/>
      <point x="246" y="88"/>
      <point x="220" y="88"/>
      <point x="191" y="88" type="curve"/>
      <point x="191" y="33"/>
      <point x="239" y="-20"/>
    </contour>
    <contour>
      <point x="301" y="720" type="curve" smooth="yes"/>
      <point x="163" y="720"/>
      <point x="73" y="639"/>
      <point x="73" y="534" type="curve" smooth="yes"/>
      <point x="73" y="505" type="line" smooth="yes"/>
      <point x="73" y="466"/>
      <point x="105" y="441"/>
      <point x="182" y="441" type="curve"/>
      <point x="182" y="462"/>
      <point x="182" y="483"/>
      <point x="182" y="520" type="curve" smooth="yes"/>
      <point x="182" y="573"/>
      <point x="226" y="612"/>
      <point x="300" y="612" type="curve" smooth="yes"/>
      <point x="360" y="612"/>
      <point x="383" y="612"/>
      <point x="412" y="612" type="curve"/>
      <point x="412" y="678"/>
      <point x="365" y="720"/>
    </contour>
    <contour>
      <point x="369" y="345" type="curve" smooth="yes"/>
      <point x="438" y="345"/>
      <point x="528" y="427"/>
      <point x="528" y="507" type="curve" smooth="yes"/>
      <point x="528" y="535" type="line" smooth="yes"/>
      <point x="528" y="642"/>
      <point x="439" y="720"/>
      <point x="301" y="720" type="curve" smooth="yes"/>
      <point x="281" y="720"/>
      <point x="277" y="708"/>
      <point x="300" y="612" type="curve"/>
      <point x="385" y="612"/>
      <point x="418" y="581"/>
      <point x="418" y="522" type="curve" smooth="yes"/>
      <point x="418" y="508" type="line" smooth="yes"/>
      <point x="418" y="458"/>
      <point x="385" y="407"/>
      <point x="291" y="380" type="curve"/>
      <point x="309" y="358"/>
      <point x="339" y="345"/>
    </contour>
    <contour>
      <point x="299" y="88" type="curve"/>
      <point x="212" y="88"/>
      <point x="164" y="121"/>
      <point x="164" y="174" type="curve" smooth="yes"/>
      <point x="164" y="185" type="line" smooth="yes"/>
      <point x="164" y="238"/>
      <point x="205" y="293"/>
      <point x="309" y="312" type="curve"/>
      <point x="289" y="336"/>
      <point x="270" y="349"/>
      <point x="226" y="349" type="curve" smooth="yes"/>
      <point x="148" y="349"/>
      <point x="55" y="278"/>
      <point x="55" y="191" type="curve" smooth="yes"/>
      <point x="55" y="156" type="line" smooth="yes"/>
      <point x="55" y="50"/>
      <point x="153" y="-20"/>
      <point x="299" y="-20" type="curve" smooth="yes"/>
      <point x="316" y="-20"/>
      <point x="332" y="8"/>
    </contour>
  </outline>
</glyph>
<glyph name="nine" format="1">
  <advance width="600"/>
  <unicode hex="0039"/>
  <outline>
    <contour>
      <point x="400" y="612" type="curve"/>
      <point x="400" y="679"/>
      <point x="366" y="721"/>
      <point x="292" y="721" type="curve"/>
      <point x="155" y="721"/>
      <point x="56" y="632"/>
      <point x="56" y="510" type="curve" smooth="yes"/>
      <point x="56" y="439" type="line" smooth="yes"/>
      <point x="56" y="401"/>
      <point x="107" y="372"/>
      <point x="169" y="372" type="curve"/>
      <point x="169" y="401"/>
      <point x="169" y="420"/>
      <point x="169" y="451" type="curve" smooth="yes"/>
      <point x="169" y="498" type="line" smooth="yes"/>
      <point x="169" y="569"/>
      <point x="218" y="612"/>
      <point x="298" y="612" type="curve" smooth="yes"/>
      <point x="345" y="612"/>
      <point x="373" y="612"/>
    </contour>
    <contour>
      <point x="365" y="95" type="curve"/>
      <point x="331" y="95"/>
      <point x="310" y="95"/>
      <point x="264" y="95" type="curve" smooth="yes"/>
      <point x="198" y="95"/>
      <point x="161" y="104"/>
      <point x="103" y="134" type="curve"/>
      <point x="86" y="134" type="line"/>
      <point x="86" y="105"/>
      <point x="86" y="70"/>
      <point x="86" y="27" type="curve" smooth="yes"/>
      <point x="86" y="23"/>
      <point x="86" y="22"/>
      <point x="88" y="20" type="curve" smooth="yes"/>
      <point x="109" y="0"/>
      <point x="192" y="-20"/>
      <point x="262" y="-20" type="curve" smooth="yes"/>
      <point x="334" y="-20"/>
      <point x="365" y="17"/>
    </contour>
    <contour>
      <point x="543" y="282" type="curve" smooth="yes"/>
      <point x="543" y="439" type="line" smooth="yes"/>
      <point x="543" y="623"/>
      <point x="457" y="721"/>
      <point x="292" y="721" type="curve" smooth="yes"/>
      <point x="275" y="721"/>
      <point x="276" y="681"/>
      <point x="298" y="612" type="curve"/>
      <point x="387" y="612"/>
      <point x="425" y="564"/>
      <point x="425" y="442" type="curve" smooth="yes"/>
      <point x="425" y="280" type="line" smooth="yes"/>
      <point x="425" y="151"/>
      <point x="376" y="95"/>
      <point x="264" y="95" type="curve"/>
      <point x="243" y="41"/>
      <point x="242" y="-20"/>
      <point x="262" y="-20" type="curve" smooth="yes"/>
      <point x="443" y="-20"/>
      <point x="543" y="87"/>
    </contour>
    <contour>
      <point x="258" y="252" type="curve" smooth="yes"/>
      <point x="325" y="252"/>
      <point x="388" y="276"/>
      <point x="425" y="313" type="curve" smooth="yes"/>
      <point x="436" y="324"/>
      <point x="439" y="346"/>
      <point x="439" y="411" type="curve"/>
      <point x="393" y="372"/>
      <point x="342" y="356"/>
      <point x="282" y="356" type="curve" smooth="yes"/>
      <point x="205" y="356"/>
      <point x="169" y="386"/>
      <point x="169" y="451" type="curve" smooth="yes"/>
      <point x="169" y="467"/>
      <point x="169" y="486"/>
      <point x="169" y="496" type="curve"/>
      <point x="100" y="494"/>
      <point x="56" y="471"/>
      <point x="56" y="439" type="curve" smooth="yes"/>
      <point x="56" y="323"/>
      <point x="135" y="252"/>
    </contour>
  </outline>
</glyph>
<glyph name="colon" format="1">
  <advance width="300"/>
  <unicode hex="003A"/>
  <outline>
    <contour>
      <point x="237" y="371" type="curve"/>
      <point x="237" y="532" type="line" smooth="yes"/>
      <point x="237" y="538"/>
      <point x="232" y="543"/>
      <point x="226" y="543" type="curve" smooth="yes"/>
      <point x="175" y="543"/>
      <point x="115" y="543"/>
      <point x="63" y="543" type="curve"/>
      <point x="63" y="382" type="line" smooth="yes"/>
      <point x="63" y="376"/>
      <point x="68" y="371"/>
      <point x="74" y="371" type="curve" smooth="yes"/>
      <point x="126" y="371"/>
      <point x="186" y="371"/>
    </contour>
    <contour>
      <point x="237" y="-8" type="curve"/>
      <point x="237" y="153" type="line" smooth="yes"/>
      <point x="237" y="159"/>
      <point x="232" y="164"/>
      <point x="226" y="164" type="curve" smooth="yes"/>
      <point x="174" y="164"/>
      <point x="114" y="164"/>
      <point x="63" y="164" type="curve"/>
      <point x="63" y="3" type="line" smooth="yes"/>
      <point x="63" y="-3"/>
      <point x="68" y="-8"/>
      <point x="74" y="-8" type="curve" smooth="yes"/>
      <point x="125" y="-8"/>
      <point x="185" y="-8"/>
    </contour>
  </outline>
</glyph>
<glyph name="semicolon" format="1">
  <advance width="350"/>
  <unicode hex="003B"/>
  <outline>
    <contour>
      <point x="262" y="371" type="curve"/>
      <point x="262" y="532" type="line" smooth="yes"/>
      <point x="262" y="538"/>
      <point x="257" y="543"/>
      <point x="251" y="543" type="curve" smooth="yes"/>
      <point x="199" y="543"/>
      <point x="140" y="543"/>
      <point x="88" y="543" type="curve"/>
      <point x="88" y="382" type="line" smooth="yes"/>
      <point x="88" y="376"/>
      <point x="93" y="371"/>
      <point x="99" y="371" type="curve" smooth="yes"/>
      <point x="151" y="371"/>
      <point x="210" y="371"/>
    </contour>
    <contour>
      <point x="141" y="-223" type="curve" smooth="yes"/>
      <point x="146" y="-223"/>
      <point x="150" y="-222"/>
      <point x="152" y="-216" type="curve"/>
      <point x="193" y="-112"/>
      <point x="238" y="4"/>
      <point x="274" y="92" type="curve"/>
      <point x="277" y="100"/>
      <point x="274" y="105"/>
      <point x="266" y="105" type="curve" smooth="yes"/>
      <point x="207" y="105"/>
      <point x="172" y="105"/>
      <point x="104" y="105" type="curve"/>
      <point x="80" y="-4"/>
      <point x="56" y="-114"/>
      <point x="32" y="-223" type="curve"/>
      <point x="61" y="-223"/>
      <point x="93" y="-223"/>
    </contour>
  </outline>
</glyph>
<glyph name="greater" format="1">
  <advance width="583"/>
  <unicode hex="003E"/>
  <outline>
    <contour>
      <point x="80" y="133" type="curve"/>
      <point x="80" y="27" type="line"/>
      <point x="80" y="22"/>
      <point x="83" y="18"/>
      <point x="88" y="18" type="curve" smooth="yes"/>
      <point x="92" y="18"/>
      <point x="96" y="19"/>
      <point x="110" y="25" type="curve" smooth="yes"/>
      <point x="154" y="46"/>
      <point x="381" y="153"/>
      <point x="521" y="218" type="curve"/>
      <point x="521" y="358" type="line"/>
      <point x="507" y="338"/>
      <point x="492" y="324"/>
      <point x="445" y="303" type="curve"/>
      <point x="324" y="246"/>
      <point x="202" y="190"/>
    </contour>
    <contour>
      <point x="81" y="589" type="curve"/>
      <point x="81" y="552"/>
      <point x="81" y="518"/>
      <point x="81" y="481" type="curve" smooth="yes"/>
      <point x="81" y="472"/>
      <point x="82" y="469"/>
      <point x="91" y="464" type="curve" smooth="yes"/>
      <point x="192" y="417"/>
      <point x="295" y="368"/>
      <point x="397" y="320" type="curve" smooth="yes"/>
      <point x="406" y="317"/>
      <point x="408" y="313"/>
      <point x="408" y="304" type="curve" smooth="yes"/>
      <point x="408" y="285"/>
      <point x="408" y="262"/>
      <point x="408" y="232" type="curve"/>
      <point x="490" y="233"/>
      <point x="521" y="299"/>
      <point x="521" y="349" type="curve" smooth="yes"/>
      <point x="521" y="372" type="line" smooth="yes"/>
      <point x="521" y="381"/>
      <point x="517" y="388"/>
      <point x="507" y="392" type="curve" smooth="yes"/>
      <point x="365" y="457"/>
      <point x="223" y="523"/>
    </contour>
  </outline>
</glyph>
<glyph name="at" format="1">
  <advance width="600"/>
  <unicode hex="0040"/>
  <outline>
    <contour>
      <point x="454" y="504" type="curve" smooth="yes"/>
      <point x="439" y="523"/>
      <point x="402" y="545"/>
      <point x="356" y="545" type="curve" smooth="yes"/>
      <point x="321" y="545"/>
      <point x="294" y="535"/>
      <point x="274" y="515" type="curve" smooth="yes"/>
      <point x="254" y="496"/>
      <point x="262" y="480"/>
      <point x="338" y="401" type="curve"/>
      <point x="338" y="445"/>
      <point x="358" y="458"/>
      <point x="390" y="458" type="curve" smooth="yes"/>
      <point x="421" y="458"/>
      <point x="440" y="453"/>
      <point x="465" y="440" type="curve"/>
      <point x="469" y="473"/>
      <point x="463" y="493"/>
    </contour>
    <contour>
      <point x="474" y="172" type="curve"/>
      <point x="445" y="132"/>
      <point x="400" y="113"/>
      <point x="366" y="113" type="curve" smooth="yes"/>
      <point x="348" y="113"/>
      <point x="338" y="125"/>
      <point x="338" y="147" type="curve" smooth="yes"/>
      <point x="338" y="401" type="line" smooth="yes"/>
      <point x="338" y="440"/>
      <point x="345" y="464"/>
      <point x="374" y="495" type="curve"/>
      <point x="310" y="530"/>
      <point x="295" y="536"/>
      <point x="274" y="515" type="curve" smooth="yes"/>
      <point x="248" y="489"/>
      <point x="238" y="456"/>
      <point x="238" y="411" type="curve" smooth="yes"/>
      <point x="238" y="127" type="line" smooth="yes"/>
      <point x="238" y="59"/>
      <point x="279" y="17"/>
      <point x="340" y="17" type="curve" smooth="yes"/>
      <point x="389" y="17"/>
      <point x="427" y="38"/>
      <point x="471" y="100" type="curve" smooth="yes"/>
      <point x="477" y="108"/>
      <point x="477" y="117"/>
    </contour>
    <contour>
      <point x="536" y="27" type="line"/>
      <point x="536" y="63"/>
      <point x="536" y="98"/>
      <point x="536" y="133" type="curve"/>
      <point x="536" y="542" type="line" smooth="yes"/>
      <point x="536" y="661"/>
      <point x="459" y="760"/>
      <point x="303" y="760" type="curve" smooth="yes"/>
      <point x="289" y="760"/>
      <point x="283" y="745"/>
      <point x="305" y="682" type="curve"/>
      <point x="383" y="682"/>
      <point x="436" y="650"/>
      <point x="436" y="547" type="curve" smooth="yes"/>
      <point x="436" y="111" type="line" smooth="yes"/>
      <point x="436" y="106"/>
      <point x="488" y="27"/>
      <point x="496" y="27" type="curve" smooth="yes"/>
    </contour>
    <contour>
      <point x="64" y="514" type="curve" smooth="yes"/>
      <point x="64" y="101" type="line" smooth="yes"/>
      <point x="64" y="-7"/>
      <point x="85" y="-76"/>
      <point x="133" y="-124" type="curve" smooth="yes"/>
      <point x="163" y="-154"/>
      <point x="277" y="-162"/>
      <point x="326" y="-114" type="curve"/>
      <point x="187" y="-114"/>
      <point x="147" y="-35"/>
      <point x="147" y="83" type="curve" smooth="yes"/>
      <point x="147" y="497" type="line" smooth="yes"/>
      <point x="147" y="607"/>
      <point x="201" y="682"/>
      <point x="305" y="682" type="curve" smooth="yes"/>
      <point x="364" y="682"/>
      <point x="408" y="664"/>
      <point x="442" y="631" type="curve"/>
      <point x="453" y="639"/>
      <point x="456" y="645"/>
      <point x="456" y="663" type="curve" smooth="yes"/>
      <point x="456" y="717"/>
      <point x="387" y="760"/>
      <point x="303" y="760" type="curve" smooth="yes"/>
      <point x="161" y="760"/>
      <point x="64" y="659"/>
    </contour>
    <contour>
      <point x="316" y="-191" type="curve" smooth="yes"/>
      <point x="383" y="-191"/>
      <point x="453" y="-175"/>
      <point x="467" y="-160" type="curve" smooth="yes"/>
      <point x="469" y="-158"/>
      <point x="470" y="-155"/>
      <point x="470" y="-152" type="curve" smooth="yes"/>
      <point x="470" y="-88" type="line"/>
      <point x="452" y="-88" type="line"/>
      <point x="415" y="-106"/>
      <point x="373" y="-114"/>
      <point x="326" y="-114" type="curve" smooth="yes"/>
      <point x="234" y="-114"/>
      <point x="192" y="-88"/>
      <point x="141" y="-31" type="curve"/>
      <point x="112" y="-72"/>
      <point x="114" y="-105"/>
      <point x="133" y="-124" type="curve"/>
      <point x="174" y="-165"/>
      <point x="236" y="-191"/>
    </contour>
  </outline>
</glyph>
<glyph name="D" format="1">
  <advance width="650"/>
  <unicode hex="0044"/>
  <outline>
    <contour>
      <point x="206" y="34" type="curve"/>
      <point x="206" y="649" type="line" smooth="yes"/>
      <point x="206" y="655"/>
      <point x="201" y="660"/>
      <point x="84" y="660" type="curve"/>
      <point x="84" y="44" type="line" smooth="yes"/>
      <point x="84" y="38"/>
      <point x="89" y="34"/>
    </contour>
    <contour>
      <point x="30" y="700" type="curve"/>
      <point x="30" y="667"/>
      <point x="30" y="634"/>
      <point x="30" y="602" type="curve"/>
      <point x="30" y="599"/>
      <point x="31" y="596"/>
      <point x="33" y="594" type="curve" smooth="yes"/>
      <point x="35" y="592"/>
      <point x="38" y="591"/>
      <point x="41" y="591" type="curve" smooth="yes"/>
      <point x="54" y="591"/>
      <point x="81" y="591"/>
      <point x="96" y="591" type="curve" smooth="yes"/>
      <point x="151" y="591"/>
      <point x="249" y="591"/>
      <point x="303" y="591" type="curve"/>
      <point x="362" y="591"/>
      <point x="387" y="591"/>
      <point x="424" y="591" type="curve"/>
      <point x="424" y="655"/>
      <point x="405" y="700"/>
      <point x="302" y="700" type="curve" smooth="yes"/>
      <point x="231" y="700"/>
      <point x="108" y="700"/>
    </contour>
    <contour>
      <point x="588" y="267" type="curve" smooth="yes"/>
      <point x="588" y="437" type="line" smooth="yes"/>
      <point x="588" y="618"/>
      <point x="483" y="700"/>
      <point x="302" y="700" type="curve" smooth="yes"/>
      <point x="291" y="700"/>
      <point x="281" y="689"/>
      <point x="303" y="591" type="curve"/>
      <point x="422" y="591"/>
      <point x="472" y="544"/>
      <point x="472" y="438" type="curve" smooth="yes"/>
      <point x="472" y="269" type="line" smooth="yes"/>
      <point x="472" y="164"/>
      <point x="414" y="109"/>
      <point x="308" y="109" type="curve" smooth="yes"/>
      <point x="257" y="109"/>
      <point x="130" y="109"/>
      <point x="88" y="109" type="curve"/>
      <point x="85" y="75"/>
      <point x="84" y="55"/>
      <point x="84" y="11" type="curve" smooth="yes"/>
      <point x="84" y="5"/>
      <point x="89" y="0"/>
      <point x="95" y="0" type="curve" smooth="yes"/>
      <point x="311" y="0" type="line" smooth="yes"/>
      <point x="486" y="0"/>
      <point x="588" y="100"/>
    </contour>
    <contour>
      <point x="309" y="711" type="move" name="top"/>
    </contour>
  </outline>
</glyph>
<glyph name="F" format="1">
  <advance width="550"/>
  <unicode hex="0046"/>
  <outline>
    <contour>
      <point x="222" y="0" type="curve"/>
      <point x="222" y="31"/>
      <point x="222" y="64"/>
      <point x="222" y="98" type="curve" smooth="yes"/>
      <point x="222" y="647" type="line"/>
      <point x="222" y="656"/>
      <point x="211" y="662"/>
      <point x="100" y="662" type="curve"/>
      <point x="100" y="11" type="line" smooth="yes"/>
      <point x="100" y="5"/>
      <point x="105" y="0"/>
      <point x="111" y="0" type="curve" smooth="yes"/>
      <point x="148" y="0"/>
      <point x="185" y="0"/>
    </contour>
    <contour>
      <point x="47" y="700" type="line"/>
      <point x="47" y="667"/>
      <point x="47" y="635"/>
      <point x="47" y="602" type="curve" smooth="yes"/>
      <point x="47" y="599"/>
      <point x="48" y="596"/>
      <point x="50" y="594" type="curve" smooth="yes"/>
      <point x="52" y="592"/>
      <point x="55" y="591"/>
      <point x="58" y="591" type="curve"/>
      <point x="490" y="591" type="line"/>
      <point x="490" y="624"/>
      <point x="490" y="656"/>
      <point x="490" y="689" type="curve" smooth="yes"/>
      <point x="490" y="692"/>
      <point x="489" y="695"/>
      <point x="487" y="697" type="curve" smooth="yes"/>
      <point x="485" y="699"/>
      <point x="482" y="700"/>
      <point x="479" y="700" type="curve"/>
    </contour>
    <contour>
      <point x="153" y="380" type="line"/>
      <point x="153" y="288"/>
      <point x="156" y="270"/>
      <point x="164" y="270" type="curve"/>
      <point x="453" y="270" type="line"/>
      <point x="453" y="303"/>
      <point x="453" y="336"/>
      <point x="453" y="369" type="curve"/>
      <point x="453" y="372"/>
      <point x="452" y="375"/>
      <point x="450" y="377" type="curve" smooth="yes"/>
      <point x="448" y="379"/>
      <point x="445" y="380"/>
      <point x="442" y="380" type="curve"/>
    </contour>
  </outline>
</glyph>
<glyph name="G" format="1">
  <advance width="650"/>
  <unicode hex="0047"/>
  <outline>
    <contour>
      <point x="341" y="613" type="curve" smooth="yes"/>
      <point x="424" y="613"/>
      <point x="466" y="601"/>
      <point x="514" y="560" type="curve"/>
      <point x="569" y="622"/>
      <point x="572" y="631"/>
      <point x="572" y="638" type="curve" smooth="yes"/>
      <point x="572" y="649"/>
      <point x="571" y="653"/>
      <point x="566" y="657" type="curve" smooth="yes"/>
      <point x="535" y="689"/>
      <point x="461" y="720"/>
      <point x="347" y="720" type="curve" smooth="yes"/>
      <point x="163" y="720"/>
      <point x="59" y="623"/>
      <point x="59" y="438" type="curve" smooth="yes"/>
      <point x="59" y="246" type="line" smooth="yes"/>
      <point x="59" y="177"/>
      <point x="106" y="112"/>
      <point x="175" y="113" type="curve"/>
      <point x="175" y="156"/>
      <point x="175" y="191"/>
      <point x="175" y="249" type="curve" smooth="yes"/>
      <point x="175" y="444" type="line" smooth="yes"/>
      <point x="175" y="555"/>
      <point x="232" y="613"/>
    </contour>
    <contour>
      <point x="329" y="88" type="curve" smooth="yes"/>
      <point x="232" y="88"/>
      <point x="175" y="138"/>
      <point x="175" y="249" type="curve"/>
      <point x="69" y="266"/>
      <point x="59" y="260"/>
      <point x="59" y="246" type="curve" smooth="yes"/>
      <point x="59" y="82"/>
      <point x="157" y="-20"/>
      <point x="329" y="-20" type="curve" smooth="yes"/>
      <point x="502" y="-20"/>
      <point x="575" y="62"/>
      <point x="575" y="80" type="curve" smooth="yes"/>
      <point x="575" y="289" type="line" smooth="yes"/>
      <point x="575" y="305"/>
      <point x="502" y="310"/>
      <point x="466" y="310" type="curve"/>
      <point x="466" y="252"/>
      <point x="466" y="189"/>
      <point x="466" y="131" type="curve" smooth="yes"/>
      <point x="466" y="120"/>
      <point x="421" y="88"/>
    </contour>
    <contour>
      <point x="337" y="373" type="line"/>
      <point x="337" y="342"/>
      <point x="337" y="313"/>
      <point x="337" y="282" type="curve" smooth="yes"/>
      <point x="337" y="279"/>
      <point x="338" y="276"/>
      <point x="340" y="274" type="curve" smooth="yes"/>
      <point x="342" y="272"/>
      <point x="345" y="271"/>
      <point x="348" y="271" type="curve"/>
      <point x="614" y="271" type="line"/>
      <point x="614" y="362" type="line" smooth="yes"/>
      <point x="614" y="368"/>
      <point x="609" y="373"/>
      <point x="603" y="373" type="curve" smooth="yes"/>
    </contour>
    <contour>
      <point x="572" y="496" type="curve"/>
      <point x="572" y="638" type="line" smooth="yes"/>
      <point x="572" y="650"/>
      <point x="561" y="657"/>
      <point x="463" y="657" type="curve"/>
      <point x="463" y="643"/>
      <point x="463" y="626"/>
      <point x="463" y="614" type="curve" smooth="yes"/>
      <point x="463" y="507" type="line" smooth="yes"/>
      <point x="463" y="500"/>
      <point x="467" y="496"/>
      <point x="474" y="496" type="curve" smooth="yes"/>
      <point x="507" y="496"/>
      <point x="540" y="496"/>
    </contour>
    <contour>
      <point x="336" y="711" type="move" name="top"/>
    </contour>
    <contour>
      <point x="336" y="-1" type="move" name="bottom"/>
    </contour>
  </outline>
</glyph>
<glyph name="I" format="1">
  <advance width="500"/>
  <unicode hex="0049"/>
  <outline>
    <contour>
      <point x="311" y="40" type="curve"/>
      <point x="311" y="650" type="line" smooth="yes"/>
      <point x="311" y="656"/>
      <point x="306" y="660"/>
      <point x="189" y="660" type="curve"/>
      <point x="189" y="51" type="line" smooth="yes"/>
      <point x="189" y="45"/>
      <point x="194" y="40"/>
    </contour>
    <contour>
      <point x="73" y="700" type="line"/>
      <point x="73" y="667"/>
      <point x="73" y="635"/>
      <point x="73" y="602" type="curve"/>
      <point x="73" y="599"/>
      <point x="74" y="596"/>
      <point x="76" y="594" type="curve" smooth="yes"/>
      <point x="78" y="592"/>
      <point x="81" y="591"/>
      <point x="84" y="591" type="curve" smooth="yes"/>
      <point x="427" y="591" type="line"/>
      <point x="427" y="623"/>
      <point x="427" y="656"/>
      <point x="427" y="689" type="curve" smooth="yes"/>
      <point x="427" y="695"/>
      <point x="422" y="700"/>
      <point x="416" y="700" type="curve" smooth="yes"/>
    </contour>
    <contour>
      <point x="73" y="109" type="line"/>
      <point x="73" y="76"/>
      <point x="73" y="44"/>
      <point x="73" y="11" type="curve"/>
      <point x="73" y="8"/>
      <point x="74" y="5"/>
      <point x="76" y="3" type="curve" smooth="yes"/>
      <point x="78" y="1"/>
      <point x="81" y="0"/>
      <point x="84" y="0" type="curve" smooth="yes"/>
      <point x="427" y="0" type="line"/>
      <point x="427" y="33"/>
      <point x="427" y="66"/>
      <point x="427" y="98" type="curve" smooth="yes"/>
      <point x="427" y="104"/>
      <point x="422" y="109"/>
      <point x="416" y="109" type="curve" smooth="yes"/>
    </contour>
    <contour>
      <point x="250" y="711" type="move" name="top"/>
    </contour>
    <contour>
      <point x="428" y="0" type="move" name="ogonek"/>
    </contour>
    <contour>
      <point x="250" y="-1" type="move" name="bottom"/>
    </contour>
  </outline>
</glyph>
<glyph name="J" format="1">
  <advance width="500"/>
  <unicode hex="004A"/>
  <outline>
    <contour>
      <point x="91" y="700" type="line"/>
      <point x="91" y="667"/>
      <point x="91" y="634"/>
      <point x="91" y="602" type="curve" smooth="yes"/>
      <point x="91" y="599"/>
      <point x="92" y="596"/>
      <point x="94" y="594" type="curve" smooth="yes"/>
      <point x="96" y="592"/>
      <point x="99" y="591"/>
      <point x="102" y="591" type="curve" smooth="yes"/>
      <point x="391" y="591" type="line"/>
      <point x="391" y="639"/>
      <point x="376" y="700"/>
      <point x="338" y="700" type="curve"/>
    </contour>
    <contour>
      <point x="430" y="230" type="curve" smooth="yes"/>
      <point x="430" y="689" type="line" smooth="yes"/>
      <point x="430" y="695"/>
      <point x="426" y="700"/>
      <point x="419" y="700" type="curve" smooth="yes"/>
      <point x="314" y="700" type="line"/>
      <point x="314" y="231" type="line" smooth="yes"/>
      <point x="314" y="165"/>
      <point x="314" y="141"/>
      <point x="314" y="94" type="curve"/>
      <point x="372" y="94"/>
      <point x="430" y="136"/>
    </contour>
    <contour>
      <point x="194" y="95" type="curve" smooth="yes"/>
      <point x="147" y="95"/>
      <point x="109" y="107"/>
      <point x="64" y="130" type="curve"/>
      <point x="47" y="130" type="line"/>
      <point x="47" y="97"/>
      <point x="47" y="64"/>
      <point x="47" y="31" type="curve"/>
      <point x="47" y="27"/>
      <point x="48" y="25"/>
      <point x="50" y="23" type="curve" smooth="yes"/>
      <point x="67" y="5"/>
      <point x="131" y="-15"/>
      <point x="186" y="-15" type="curve" smooth="yes"/>
      <point x="204" y="-15" type="line" smooth="yes"/>
      <point x="349" y="-15"/>
      <point x="430" y="80"/>
      <point x="430" y="230" type="curve"/>
      <point x="430" y="239"/>
      <point x="421" y="247"/>
      <point x="314" y="231" type="curve"/>
      <point x="314" y="132"/>
      <point x="279" y="95"/>
    </contour>
    <contour>
      <point x="255" y="711" type="move" name="top"/>
    </contour>
  </outline>
</glyph>
<glyph name="K" format="1">
  <advance width="600"/>
  <unicode hex="004B"/>
  <outline>
    <contour>
      <point x="77" y="700" type="curve"/>
      <point x="77" y="665"/>
      <point x="77" y="631"/>
      <point x="77" y="596" type="curve" smooth="yes"/>
      <point x="77" y="11" type="line" smooth="yes"/>
      <point x="77" y="5"/>
      <point x="82" y="0"/>
      <point x="88" y="0" type="curve" smooth="yes"/>
      <point x="125" y="0"/>
      <point x="162" y="0"/>
      <point x="199" y="0" type="curve"/>
      <point x="199" y="689" type="line" smooth="yes"/>
      <point x="199" y="692"/>
      <point x="198" y="695"/>
      <point x="196" y="697" type="curve" smooth="yes"/>
      <point x="194" y="699"/>
      <point x="191" y="700"/>
      <point x="188" y="700" type="curve" smooth="yes"/>
      <point x="151" y="700"/>
      <point x="114" y="700"/>
    </contour>
    <contour>
      <point x="547" y="700" type="curve"/>
      <point x="420" y="700" type="line"/>
      <point x="325" y="556"/>
      <point x="223" y="402"/>
      <point x="130" y="262" type="curve"/>
      <point x="122" y="250"/>
      <point x="122" y="241"/>
      <point x="171" y="154" type="curve"/>
      <point x="312" y="349"/>
      <point x="429" y="510"/>
      <point x="516" y="630" type="curve" smooth="yes"/>
      <point x="554" y="684"/>
      <point x="556" y="687"/>
      <point x="556" y="693" type="curve" smooth="yes"/>
      <point x="556" y="696"/>
      <point x="552" y="700"/>
    </contour>
    <contour>
      <point x="311" y="408" type="line"/>
      <point x="239" y="312"/>
      <point x="237" y="301"/>
      <point x="244" y="291" type="curve" smooth="yes"/>
      <point x="392" y="63" type="line" smooth="yes"/>
      <point x="426" y="10"/>
      <point x="452" y="-7"/>
      <point x="518" y="-7" type="curve" smooth="yes"/>
      <point x="556" y="-7" type="line" smooth="yes"/>
      <point x="563" y="-7"/>
      <point x="567" y="-3"/>
      <point x="567" y="4" type="curve" smooth="yes"/>
      <point x="567" y="39"/>
      <point x="567" y="74"/>
      <point x="567" y="109" type="curve"/>
      <point x="560" y="109" type="line"/>
      <point x="551" y="109"/>
      <point x="547" y="109"/>
      <point x="537" y="109" type="curve" smooth="yes"/>
      <point x="508" y="109"/>
      <point x="500" y="114"/>
      <point x="483" y="140" type="curve" smooth="yes"/>
    </contour>
    <contour>
      <point x="322" y="-1" type="move" name="bottom"/>
    </contour>
  </outline>
</glyph>
<glyph name="L" format="1">
  <advance width="550"/>
  <unicode hex="004C"/>
  <outline>
    <contour>
      <point x="199" y="75" type="curve"/>
      <point x="199" y="689" type="line" smooth="yes"/>
      <point x="199" y="692"/>
      <point x="198" y="695"/>
      <point x="196" y="697" type="curve" smooth="yes"/>
      <point x="194" y="699"/>
      <point x="191" y="700"/>
      <point x="188" y="700" type="curve" smooth="yes"/>
      <point x="151" y="700"/>
      <point x="114" y="700"/>
      <point x="77" y="700" type="curve"/>
      <point x="77" y="667"/>
      <point x="77" y="633"/>
      <point x="77" y="600" type="curve" smooth="yes"/>
      <point x="77" y="86" type="line" smooth="yes"/>
      <point x="77" y="80"/>
      <point x="82" y="75"/>
    </contour>
    <contour>
      <point x="77" y="109" type="line"/>
      <point x="77" y="11" type="line" smooth="yes"/>
      <point x="77" y="5"/>
      <point x="82" y="0"/>
      <point x="88" y="0" type="curve" smooth="yes"/>
      <point x="497" y="0" type="line"/>
      <point x="497" y="33"/>
      <point x="497" y="65"/>
      <point x="497" y="98" type="curve" smooth="yes"/>
      <point x="497" y="104"/>
      <point x="492" y="109"/>
      <point x="486" y="109" type="curve" smooth="yes"/>
    </contour>
    <contour>
      <point x="403" y="550" type="move" name="caronslovak"/>
    </contour>
    <contour>
      <point x="139" y="711" type="move" name="top"/>
    </contour>
    <contour>
      <point x="437" y="400" type="move" name="dot"/>
    </contour>
    <contour>
      <point x="287" y="-1" type="move" name="bottom"/>
    </contour>
  </outline>
</glyph>
<glyph name="M" format="1">
  <advance width="800"/>
  <unicode hex="004D"/>
  <outline>
    <contour>
      <point x="190" y="0" type="curve"/>
      <point x="190" y="68"/>
      <point x="190" y="135"/>
      <point x="190" y="202" type="curve" smooth="yes"/>
      <point x="186" y="366"/>
      <point x="182" y="528"/>
      <point x="178" y="689" type="curve" smooth="yes"/>
      <point x="178" y="692"/>
      <point x="177" y="695"/>
      <point x="175" y="697" type="curve" smooth="yes"/>
      <point x="173" y="699"/>
      <point x="170" y="700"/>
      <point x="167" y="700" type="curve" smooth="yes"/>
      <point x="137" y="700"/>
      <point x="107" y="700"/>
      <point x="77" y="700" type="curve"/>
      <point x="77" y="662"/>
      <point x="77" y="625"/>
      <point x="77" y="587" type="curve" smooth="yes"/>
      <point x="77" y="395"/>
      <point x="77" y="203"/>
      <point x="77" y="11" type="curve" smooth="yes"/>
      <point x="77" y="8"/>
      <point x="78" y="5"/>
      <point x="80" y="3" type="curve" smooth="yes"/>
      <point x="82" y="1"/>
      <point x="85" y="0"/>
      <point x="88" y="0" type="curve" smooth="yes"/>
      <point x="122" y="0"/>
      <point x="156" y="0"/>
    </contour>
    <contour>
      <point x="723" y="0" type="curve"/>
      <point x="723" y="37"/>
      <point x="723" y="75"/>
      <point x="723" y="112" type="curve" smooth="yes"/>
      <point x="723" y="304"/>
      <point x="723" y="497"/>
      <point x="723" y="689" type="curve"/>
      <point x="723" y="692"/>
      <point x="722" y="695"/>
      <point x="720" y="697" type="curve" smooth="yes"/>
      <point x="718" y="699"/>
      <point x="715" y="700"/>
      <point x="712" y="700" type="curve" smooth="yes"/>
      <point x="621" y="700" type="line"/>
      <point x="621" y="688"/>
      <point x="621" y="676"/>
      <point x="620" y="663" type="curve"/>
      <point x="616" y="509"/>
      <point x="612" y="355"/>
      <point x="608" y="203" type="curve" smooth="yes"/>
      <point x="608" y="141"/>
      <point x="608" y="79"/>
      <point x="608" y="17" type="curve" smooth="yes"/>
      <point x="608" y="8"/>
      <point x="609" y="5"/>
      <point x="611" y="3" type="curve" smooth="yes"/>
      <point x="613" y="1"/>
      <point x="615" y="0"/>
      <point x="619" y="0" type="curve" smooth="yes"/>
      <point x="654" y="0"/>
      <point x="688" y="0"/>
    </contour>
    <contour>
      <point x="242" y="687" type="curve" smooth="yes"/>
      <point x="238" y="697"/>
      <point x="234" y="700"/>
      <point x="226" y="700" type="curve"/>
      <point x="124" y="700" type="line"/>
      <point x="133" y="678"/>
      <point x="145" y="657"/>
      <point x="154" y="635" type="curve" smooth="yes"/>
      <point x="219" y="470"/>
      <point x="284" y="305"/>
      <point x="349" y="140" type="curve"/>
      <point x="350" y="136"/>
      <point x="356" y="133"/>
      <point x="360" y="133" type="curve" smooth="yes"/>
      <point x="368" y="133"/>
      <point x="377" y="138"/>
      <point x="430" y="214" type="curve"/>
      <point x="367" y="371"/>
      <point x="304" y="529"/>
    </contour>
    <contour>
      <point x="563" y="700" type="curve"/>
      <point x="500" y="538"/>
      <point x="435" y="375"/>
      <point x="372" y="214" type="curve"/>
      <point x="353" y="147"/>
      <point x="359" y="137"/>
      <point x="360" y="133" type="curve"/>
      <point x="446" y="133" type="line"/>
      <point x="517" y="314"/>
      <point x="589" y="496"/>
      <point x="661" y="678" type="curve" smooth="yes"/>
      <point x="668" y="695"/>
      <point x="663" y="700"/>
      <point x="657" y="700" type="curve" smooth="yes"/>
      <point x="642" y="700"/>
      <point x="573" y="700"/>
    </contour>
  </outline>
</glyph>
<glyph name="N" format="1">
  <advance width="700"/>
  <unicode hex="004E"/>
  <outline>
    <contour>
      <point x="193" y="0" type="curve"/>
      <point x="193" y="344" type="line"/>
      <point x="181" y="588"/>
      <point x="174" y="693"/>
      <point x="170" y="697" type="curve" smooth="yes"/>
      <point x="168" y="699"/>
      <point x="165" y="700"/>
      <point x="162" y="700" type="curve"/>
      <point x="137" y="700"/>
      <point x="85" y="700"/>
      <point x="77" y="700" type="curve"/>
      <point x="77" y="653"/>
      <point x="77" y="607"/>
      <point x="77" y="560" type="curve" smooth="yes"/>
      <point x="77" y="11" type="line"/>
      <point x="77" y="5"/>
      <point x="82" y="0"/>
      <point x="88" y="0" type="curve"/>
      <point x="123" y="0"/>
      <point x="158" y="0"/>
    </contour>
    <contour>
      <point x="623" y="0" type="line"/>
      <point x="623" y="689" type="line"/>
      <point x="623" y="695"/>
      <point x="618" y="700"/>
      <point x="612" y="700" type="curve"/>
      <point x="507" y="700" type="line"/>
      <point x="507" y="328" type="line"/>
      <point x="522" y="130"/>
      <point x="533" y="5"/>
      <point x="535" y="3" type="curve" smooth="yes"/>
      <point x="537" y="1"/>
      <point x="540" y="0"/>
      <point x="543" y="0" type="curve"/>
    </contour>
    <contour>
      <point x="155" y="700" type="line"/>
      <point x="144" y="694"/>
      <point x="141" y="692"/>
      <point x="105" y="640" type="curve"/>
      <point x="238" y="430"/>
      <point x="370" y="218"/>
      <point x="504" y="8" type="curve"/>
      <point x="507" y="1"/>
      <point x="511" y="0"/>
      <point x="516" y="0" type="curve" smooth="yes"/>
      <point x="527" y="0"/>
      <point x="547" y="0"/>
      <point x="559" y="0" type="curve"/>
      <point x="567" y="4"/>
      <point x="574" y="74"/>
      <point x="571" y="115" type="curve"/>
      <point x="449" y="307"/>
      <point x="328" y="499"/>
      <point x="207" y="690" type="curve"/>
      <point x="202" y="699"/>
      <point x="199" y="700"/>
      <point x="189" y="700" type="curve"/>
    </contour>
    <contour>
      <point x="350" y="711" type="move" name="top"/>
    </contour>
    <contour>
      <point x="350" y="-1" type="move" name="bottom"/>
    </contour>
  </outline>
</glyph>
<glyph name="O" format="1">
  <advance width="650"/>
  <unicode hex="004F"/>
  <outline>
    <contour>
      <point x="325" y="720" type="curve" smooth="yes"/>
      <point x="170" y="720"/>
      <point x="62" y="601"/>
      <point x="62" y="441" type="curve" smooth="yes"/>
      <point x="62" y="254" type="line" smooth="yes"/>
      <point x="62" y="84"/>
      <point x="169" y="-20"/>
      <point x="325" y="-20" type="curve" smooth="yes"/>
      <point x="331" y="-20"/>
      <point x="342" y="-5"/>
      <point x="325" y="89" type="curve"/>
      <point x="228" y="89"/>
      <point x="178" y="155"/>
      <point x="178" y="254" type="curve" smooth="yes"/>
      <point x="178" y="441" type="line" smooth="yes"/>
      <point x="178" y="540"/>
      <point x="230" y="611"/>
      <point x="325" y="611" type="curve" smooth="yes"/>
      <point x="380" y="611"/>
      <point x="414" y="611"/>
      <point x="442" y="611" type="curve"/>
      <point x="442" y="660"/>
      <point x="419" y="720"/>
    </contour>
    <contour>
      <point x="325" y="-20" type="curve" smooth="yes"/>
      <point x="480" y="-20"/>
      <point x="588" y="99"/>
      <point x="588" y="259" type="curve" smooth="yes"/>
      <point x="588" y="446" type="line" smooth="yes"/>
      <point x="588" y="616"/>
      <point x="481" y="720"/>
      <point x="325" y="720" type="curve" smooth="yes"/>
      <point x="319" y="720"/>
      <point x="308" y="705"/>
      <point x="325" y="611" type="curve"/>
      <point x="422" y="611"/>
      <point x="472" y="545"/>
      <point x="472" y="446" type="curve" smooth="yes"/>
      <point x="472" y="259" type="line" smooth="yes"/>
      <point x="472" y="160"/>
      <point x="420" y="89"/>
      <point x="325" y="89" type="curve" smooth="yes"/>
      <point x="270" y="89"/>
      <point x="236" y="89"/>
      <point x="208" y="89" type="curve"/>
      <point x="208" y="40"/>
      <point x="231" y="-20"/>
    </contour>
    <contour>
      <point x="325" y="711" type="move" name="top"/>
    </contour>
    <contour>
      <point x="429" y="8" type="move" name="ogonek"/>
    </contour>
    <contour>
      <point x="325" y="-1" type="move" name="bottom"/>
    </contour>
  </outline>
</glyph>
<glyph name="P" format="1">
  <advance width="600"/>
  <unicode hex="0050"/>
  <outline>
    <contour>
      <point x="203" y="0" type="curve"/>
      <point x="203" y="33"/>
      <point x="203" y="66"/>
      <point x="203" y="100" type="curve" smooth="yes"/>
      <point x="203" y="649" type="line" smooth="yes"/>
      <point x="203" y="655"/>
      <point x="198" y="660"/>
      <point x="84" y="660" type="curve"/>
      <point x="84" y="11" type="line" smooth="yes"/>
      <point x="84" y="8"/>
      <point x="85" y="5"/>
      <point x="87" y="3" type="curve" smooth="yes"/>
      <point x="89" y="1"/>
      <point x="92" y="0"/>
      <point x="95" y="0" type="curve" smooth="yes"/>
      <point x="131" y="0"/>
      <point x="166" y="0"/>
    </contour>
    <contour>
      <point x="37" y="700" type="curve"/>
      <point x="37" y="665"/>
      <point x="37" y="636"/>
      <point x="37" y="602" type="curve"/>
      <point x="37" y="599"/>
      <point x="38" y="596"/>
      <point x="40" y="594" type="curve" smooth="yes"/>
      <point x="42" y="592"/>
      <point x="45" y="591"/>
      <point x="48" y="591" type="curve" smooth="yes"/>
      <point x="67" y="591"/>
      <point x="88" y="591"/>
      <point x="112" y="591" type="curve" smooth="yes"/>
      <point x="172" y="591"/>
      <point x="256" y="591"/>
      <point x="310" y="591" type="curve" smooth="yes"/>
      <point x="361" y="591"/>
      <point x="380" y="591"/>
      <point x="407" y="591" type="curve"/>
      <point x="407" y="655"/>
      <point x="374" y="700"/>
      <point x="307" y="700" type="curve" smooth="yes"/>
      <point x="234" y="700"/>
      <point x="118" y="700"/>
    </contour>
    <contour>
      <point x="542" y="428" type="curve" smooth="yes"/>
      <point x="542" y="495" type="line" smooth="yes"/>
      <point x="542" y="635"/>
      <point x="460" y="700"/>
      <point x="307" y="700" type="curve"/>
      <point x="303" y="700"/>
      <point x="287" y="685"/>
      <point x="310" y="591" type="curve"/>
      <point x="388" y="591"/>
      <point x="419" y="565"/>
      <point x="419" y="496" type="curve" smooth="yes"/>
      <point x="419" y="429" type="line" smooth="yes"/>
      <point x="419" y="372"/>
      <point x="384" y="336"/>
      <point x="322" y="336" type="curve" smooth="yes"/>
      <point x="286" y="336"/>
      <point x="213" y="336"/>
      <point x="167" y="336" type="curve"/>
      <point x="167" y="300"/>
      <point x="167" y="279"/>
      <point x="167" y="238" type="curve" smooth="yes"/>
      <point x="167" y="232"/>
      <point x="172" y="227"/>
      <point x="178" y="227" type="curve" smooth="yes"/>
      <point x="329" y="227" type="line" smooth="yes"/>
      <point x="461" y="227"/>
      <point x="542" y="302"/>
    </contour>
  </outline>
</glyph>
<glyph name="Q" format="1">
  <advance width="650"/>
  <unicode hex="0051"/>
  <outline>
    <contour>
      <point x="325" y="720" type="curve" smooth="yes"/>
      <point x="170" y="720"/>
      <point x="62" y="601"/>
      <point x="62" y="441" type="curve" smooth="yes"/>
      <point x="62" y="254" type="line" smooth="yes"/>
      <point x="62" y="84"/>
      <point x="169" y="-20"/>
      <point x="325" y="-20" type="curve" smooth="yes"/>
      <point x="331" y="-20"/>
      <point x="342" y="-5"/>
      <point x="325" y="89" type="curve"/>
      <point x="228" y="89"/>
      <point x="178" y="155"/>
      <point x="178" y="254" type="curve" smooth="yes"/>
      <point x="178" y="441" type="line" smooth="yes"/>
      <point x="178" y="540"/>
      <point x="230" y="611"/>
      <point x="325" y="611" type="curve" smooth="yes"/>
      <point x="380" y="611"/>
      <point x="414" y="611"/>
      <point x="442" y="611" type="curve"/>
      <point x="442" y="660"/>
      <point x="419" y="720"/>
    </contour>
    <contour>
      <point x="325" y="-20" type="curve" smooth="yes"/>
      <point x="480" y="-20"/>
      <point x="588" y="99"/>
      <point x="588" y="259" type="curve" smooth="yes"/>
      <point x="588" y="446" type="line" smooth="yes"/>
      <point x="588" y="616"/>
      <point x="481" y="720"/>
      <point x="325" y="720" type="curve" smooth="yes"/>
      <point x="319" y="720"/>
      <point x="308" y="705"/>
      <point x="325" y="611" type="curve"/>
      <point x="422" y="611"/>
      <point x="472" y="545"/>
      <point x="472" y="446" type="curve" smooth="yes"/>
      <point x="472" y="259" type="line" smooth="yes"/>
      <point x="472" y="160"/>
      <point x="420" y="89"/>
      <point x="325" y="89" type="curve" smooth="yes"/>
      <point x="270" y="89"/>
      <point x="236" y="89"/>
      <point x="208" y="89" type="curve"/>
      <point x="208" y="40"/>
      <point x="231" y="-20"/>
    </contour>
    <contour>
      <point x="474" y="97" type="line"/>
      <point x="379" y="57"/>
      <point x="367" y="50"/>
      <point x="378" y="32" type="curve" smooth="yes"/>
      <point x="455" y="-86" type="line" smooth="yes"/>
      <point x="487" y="-136"/>
      <point x="514" y="-157"/>
      <point x="577" y="-157" type="curve" smooth="yes"/>
      <point x="606" y="-157" type="line" smooth="yes"/>
      <point x="613" y="-157"/>
      <point x="617" y="-153"/>
      <point x="617" y="-146" type="curve" smooth="yes"/>
      <point x="617" y="-109"/>
      <point x="617" y="-72"/>
      <point x="617" y="-34" type="curve"/>
      <point x="610" y="-34" type="line"/>
      <point x="604" y="-34"/>
      <point x="600" y="-34"/>
      <point x="593" y="-34" type="curve" smooth="yes"/>
      <point x="566" y="-34"/>
      <point x="555" y="-30"/>
      <point x="539" y="-6" type="curve" smooth="yes"/>
    </contour>
  </outline>
</glyph>
<glyph name="T" format="1">
  <advance width="600"/>
  <unicode hex="0054"/>
  <outline>
    <contour>
      <point x="53" y="700" type="line"/>
      <point x="53" y="667"/>
      <point x="53" y="635"/>
      <point x="53" y="602" type="curve" smooth="yes"/>
      <point x="53" y="599"/>
      <point x="54" y="596"/>
      <point x="56" y="594" type="curve" smooth="yes"/>
      <point x="58" y="592"/>
      <point x="61" y="591"/>
      <point x="64" y="591" type="curve" smooth="yes"/>
      <point x="547" y="591" type="line"/>
      <point x="547" y="623"/>
      <point x="547" y="656"/>
      <point x="547" y="689" type="curve" smooth="yes"/>
      <point x="547" y="695"/>
      <point x="542" y="700"/>
      <point x="536" y="700" type="curve" smooth="yes"/>
    </contour>
    <contour>
      <point x="361" y="0" type="curve"/>
      <point x="361" y="33"/>
      <point x="361" y="66"/>
      <point x="361" y="100" type="curve" smooth="yes"/>
      <point x="361" y="649" type="line" smooth="yes"/>
      <point x="361" y="655"/>
      <point x="356" y="660"/>
      <point x="239" y="660" type="curve"/>
      <point x="239" y="11" type="line" smooth="yes"/>
      <point x="239" y="8"/>
      <point x="240" y="5"/>
      <point x="242" y="3" type="curve" smooth="yes"/>
      <point x="244" y="1"/>
      <point x="247" y="0"/>
      <point x="250" y="0" type="curve" smooth="yes"/>
      <point x="287" y="0"/>
      <point x="324" y="0"/>
    </contour>
    <contour>
      <point x="300" y="711" type="move" name="top"/>
    </contour>
    <contour>
      <point x="300" y="-1" type="move" name="bottom"/>
    </contour>
  </outline>
</glyph>
<glyph name="V" format="1">
  <advance width="650"/>
  <unicode hex="0056"/>
  <outline>
    <contour>
      <point x="143" y="700" type="curve"/>
      <point x="35" y="700" type="line"/>
      <point x="98" y="470"/>
      <point x="160" y="240"/>
      <point x="222" y="10" type="curve"/>
      <point x="225" y="1"/>
      <point x="232" y="-3"/>
      <point x="241" y="-3" type="curve"/>
      <point x="290" y="-3"/>
      <point x="365" y="16"/>
      <point x="373" y="101" type="curve"/>
      <point x="351" y="101"/>
      <point x="339" y="101"/>
      <point x="322" y="101" type="curve" smooth="yes"/>
      <point x="315" y="101"/>
      <point x="313" y="103"/>
      <point x="311" y="112" type="curve"/>
      <point x="260" y="303"/>
      <point x="209" y="495"/>
      <point x="157" y="687" type="curve"/>
      <point x="155" y="696"/>
      <point x="151" y="700"/>
    </contour>
    <contour>
      <point x="601" y="700" type="curve"/>
      <point x="496" y="700" type="line"/>
      <point x="441" y="492"/>
      <point x="385" y="282"/>
      <point x="330" y="74" type="curve"/>
      <point x="319" y="22"/>
      <point x="280" y="6"/>
      <point x="241" y="-3" type="curve"/>
      <point x="424" y="-3" type="line"/>
      <point x="486" y="226"/>
      <point x="548" y="455"/>
      <point x="611" y="684" type="curve"/>
      <point x="613" y="693"/>
      <point x="610" y="700"/>
    </contour>
  </outline>
</glyph>
<glyph name="W" format="1">
  <advance width="900"/>
  <unicode hex="0057"/>
  <outline>
    <contour>
      <point x="32" y="700" type="curve"/>
      <point x="79" y="471"/>
      <point x="126" y="242"/>
      <point x="172" y="14" type="curve"/>
      <point x="174" y="4"/>
      <point x="182" y="0"/>
      <point x="191" y="0" type="curve"/>
      <point x="212" y="0" type="line" smooth="yes"/>
      <point x="236" y="0"/>
      <point x="276" y="17"/>
      <point x="283" y="32" type="curve"/>
      <point x="241" y="249"/>
      <point x="200" y="468"/>
      <point x="158" y="685" type="curve"/>
      <point x="157" y="693"/>
      <point x="156" y="696"/>
      <point x="154" y="697" type="curve" smooth="yes"/>
      <point x="152" y="699"/>
      <point x="150" y="700"/>
      <point x="146" y="700" type="curve"/>
      <point x="108" y="700"/>
      <point x="71" y="700"/>
    </contour>
    <contour>
      <point x="744" y="700" type="curve"/>
      <point x="704" y="492"/>
      <point x="663" y="283"/>
      <point x="623" y="75" type="curve"/>
      <point x="618" y="29"/>
      <point x="612" y="10"/>
      <point x="595" y="0" type="curve"/>
      <point x="725" y="0" type="line"/>
      <point x="772" y="229"/>
      <point x="819" y="458"/>
      <point x="865" y="687" type="curve" smooth="yes"/>
      <point x="866" y="693"/>
      <point x="866" y="695"/>
      <point x="864" y="697" type="curve" smooth="yes"/>
      <point x="862" y="699"/>
      <point x="861" y="700"/>
      <point x="857" y="700" type="curve"/>
      <point x="819" y="700"/>
      <point x="782" y="700"/>
    </contour>
    <contour>
      <point x="477" y="616" type="curve"/>
      <point x="391" y="616" type="line"/>
      <point x="344" y="436"/>
      <point x="297" y="255"/>
      <point x="250" y="75" type="curve"/>
      <point x="238" y="25"/>
      <point x="215" y="12"/>
      <point x="191" y="0" type="curve"/>
      <point x="334" y="0" type="line"/>
      <point x="386" y="198"/>
      <point x="437" y="398"/>
      <point x="488" y="596" type="curve" smooth="yes"/>
      <point x="492" y="609"/>
      <point x="487" y="616"/>
    </contour>
    <contour>
      <point x="500" y="616" type="curve"/>
      <point x="407" y="616" type="line"/>
      <point x="458" y="415"/>
      <point x="511" y="214"/>
      <point x="562" y="14" type="curve" smooth="yes"/>
      <point x="564" y="4"/>
      <point x="572" y="0"/>
      <point x="581" y="0" type="curve"/>
      <point x="632" y="0" type="line"/>
      <point x="643" y="0"/>
      <point x="665" y="10"/>
      <point x="661" y="25" type="curve"/>
      <point x="611" y="218"/>
      <point x="562" y="412"/>
      <point x="512" y="605" type="curve" smooth="yes"/>
      <point x="510" y="613"/>
      <point x="505" y="616"/>
    </contour>
    <contour>
      <point x="449" y="711" type="move" name="top"/>
    </contour>
  </outline>
</glyph>
<glyph name="X" format="1">
  <advance width="650"/>
  <unicode hex="0058"/>
  <outline>
    <contour>
      <point x="507" y="0" type="curve" smooth="yes"/>
      <point x="546" y="0"/>
      <point x="593" y="0"/>
      <point x="632" y="0" type="curve"/>
      <point x="549" y="126"/>
      <point x="465" y="252"/>
      <point x="381" y="377" type="curve" smooth="yes"/>
      <point x="370" y="396"/>
      <point x="355" y="404"/>
      <point x="345" y="421" type="curve" smooth="yes"/>
      <point x="286" y="511"/>
      <point x="227" y="601"/>
      <point x="169" y="691" type="curve" smooth="yes"/>
      <point x="165" y="698"/>
      <point x="159" y="700"/>
      <point x="150" y="700" type="curve" smooth="yes"/>
      <point x="27" y="700" type="line"/>
      <point x="106" y="577"/>
      <point x="185" y="454"/>
      <point x="264" y="330" type="curve" smooth="yes"/>
      <point x="274" y="313"/>
      <point x="292" y="302"/>
      <point x="303" y="285" type="curve" smooth="yes"/>
      <point x="364" y="194"/>
      <point x="427" y="100"/>
      <point x="488" y="9" type="curve" smooth="yes"/>
      <point x="493" y="2"/>
      <point x="499" y="0"/>
    </contour>
    <contour>
      <point x="606" y="700" type="curve" smooth="yes"/>
      <point x="494" y="700" type="line"/>
      <point x="426" y="593"/>
      <point x="359" y="485"/>
      <point x="292" y="377" type="curve"/>
      <point x="281" y="360"/>
      <point x="295" y="346"/>
      <point x="376" y="314" type="curve"/>
      <point x="455" y="436"/>
      <point x="534" y="558"/>
      <point x="615" y="683" type="curve"/>
      <point x="619" y="689"/>
      <point x="618" y="694"/>
      <point x="615" y="697" type="curve" smooth="yes"/>
      <point x="613" y="699"/>
      <point x="610" y="700"/>
    </contour>
    <contour>
      <point x="38" y="0" type="curve"/>
      <point x="152" y="0" type="line"/>
      <point x="220" y="108"/>
      <point x="289" y="215"/>
      <point x="356" y="323" type="curve"/>
      <point x="366" y="339"/>
      <point x="351" y="354"/>
      <point x="273" y="386" type="curve"/>
      <point x="192" y="264"/>
      <point x="110" y="140"/>
      <point x="29" y="18" type="curve" smooth="yes"/>
      <point x="25" y="12"/>
      <point x="25" y="7"/>
      <point x="29" y="3" type="curve" smooth="yes"/>
      <point x="31" y="1"/>
      <point x="34" y="0"/>
    </contour>
  </outline>
</glyph>
<glyph name="Z" format="1">
  <advance width="600"/>
  <unicode hex="005A"/>
  <outline>
    <contour>
      <point x="97" y="700" type="line"/>
      <point x="97" y="665"/>
      <point x="97" y="636"/>
      <point x="97" y="602" type="curve" smooth="yes"/>
      <point x="97" y="599"/>
      <point x="98" y="596"/>
      <point x="100" y="594" type="curve" smooth="yes"/>
      <point x="102" y="592"/>
      <point x="105" y="591"/>
      <point x="108" y="591" type="curve" smooth="yes"/>
      <point x="405" y="591" type="line" smooth="yes"/>
      <point x="441" y="591"/>
      <point x="493" y="593"/>
      <point x="532" y="599" type="curve" smooth="yes"/>
      <point x="538" y="600"/>
      <point x="543" y="600"/>
      <point x="547" y="601" type="curve"/>
      <point x="547" y="689" type="line" smooth="yes"/>
      <point x="547" y="695"/>
      <point x="542" y="700"/>
      <point x="536" y="700" type="curve" smooth="yes"/>
    </contour>
    <contour>
      <point x="429" y="632" type="curve"/>
      <point x="304" y="456"/>
      <point x="178" y="275"/>
      <point x="53" y="99" type="curve"/>
      <point x="158" y="62"/>
      <point x="169" y="65"/>
      <point x="176" y="75" type="curve" smooth="yes"/>
      <point x="371" y="348"/>
      <point x="547" y="599"/>
      <point x="547" y="601" type="curve"/>
      <point x="449" y="642"/>
      <point x="437" y="643"/>
    </contour>
    <contour>
      <point x="550" y="0" type="line"/>
      <point x="550" y="35"/>
      <point x="550" y="64"/>
      <point x="550" y="98" type="curve" smooth="yes"/>
      <point x="550" y="101"/>
      <point x="549" y="104"/>
      <point x="547" y="106" type="curve" smooth="yes"/>
      <point x="545" y="108"/>
      <point x="542" y="109"/>
      <point x="539" y="109" type="curve" smooth="yes"/>
      <point x="198" y="109" type="line" smooth="yes"/>
      <point x="155" y="109"/>
      <point x="97" y="109"/>
      <point x="53" y="99" type="curve"/>
      <point x="53" y="11" type="line" smooth="yes"/>
      <point x="53" y="5"/>
      <point x="58" y="0"/>
      <point x="64" y="0" type="curve" smooth="yes"/>
    </contour>
    <contour>
      <point x="176" y="517" type="curve"/>
      <point x="176" y="572"/>
      <point x="176" y="627"/>
      <point x="176" y="682" type="curve"/>
      <point x="176" y="695"/>
      <point x="171" y="700"/>
      <point x="158" y="700" type="curve" smooth="yes"/>
      <point x="60" y="700" type="line"/>
      <point x="60" y="642"/>
      <point x="60" y="585"/>
      <point x="60" y="528" type="curve"/>
      <point x="60" y="522"/>
      <point x="65" y="517"/>
      <point x="71" y="517" type="curve" smooth="yes"/>
      <point x="106" y="517"/>
      <point x="141" y="517"/>
    </contour>
    <contour>
      <point x="300" y="711" type="move" name="top"/>
    </contour>
  </outline>
</glyph>
<glyph name="bracketleft" format="1">
  <advance width="400"/>
  <unicode hex="005B"/>
  <outline>
    <contour>
      <point x="50" y="646" type="curve" smooth="yes"/>
      <point x="50" y="-31" type="line" smooth="yes"/>
      <point x="50" y="-41"/>
      <point x="77" y="-42"/>
      <point x="172" y="-42" type="curve"/>
      <point x="172" y="742" type="line" smooth="yes"/>
      <point x="172" y="748"/>
      <point x="164" y="753"/>
      <point x="137" y="753" type="curve" smooth="yes"/>
      <point x="103" y="753"/>
      <point x="85" y="753"/>
      <point x="50" y="753" type="curve"/>
      <point x="50" y="717"/>
      <point x="50" y="682"/>
    </contour>
    <contour>
      <point x="365" y="643" type="line"/>
      <point x="365" y="678"/>
      <point x="365" y="708"/>
      <point x="365" y="742" type="curve" smooth="yes"/>
      <point x="365" y="745"/>
      <point x="364" y="748"/>
      <point x="362" y="750" type="curve" smooth="yes"/>
      <point x="360" y="752"/>
      <point x="357" y="753"/>
      <point x="354" y="753" type="curve" smooth="yes"/>
      <point x="137" y="753" type="line"/>
      <point x="137" y="648"/>
      <point x="143" y="643"/>
      <point x="148" y="643" type="curve"/>
    </contour>
    <contour>
      <point x="365" y="-141" type="line"/>
      <point x="365" y="-106"/>
      <point x="365" y="-76"/>
      <point x="365" y="-41" type="curve" smooth="yes"/>
      <point x="365" y="-35"/>
      <point x="360" y="-30"/>
      <point x="354" y="-30" type="curve" smooth="yes"/>
      <point x="50" y="-30" type="line"/>
      <point x="50" y="-130" type="line" smooth="yes"/>
      <point x="50" y="-136"/>
      <point x="55" y="-141"/>
      <point x="61" y="-141" type="curve" smooth="yes"/>
    </contour>
  </outline>
</glyph>
<glyph name="bracketright" format="1">
  <advance width="400"/>
  <unicode hex="005D"/>
  <outline>
    <contour>
      <point x="350" y="-33" type="curve" smooth="yes"/>
      <point x="350" y="644" type="line" smooth="yes"/>
      <point x="350" y="654"/>
      <point x="323" y="655"/>
      <point x="228" y="655" type="curve"/>
      <point x="228" y="-129" type="line" smooth="yes"/>
      <point x="228" y="-135"/>
      <point x="236" y="-140"/>
      <point x="263" y="-140" type="curve" smooth="yes"/>
      <point x="297" y="-140"/>
      <point x="315" y="-140"/>
      <point x="350" y="-140" type="curve"/>
      <point x="350" y="-104"/>
      <point x="350" y="-69"/>
    </contour>
    <contour>
      <point x="35" y="-30" type="line"/>
      <point x="35" y="-65"/>
      <point x="35" y="-95"/>
      <point x="35" y="-129" type="curve" smooth="yes"/>
      <point x="35" y="-132"/>
      <point x="36" y="-135"/>
      <point x="38" y="-137" type="curve" smooth="yes"/>
      <point x="40" y="-139"/>
      <point x="43" y="-140"/>
      <point x="46" y="-140" type="curve" smooth="yes"/>
      <point x="263" y="-140" type="line"/>
      <point x="263" y="-35"/>
      <point x="257" y="-30"/>
      <point x="252" y="-30" type="curve"/>
    </contour>
    <contour>
      <point x="35" y="754" type="line"/>
      <point x="35" y="719"/>
      <point x="35" y="689"/>
      <point x="35" y="654" type="curve" smooth="yes"/>
      <point x="35" y="648"/>
      <point x="40" y="643"/>
      <point x="46" y="643" type="curve" smooth="yes"/>
      <point x="350" y="643" type="line"/>
      <point x="350" y="743" type="line" smooth="yes"/>
      <point x="350" y="749"/>
      <point x="345" y="754"/>
      <point x="339" y="754" type="curve" smooth="yes"/>
    </contour>
  </outline>
</glyph>
<glyph name="underscore" format="1">
  <advance width="600"/>
  <unicode hex="005F"/>
  <outline>
    <contour>
      <point x="59" y="-67" type="line"/>
      <point x="59" y="-102"/>
      <point x="59" y="-132"/>
      <point x="59" y="-167" type="curve" smooth="yes"/>
      <point x="59" y="-170"/>
      <point x="60" y="-173"/>
      <point x="62" y="-175" type="curve" smooth="yes"/>
      <point x="64" y="-177"/>
      <point x="67" y="-178"/>
      <point x="70" y="-178" type="curve"/>
      <point x="541" y="-178" type="line"/>
      <point x="541" y="-143"/>
      <point x="541" y="-113"/>
      <point x="541" y="-78" type="curve" smooth="yes"/>
      <point x="541" y="-72"/>
      <point x="536" y="-67"/>
      <point x="530" y="-67" type="curve"/>
    </contour>
  </outline>
</glyph>
<glyph name="grave" format="1">
  <advance width="514"/>
  <unicode hex="0060"/>
  <outline>
    <contour>
      <point x="368" y="386" type="curve"/>
      <point x="344" y="495"/>
      <point x="320" y="605"/>
      <point x="296" y="714" type="curve"/>
      <point x="228" y="714"/>
      <point x="193" y="714"/>
      <point x="135" y="714" type="curve" smooth="yes"/>
      <point x="127" y="714"/>
      <point x="124" y="709"/>
      <point x="127" y="701" type="curve" smooth="yes"/>
      <point x="162" y="613"/>
      <point x="208" y="496"/>
      <point x="249" y="393" type="curve" smooth="yes"/>
      <point x="251" y="387"/>
      <point x="254" y="386"/>
      <point x="259" y="386" type="curve" smooth="yes"/>
      <point x="307" y="386"/>
      <point x="339" y="386"/>
    </contour>
  </outline>
</glyph>
<glyph name="b" format="1">
  <advance width="600"/>
  <unicode hex="0062"/>
  <outline>
    <contour>
      <point x="84" y="0" type="line"/>
      <point x="104" y="0"/>
      <point x="124" y="0"/>
      <point x="144" y="0" type="curve" smooth="yes"/>
      <point x="158" y="0"/>
      <point x="203" y="77"/>
      <point x="203" y="103" type="curve" smooth="yes"/>
      <point x="203" y="739" type="line"/>
      <point x="203" y="745"/>
      <point x="198" y="750"/>
      <point x="192" y="750" type="curve" smooth="yes"/>
      <point x="156" y="750"/>
      <point x="120" y="750"/>
      <point x="84" y="750" type="curve"/>
      <point x="84" y="707"/>
      <point x="84" y="663"/>
      <point x="84" y="619" type="curve" smooth="yes"/>
    </contour>
    <contour>
      <point x="375" y="547" type="curve" smooth="yes"/>
      <point x="313" y="547"/>
      <point x="253" y="522"/>
      <point x="200" y="469" type="curve" smooth="yes"/>
      <point x="158" y="427"/>
      <point x="150" y="387"/>
      <point x="164" y="353" type="curve"/>
      <point x="233" y="411"/>
      <point x="281" y="432"/>
      <point x="339" y="432" type="curve" smooth="yes"/>
      <point x="390" y="432"/>
      <point x="419" y="401"/>
      <point x="419" y="338" type="curve"/>
      <point x="477" y="337"/>
      <point x="538" y="347"/>
      <point x="538" y="356" type="curve" smooth="yes"/>
      <point x="538" y="471"/>
      <point x="473" y="547"/>
    </contour>
    <contour>
      <point x="346" y="-10" type="curve" smooth="yes"/>
      <point x="468" y="-10"/>
      <point x="538" y="72"/>
      <point x="538" y="219" type="curve" smooth="yes"/>
      <point x="538" y="356" type="line" smooth="yes"/>
      <point x="538" y="416"/>
      <point x="488" y="473"/>
      <point x="428" y="473" type="curve"/>
      <point x="403" y="473"/>
      <point x="389" y="464"/>
      <point x="388" y="446" type="curve"/>
      <point x="410" y="415"/>
      <point x="419" y="392"/>
      <point x="419" y="338" type="curve" smooth="yes"/>
      <point x="419" y="211" type="line" smooth="yes"/>
      <point x="419" y="137"/>
      <point x="388" y="101"/>
      <point x="330" y="101" type="curve" smooth="yes"/>
      <point x="277" y="101"/>
      <point x="225" y="125"/>
      <point x="176" y="179" type="curve"/>
      <point x="172" y="173"/>
      <point x="160" y="136"/>
      <point x="163" y="122" type="curve" smooth="yes"/>
      <point x="177" y="49"/>
      <point x="256" y="-10"/>
    </contour>
  </outline>
</glyph>
<glyph name="c" format="1">
  <advance width="500"/>
  <unicode hex="0063"/>
  <outline>
    <contour>
      <point x="309" y="547" type="curve" smooth="yes"/>
      <point x="164" y="547"/>
      <point x="62" y="454"/>
      <point x="62" y="304" type="curve" smooth="yes"/>
      <point x="62" y="224" type="line" smooth="yes"/>
      <point x="62" y="74"/>
      <point x="153" y="-11"/>
      <point x="308" y="-11" type="curve" smooth="yes"/>
      <point x="334" y="-11"/>
      <point x="337" y="5"/>
      <point x="308" y="98" type="curve"/>
      <point x="225" y="98"/>
      <point x="181" y="142"/>
      <point x="181" y="230" type="curve" smooth="yes"/>
      <point x="181" y="301" type="line" smooth="yes"/>
      <point x="181" y="394"/>
      <point x="229" y="437"/>
      <point x="308" y="437" type="curve" smooth="yes"/>
      <point x="358" y="437"/>
      <point x="397" y="425"/>
      <point x="430" y="410" type="curve"/>
      <point x="448" y="410" type="line"/>
      <point x="448" y="443"/>
      <point x="448" y="473"/>
      <point x="448" y="506" type="curve"/>
      <point x="448" y="510"/>
      <point x="447" y="513"/>
      <point x="444" y="516" type="curve" smooth="yes"/>
      <point x="432" y="528"/>
      <point x="384" y="547"/>
    </contour>
    <contour>
      <point x="308" y="-11" type="curve" smooth="yes"/>
      <point x="386" y="-11"/>
      <point x="432" y="6"/>
      <point x="445" y="19" type="curve" smooth="yes"/>
      <point x="447" y="21"/>
      <point x="448" y="24"/>
      <point x="448" y="27" type="curve"/>
      <point x="448" y="59"/>
      <point x="448" y="91"/>
      <point x="448" y="124" type="curve"/>
      <point x="430" y="124" type="line"/>
      <point x="396" y="107"/>
      <point x="358" y="98"/>
      <point x="308" y="98" type="curve" smooth="yes"/>
      <point x="231" y="98"/>
      <point x="184" y="123"/>
      <point x="133" y="169" type="curve"/>
      <point x="105" y="85"/>
      <point x="164" y="-11"/>
    </contour>
    <contour>
      <point x="284" y="546" type="move" name="top"/>
    </contour>
    <contour>
      <point x="284" y="-1" type="move" name="bottom"/>
    </contour>
  </outline>
</glyph>
<glyph name="d" format="1">
  <advance width="600"/>
  <unicode hex="0064"/>
  <outline>
    <contour>
      <point x="249" y="547" type="curve" smooth="yes"/>
      <point x="133" y="547"/>
      <point x="62" y="465"/>
      <point x="62" y="325" type="curve" smooth="yes"/>
      <point x="62" y="181" type="line" smooth="yes"/>
      <point x="62" y="124"/>
      <point x="112" y="68"/>
      <point x="172" y="68" type="curve" smooth="yes"/>
      <point x="197" y="68"/>
      <point x="211" y="78"/>
      <point x="212" y="96" type="curve"/>
      <point x="193" y="125"/>
      <point x="181" y="143"/>
      <point x="181" y="188" type="curve" smooth="yes"/>
      <point x="181" y="323" type="line" smooth="yes"/>
      <point x="181" y="396"/>
      <point x="211" y="435"/>
      <point x="276" y="435" type="curve" smooth="yes"/>
      <point x="327" y="435"/>
      <point x="370" y="412"/>
      <point x="414" y="367" type="curve"/>
      <point x="429" y="375"/>
      <point x="431" y="405"/>
      <point x="428" y="421" type="curve" smooth="yes"/>
      <point x="419" y="479"/>
      <point x="342" y="547"/>
    </contour>
    <contour>
      <point x="223" y="-10" type="curve" smooth="yes"/>
      <point x="291" y="-10"/>
      <point x="348" y="21"/>
      <point x="399" y="82" type="curve" smooth="yes"/>
      <point x="436" y="127"/>
      <point x="440" y="171"/>
      <point x="426" y="199" type="curve"/>
      <point x="356" y="127"/>
      <point x="312" y="100"/>
      <point x="257" y="100" type="curve" smooth="yes"/>
      <point x="209" y="100"/>
      <point x="181" y="128"/>
      <point x="181" y="188" type="curve"/>
      <point x="116" y="208"/>
      <point x="62" y="184"/>
      <point x="62" y="181" type="curve" smooth="yes"/>
      <point x="62" y="65"/>
      <point x="129" y="-10"/>
    </contour>
    <contour>
      <point x="397" y="750" type="curve"/>
      <point x="397" y="716"/>
      <point x="397" y="683"/>
      <point x="397" y="650" type="curve" smooth="yes"/>
      <point x="397" y="11" type="line"/>
      <point x="397" y="8"/>
      <point x="398" y="5"/>
      <point x="400" y="3" type="curve" smooth="yes"/>
      <point x="402" y="1"/>
      <point x="405" y="0"/>
      <point x="408" y="0" type="curve" smooth="yes"/>
      <point x="444" y="0"/>
      <point x="480" y="0"/>
      <point x="516" y="0" type="curve"/>
      <point x="516" y="40"/>
      <point x="516" y="84"/>
      <point x="516" y="132" type="curve" smooth="yes"/>
      <point x="516" y="739" type="line"/>
      <point x="516" y="742"/>
      <point x="515" y="745"/>
      <point x="513" y="747" type="curve" smooth="yes"/>
      <point x="511" y="749"/>
      <point x="508" y="750"/>
      <point x="505" y="750" type="curve" smooth="yes"/>
      <point x="469" y="750"/>
      <point x="433" y="750"/>
    </contour>
    <contour>
      <point x="490" y="711" type="move" name="caronslovak"/>
    </contour>
  </outline>
</glyph>
<glyph name="e" format="1">
  <advance width="600"/>
  <unicode hex="0065"/>
  <outline>
    <contour>
      <point x="306" y="442" type="curve" smooth="yes"/>
      <point x="373" y="442"/>
      <point x="404" y="421"/>
      <point x="435" y="362" type="curve"/>
      <point x="456" y="379"/>
      <point x="471" y="403"/>
      <point x="471" y="433" type="curve"/>
      <point x="471" y="497"/>
      <point x="386" y="547"/>
      <point x="307" y="547" type="curve"/>
      <point x="167" y="547"/>
      <point x="72" y="464"/>
      <point x="72" y="318" type="curve" smooth="yes"/>
      <point x="72" y="218" type="line" smooth="yes"/>
      <point x="72" y="69"/>
      <point x="169" y="-11"/>
      <point x="320" y="-11" type="curve" smooth="yes"/>
      <point x="345" y="-11"/>
      <point x="356" y="9"/>
      <point x="331" y="100" type="curve"/>
      <point x="240" y="100"/>
      <point x="188" y="133"/>
      <point x="188" y="217" type="curve" smooth="yes"/>
      <point x="188" y="321" type="line" smooth="yes"/>
      <point x="188" y="406"/>
      <point x="224" y="442"/>
    </contour>
    <contour>
      <point x="508" y="26" type="curve" smooth="yes"/>
      <point x="512" y="28"/>
      <point x="513" y="31"/>
      <point x="513" y="34" type="curve" smooth="yes"/>
      <point x="513" y="66"/>
      <point x="513" y="103"/>
      <point x="513" y="131" type="curve"/>
      <point x="495" y="131" type="line"/>
      <point x="447" y="110"/>
      <point x="404" y="100"/>
      <point x="331" y="100" type="curve" smooth="yes"/>
      <point x="250" y="100"/>
      <point x="220" y="111"/>
      <point x="175" y="142" type="curve"/>
      <point x="166" y="72"/>
      <point x="224" y="-11"/>
      <point x="320" y="-11" type="curve" smooth="yes"/>
      <point x="413" y="-11"/>
      <point x="487" y="11"/>
    </contour>
    <contour>
      <point x="513" y="231" type="line" smooth="yes"/>
      <point x="519" y="231"/>
      <point x="523" y="235"/>
      <point x="523" y="242" type="curve" smooth="yes"/>
      <point x="523" y="315" type="line" smooth="yes"/>
      <point x="523" y="479"/>
      <point x="438" y="547"/>
      <point x="307" y="547" type="curve" smooth="yes"/>
      <point x="293" y="547"/>
      <point x="288" y="534"/>
      <point x="306" y="442" type="curve"/>
      <point x="381" y="442"/>
      <point x="407" y="404"/>
      <point x="407" y="329" type="curve" smooth="yes"/>
      <point x="407" y="314" type="line" smooth="yes"/>
      <point x="407" y="313"/>
      <point x="407" y="313"/>
      <point x="406" y="313" type="curve" smooth="yes"/>
      <point x="264" y="313"/>
      <point x="213" y="313"/>
      <point x="109" y="313" type="curve"/>
      <point x="109" y="278"/>
      <point x="111" y="259"/>
      <point x="124" y="247" type="curve" smooth="yes"/>
      <point x="134" y="236"/>
      <point x="149" y="231"/>
      <point x="166" y="231" type="curve" smooth="yes"/>
    </contour>
    <contour>
      <point x="302" y="546" type="move" name="top"/>
    </contour>
    <contour>
      <point x="514" y="34" type="move" name="ogonek"/>
    </contour>
    <contour>
      <point x="302" y="-1" type="move" name="bottom"/>
    </contour>
  </outline>
</glyph>
<glyph name="f" format="1">
  <advance width="400"/>
  <unicode hex="0066"/>
  <outline>
    <contour>
      <point x="213" y="0" type="curve"/>
      <point x="213" y="33"/>
      <point x="213" y="67"/>
      <point x="213" y="100" type="curve" smooth="yes"/>
      <point x="213" y="537" type="line" smooth="yes"/>
      <point x="213" y="549"/>
      <point x="213" y="561"/>
      <point x="213" y="576" type="curve" smooth="yes"/>
      <point x="213" y="635"/>
      <point x="238" y="664"/>
      <point x="291" y="664" type="curve"/>
      <point x="302" y="758"/>
      <point x="299" y="767"/>
      <point x="282" y="767" type="curve" smooth="yes"/>
      <point x="169" y="767"/>
      <point x="98" y="698"/>
      <point x="98" y="575" type="curve" smooth="yes"/>
      <point x="98" y="11" type="line" smooth="yes"/>
      <point x="98" y="5"/>
      <point x="103" y="0"/>
      <point x="109" y="0" type="curve" smooth="yes"/>
      <point x="145" y="0"/>
      <point x="180" y="0"/>
    </contour>
    <contour>
      <point x="192" y="652" type="curve"/>
      <point x="227" y="660"/>
      <point x="246" y="664"/>
      <point x="291" y="664" type="curve" smooth="yes"/>
      <point x="322" y="664"/>
      <point x="347" y="657"/>
      <point x="373" y="647" type="curve"/>
      <point x="390" y="647" type="line"/>
      <point x="390" y="678"/>
      <point x="390" y="704"/>
      <point x="390" y="736" type="curve"/>
      <point x="390" y="739"/>
      <point x="389" y="742"/>
      <point x="387" y="744" type="curve" smooth="yes"/>
      <point x="377" y="754"/>
      <point x="333" y="767"/>
      <point x="282" y="767" type="curve" smooth="yes"/>
      <point x="221" y="767"/>
      <point x="184" y="706"/>
    </contour>
    <contour>
      <point x="33" y="535" type="curve"/>
      <point x="33" y="501"/>
      <point x="33" y="472"/>
      <point x="33" y="438" type="curve" smooth="yes"/>
      <point x="33" y="435"/>
      <point x="34" y="432"/>
      <point x="36" y="430" type="curve" smooth="yes"/>
      <point x="38" y="428"/>
      <point x="41" y="427"/>
      <point x="44" y="427" type="curve" smooth="yes"/>
      <point x="138" y="427"/>
      <point x="255" y="427"/>
      <point x="354" y="427" type="curve"/>
      <point x="354" y="461"/>
      <point x="354" y="490"/>
      <point x="354" y="524" type="curve" smooth="yes"/>
      <point x="354" y="530"/>
      <point x="349" y="535"/>
      <point x="343" y="535" type="curve" smooth="yes"/>
      <point x="254" y="535"/>
      <point x="121" y="535"/>
    </contour>
  </outline>
</glyph>
<glyph name="g" format="1">
  <advance width="600"/>
  <unicode hex="0067"/>
  <outline>
    <contour>
      <point x="298" y="446" type="curve" smooth="yes"/>
      <point x="386" y="446"/>
      <point x="485" y="446"/>
      <point x="562" y="446" type="curve" smooth="yes"/>
      <point x="568" y="446"/>
      <point x="573" y="451"/>
      <point x="573" y="457" type="curve" smooth="yes"/>
      <point x="573" y="486"/>
      <point x="573" y="514"/>
      <point x="573" y="543" type="curve"/>
      <point x="479" y="543"/>
      <point x="385" y="543"/>
      <point x="291" y="543" type="curve" smooth="yes"/>
      <point x="164" y="543"/>
      <point x="69" y="478"/>
      <point x="69" y="369" type="curve" smooth="yes"/>
      <point x="69" y="342" type="line" smooth="yes"/>
      <point x="69" y="240"/>
      <point x="150" y="176"/>
      <point x="293" y="174" type="curve"/>
      <point x="304" y="174"/>
      <point x="317" y="200"/>
      <point x="286" y="265" type="curve"/>
      <point x="227" y="265"/>
      <point x="184" y="290"/>
      <point x="184" y="338" type="curve" smooth="yes"/>
      <point x="184" y="368" type="line" smooth="yes"/>
      <point x="184" y="419"/>
      <point x="230" y="446"/>
    </contour>
    <contour>
      <point x="286" y="265" type="curve" smooth="yes"/>
      <point x="229" y="265"/>
      <point x="187" y="279"/>
      <point x="149" y="301" type="curve"/>
      <point x="126" y="257"/>
      <point x="186" y="174"/>
      <point x="293" y="174" type="curve" smooth="yes"/>
      <point x="416" y="174"/>
      <point x="508" y="230"/>
      <point x="508" y="325" type="curve" smooth="yes"/>
      <point x="508" y="347" type="line" smooth="yes"/>
      <point x="508" y="405"/>
      <point x="458" y="461"/>
      <point x="378" y="461" type="curve" smooth="yes"/>
      <point x="365" y="461"/>
      <point x="355" y="459"/>
      <point x="342" y="454" type="curve"/>
      <point x="382" y="425"/>
      <point x="393" y="400"/>
      <point x="393" y="366" type="curve" smooth="yes"/>
      <point x="393" y="341" type="line" smooth="yes"/>
      <point x="393" y="292"/>
      <point x="350" y="265"/>
    </contour>
    <contour>
      <point x="131" y="91" type="curve" smooth="yes"/>
      <point x="131" y="85" type="line" smooth="yes"/>
      <point x="131" y="25"/>
      <point x="179" y="-13"/>
      <point x="253" y="-13" type="curve" smooth="yes"/>
      <point x="371" y="-13" type="line" smooth="yes"/>
      <point x="428" y="-13"/>
      <point x="452" y="-34"/>
      <point x="452" y="-75" type="curve" smooth="yes"/>
      <point x="452" y="-98" type="line" smooth="yes"/>
      <point x="452" y="-131"/>
      <point x="427" y="-162"/>
      <point x="365" y="-162" type="curve"/>
      <point x="350" y="-237"/>
      <point x="350" y="-250"/>
      <point x="362" y="-250" type="curve" smooth="yes"/>
      <point x="489" y="-250"/>
      <point x="570" y="-199"/>
      <point x="570" y="-79" type="curve" smooth="yes"/>
      <point x="570" y="-62" type="line" smooth="yes"/>
      <point x="570" y="28"/>
      <point x="509" y="86"/>
      <point x="378" y="86" type="curve" smooth="yes"/>
      <point x="268" y="86" type="line" smooth="yes"/>
      <point x="249" y="86"/>
      <point x="242" y="93"/>
      <point x="242" y="111" type="curve" smooth="yes"/>
      <point x="242" y="122" type="line" smooth="yes"/>
      <point x="242" y="141"/>
      <point x="248" y="171"/>
      <point x="255" y="187" type="curve"/>
      <point x="255" y="192"/>
      <point x="252" y="200"/>
      <point x="245" y="202" type="curve" smooth="yes"/>
      <point x="174" y="202"/>
      <point x="131" y="141"/>
    </contour>
    <contour>
      <point x="470" y="-148" type="curve"/>
      <point x="435" y="-160"/>
      <point x="404" y="-162"/>
      <point x="365" y="-162" type="curve" smooth="yes"/>
      <point x="257" y="-162" type="line" smooth="yes"/>
      <point x="189" y="-162"/>
      <point x="162" y="-140"/>
      <point x="162" y="-93" type="curve" smooth="yes"/>
      <point x="162" y="-68" type="line" smooth="yes"/>
      <point x="162" y="-37"/>
      <point x="173" y="-12"/>
      <point x="219" y="8" type="curve"/>
      <point x="217" y="26"/>
      <point x="206" y="41"/>
      <point x="174" y="40" type="curve" smooth="yes"/>
      <point x="94" y="35"/>
      <point x="44" y="-27"/>
      <point x="44" y="-97" type="curve" smooth="yes"/>
      <point x="44" y="-112" type="line" smooth="yes"/>
      <point x="44" y="-199"/>
      <point x="116" y="-250"/>
      <point x="226" y="-250" type="curve" smooth="yes"/>
      <point x="362" y="-250" type="line" smooth="yes"/>
      <point x="417" y="-250"/>
      <point x="474" y="-218"/>
    </contour>
  </outline>
</glyph>
<glyph name="i" format="1">
  <advance width="350"/>
  <unicode hex="0069"/>
  <outline>
    <contour>
      <point x="37" y="535" type="curve"/>
      <point x="37" y="504"/>
      <point x="37" y="473"/>
      <point x="37" y="442" type="curve" smooth="yes"/>
      <point x="37" y="436"/>
      <point x="42" y="431"/>
      <point x="48" y="431" type="curve" smooth="yes"/>
      <point x="88" y="431"/>
      <point x="135" y="431"/>
      <point x="168" y="431" type="curve"/>
      <point x="168" y="523"/>
      <point x="165" y="535"/>
      <point x="155" y="535" type="curve" smooth="yes"/>
      <point x="111" y="535"/>
      <point x="80" y="535"/>
    </contour>
    <contour>
      <point x="246" y="0" type="curve"/>
      <point x="246" y="37"/>
      <point x="246" y="72"/>
      <point x="246" y="109" type="curve" smooth="yes"/>
      <point x="246" y="524" type="line" smooth="yes"/>
      <point x="246" y="530"/>
      <point x="241" y="535"/>
      <point x="235" y="535" type="curve" smooth="yes"/>
      <point x="131" y="535" type="line"/>
      <point x="131" y="11" type="line" smooth="yes"/>
      <point x="131" y="5"/>
      <point x="136" y="0"/>
      <point x="142" y="0" type="curve" smooth="yes"/>
      <point x="179" y="0"/>
      <point x="209" y="0"/>
    </contour>
    <contour>
      <point x="257" y="659" type="curve"/>
      <point x="257" y="774" type="line" smooth="yes"/>
      <point x="257" y="780"/>
      <point x="252" y="785"/>
      <point x="246" y="785" type="curve" smooth="yes"/>
      <point x="202" y="785"/>
      <point x="156" y="785"/>
      <point x="112" y="785" type="curve"/>
      <point x="112" y="670" type="line" smooth="yes"/>
      <point x="112" y="664"/>
      <point x="117" y="659"/>
      <point x="123" y="659" type="curve" smooth="yes"/>
      <point x="167" y="659"/>
      <point x="213" y="659"/>
    </contour>
    <contour>
      <point x="247" y="0" type="move" name="ogonek"/>
    </contour>
    <contour>
      <point x="191" y="-1" type="move" name="bottom"/>
    </contour>
  </outline>
</glyph>
<glyph name="j" format="1">
  <advance width="350"/>
  <unicode hex="006A"/>
  <outline>
    <contour>
      <point x="47" y="535" type="curve"/>
      <point x="47" y="501"/>
      <point x="47" y="471"/>
      <point x="47" y="437" type="curve" smooth="yes"/>
      <point x="47" y="431"/>
      <point x="52" y="426"/>
      <point x="58" y="426" type="curve" smooth="yes"/>
      <point x="113" y="426"/>
      <point x="171" y="426"/>
      <point x="225" y="426" type="curve"/>
      <point x="225" y="476"/>
      <point x="209" y="535"/>
      <point x="172" y="535" type="curve" smooth="yes"/>
      <point x="131" y="535"/>
      <point x="88" y="535"/>
    </contour>
    <contour>
      <point x="265" y="-59" type="curve" smooth="yes"/>
      <point x="265" y="524" type="line" smooth="yes"/>
      <point x="265" y="527"/>
      <point x="264" y="530"/>
      <point x="262" y="532" type="curve" smooth="yes"/>
      <point x="260" y="534"/>
      <point x="257" y="535"/>
      <point x="254" y="535" type="curve" smooth="yes"/>
      <point x="149" y="535" type="line"/>
      <point x="149" y="-61" type="line" smooth="yes"/>
      <point x="149" y="-123"/>
      <point x="142" y="-156"/>
      <point x="105" y="-195" type="curve"/>
      <point x="165" y="-219"/>
      <point x="265" y="-166"/>
    </contour>
    <contour>
      <point x="80" y="-141" type="curve" smooth="yes"/>
      <point x="56" y="-141"/>
      <point x="39" y="-137"/>
      <point x="17" y="-127" type="curve"/>
      <point x="0" y="-127" type="line"/>
      <point x="0" y="-158"/>
      <point x="0" y="-191"/>
      <point x="0" y="-223" type="curve" smooth="yes"/>
      <point x="0" y="-227"/>
      <point x="1" y="-229"/>
      <point x="3" y="-231" type="curve" smooth="yes"/>
      <point x="11" y="-239"/>
      <point x="41" y="-250"/>
      <point x="90" y="-250" type="curve" smooth="yes"/>
      <point x="196" y="-250"/>
      <point x="265" y="-189"/>
      <point x="265" y="-59" type="curve" smooth="yes"/>
      <point x="265" y="-50"/>
      <point x="257" y="-43"/>
      <point x="149" y="-61" type="curve"/>
      <point x="149" y="-119"/>
      <point x="125" y="-141"/>
    </contour>
    <contour>
      <point x="280" y="659" type="curve"/>
      <point x="280" y="774" type="line" smooth="yes"/>
      <point x="280" y="780"/>
      <point x="275" y="785"/>
      <point x="269" y="785" type="curve" smooth="yes"/>
      <point x="224" y="785"/>
      <point x="179" y="785"/>
      <point x="134" y="785" type="curve"/>
      <point x="134" y="670" type="line" smooth="yes"/>
      <point x="134" y="664"/>
      <point x="139" y="659"/>
      <point x="145" y="659" type="curve" smooth="yes"/>
      <point x="190" y="659"/>
      <point x="235" y="659"/>
    </contour>
  </outline>
</glyph>
<glyph name="l" format="1">
  <advance width="300"/>
  <unicode hex="006C"/>
  <outline>
    <contour>
      <point x="74" y="639" type="curve"/>
      <point x="74" y="143" type="line" smooth="yes"/>
      <point x="74" y="75"/>
      <point x="130" y="25"/>
      <point x="195" y="57" type="curve"/>
      <point x="190" y="88"/>
      <point x="189" y="121"/>
      <point x="189" y="152" type="curve" smooth="yes"/>
      <point x="189" y="739" type="line" smooth="yes"/>
      <point x="189" y="742"/>
      <point x="188" y="745"/>
      <point x="186" y="747" type="curve" smooth="yes"/>
      <point x="184" y="749"/>
      <point x="181" y="750"/>
      <point x="178" y="750" type="curve" smooth="yes"/>
      <point x="144" y="750"/>
      <point x="108" y="750"/>
      <point x="74" y="750" type="curve"/>
      <point x="74" y="713"/>
      <point x="74" y="676"/>
    </contour>
    <contour>
      <point x="280" y="109" type="curve"/>
      <point x="263" y="109" type="line"/>
      <point x="252" y="109"/>
      <point x="241" y="109"/>
      <point x="230" y="109" type="curve" smooth="yes"/>
      <point x="201" y="109"/>
      <point x="189" y="120"/>
      <point x="189" y="152" type="curve"/>
      <point x="103" y="158"/>
      <point x="74" y="158"/>
      <point x="74" y="143" type="curve" smooth="yes"/>
      <point x="74" y="40"/>
      <point x="129" y="0"/>
      <point x="210" y="0" type="curve" smooth="yes"/>
      <point x="269" y="0" type="line" smooth="yes"/>
      <point x="272" y="0"/>
      <point x="275" y="1"/>
      <point x="277" y="3" type="curve" smooth="yes"/>
      <point x="279" y="5"/>
      <point x="280" y="8"/>
      <point x="280" y="11" type="curve" smooth="yes"/>
      <point x="280" y="46"/>
      <point x="280" y="75"/>
    </contour>
    <contour>
      <point x="326" y="711" type="move" name="caronslovak"/>
    </contour>
    <contour>
      <point x="133" y="730" type="move" name="top"/>
    </contour>
    <contour>
      <point x="326" y="400" type="move" name="dot"/>
    </contour>
    <contour>
      <point x="176" y="-1" type="move" name="bottom"/>
    </contour>
  </outline>
</glyph>
<glyph name="m" format="1">
  <advance width="850"/>
  <unicode hex="006D"/>
  <outline>
    <contour>
      <point x="206" y="0" type="curve"/>
      <point x="206" y="524" type="line" smooth="yes"/>
      <point x="206" y="527"/>
      <point x="205" y="530"/>
      <point x="203" y="532" type="curve" smooth="yes"/>
      <point x="201" y="534"/>
      <point x="198" y="535"/>
      <point x="195" y="535" type="curve" smooth="yes"/>
      <point x="161" y="535"/>
      <point x="124" y="535"/>
      <point x="84" y="535" type="curve"/>
      <point x="84" y="511"/>
      <point x="84" y="477"/>
      <point x="84" y="437" type="curve" smooth="yes"/>
      <point x="84" y="11" type="line" smooth="yes"/>
      <point x="84" y="5"/>
      <point x="89" y="0"/>
      <point x="95" y="0" type="curve" smooth="yes"/>
      <point x="132" y="0"/>
      <point x="169" y="0"/>
    </contour>
    <contour>
      <point x="360" y="547" type="curve" smooth="yes"/>
      <point x="304" y="547"/>
      <point x="252" y="512"/>
      <point x="199" y="455" type="curve" smooth="yes"/>
      <point x="174" y="429"/>
      <point x="172" y="395"/>
      <point x="186" y="327" type="curve"/>
      <point x="243" y="411"/>
      <point x="281" y="433"/>
      <point x="318" y="433" type="curve" smooth="yes"/>
      <point x="345" y="433"/>
      <point x="364" y="415"/>
      <point x="364" y="381" type="curve"/>
      <point x="415" y="382"/>
      <point x="486" y="392"/>
      <point x="486" y="418" type="curve" smooth="yes"/>
      <point x="486" y="493"/>
      <point x="438" y="547"/>
    </contour>
    <contour>
      <point x="486" y="0" type="curve"/>
      <point x="486" y="418" type="line"/>
      <point x="486" y="430"/>
      <point x="469" y="446"/>
      <point x="364" y="446" type="curve"/>
      <point x="364" y="424"/>
      <point x="364" y="403"/>
      <point x="364" y="381" type="curve" smooth="yes"/>
      <point x="364" y="11" type="line" smooth="yes"/>
      <point x="364" y="5"/>
      <point x="369" y="0"/>
      <point x="375" y="0" type="curve" smooth="yes"/>
      <point x="412" y="0"/>
      <point x="449" y="0"/>
    </contour>
    <contour>
      <point x="638" y="547" type="curve" smooth="yes"/>
      <point x="579" y="547"/>
      <point x="524" y="513"/>
      <point x="472" y="456" type="curve" smooth="yes"/>
      <point x="449" y="431"/>
      <point x="443" y="400"/>
      <point x="456" y="330" type="curve"/>
      <point x="515" y="409"/>
      <point x="559" y="433"/>
      <point x="595" y="433" type="curve" smooth="yes"/>
      <point x="624" y="433"/>
      <point x="644" y="415"/>
      <point x="644" y="381" type="curve"/>
      <point x="694" y="382"/>
      <point x="766" y="396"/>
      <point x="766" y="417" type="curve" smooth="yes"/>
      <point x="766" y="493"/>
      <point x="715" y="547"/>
    </contour>
    <contour>
      <point x="766" y="0" type="curve"/>
      <point x="766" y="31"/>
      <point x="766" y="64"/>
      <point x="766" y="98" type="curve" smooth="yes"/>
      <point x="766" y="417" type="line"/>
      <point x="766" y="430"/>
      <point x="746" y="446"/>
      <point x="644" y="446" type="curve"/>
      <point x="644" y="424"/>
      <point x="644" y="403"/>
      <point x="644" y="381" type="curve" smooth="yes"/>
      <point x="644" y="11" type="line" smooth="yes"/>
      <point x="644" y="5"/>
      <point x="649" y="0"/>
      <point x="655" y="0" type="curve" smooth="yes"/>
      <point x="692" y="0"/>
      <point x="729" y="0"/>
    </contour>
  </outline>
</glyph>
<glyph name="n" format="1">
  <advance width="600"/>
  <unicode hex="006E"/>
  <outline>
    <contour>
      <point x="206" y="0" type="curve"/>
      <point x="206" y="524" type="line" smooth="yes"/>
      <point x="206" y="527"/>
      <point x="205" y="530"/>
      <point x="203" y="532" type="curve" smooth="yes"/>
      <point x="201" y="534"/>
      <point x="198" y="535"/>
      <point x="195" y="535" type="curve" smooth="yes"/>
      <point x="161" y="535"/>
      <point x="124" y="535"/>
      <point x="84" y="535" type="curve"/>
      <point x="84" y="511"/>
      <point x="84" y="477"/>
      <point x="84" y="437" type="curve" smooth="yes"/>
      <point x="84" y="11" type="line" smooth="yes"/>
      <point x="84" y="5"/>
      <point x="89" y="0"/>
      <point x="95" y="0" type="curve" smooth="yes"/>
      <point x="132" y="0"/>
      <point x="169" y="0"/>
    </contour>
    <contour>
      <point x="381" y="547" type="curve" smooth="yes"/>
      <point x="320" y="547"/>
      <point x="264" y="517"/>
      <point x="204" y="446" type="curve" smooth="yes"/>
      <point x="179" y="418"/>
      <point x="154" y="372"/>
      <point x="170" y="314" type="curve"/>
      <point x="244" y="397"/>
      <point x="291" y="425"/>
      <point x="342" y="425" type="curve" smooth="yes"/>
      <point x="376" y="425"/>
      <point x="396" y="405"/>
      <point x="396" y="365" type="curve"/>
      <point x="501" y="365"/>
      <point x="518" y="382"/>
      <point x="518" y="398" type="curve" smooth="yes"/>
      <point x="518" y="480"/>
      <point x="466" y="547"/>
    </contour>
    <contour>
      <point x="518" y="0" type="curve"/>
      <point x="518" y="31"/>
      <point x="518" y="64"/>
      <point x="518" y="98" type="curve" smooth="yes"/>
      <point x="518" y="398" type="line"/>
      <point x="518" y="439"/>
      <point x="447" y="460"/>
      <point x="392" y="431" type="curve"/>
      <point x="395" y="412"/>
      <point x="396" y="397"/>
      <point x="396" y="365" type="curve" smooth="yes"/>
      <point x="396" y="11" type="line" smooth="yes"/>
      <point x="396" y="5"/>
      <point x="401" y="0"/>
      <point x="407" y="0" type="curve" smooth="yes"/>
      <point x="444" y="0"/>
      <point x="481" y="0"/>
    </contour>
    <contour>
      <point x="85" y="685" type="move" name="caronslovak"/>
    </contour>
    <contour>
      <point x="300" y="546" type="move" name="top"/>
    </contour>
    <contour>
      <point x="301" y="-1" type="move" name="bottom"/>
    </contour>
  </outline>
</glyph>
<glyph name="p" format="1">
  <advance width="600"/>
  <unicode hex="0070"/>
  <outline>
    <contour>
      <point x="203" y="-207" type="curve"/>
      <point x="203" y="524" type="line" smooth="yes"/>
      <point x="203" y="527"/>
      <point x="202" y="530"/>
      <point x="200" y="532" type="curve" smooth="yes"/>
      <point x="198" y="534"/>
      <point x="195" y="535"/>
      <point x="192" y="535" type="curve"/>
      <point x="156" y="535"/>
      <point x="120" y="535"/>
      <point x="84" y="535" type="curve"/>
      <point x="84" y="504"/>
      <point x="84" y="471"/>
      <point x="84" y="435" type="curve" smooth="yes"/>
      <point x="84" y="-196" type="line" smooth="yes"/>
      <point x="84" y="-202"/>
      <point x="89" y="-207"/>
      <point x="95" y="-207" type="curve"/>
      <point x="131" y="-207"/>
      <point x="167" y="-207"/>
    </contour>
    <contour>
      <point x="374" y="547" type="curve" smooth="yes"/>
      <point x="314" y="547"/>
      <point x="255" y="520"/>
      <point x="202" y="465" type="curve" smooth="yes"/>
      <point x="164" y="425"/>
      <point x="156" y="383"/>
      <point x="170" y="352" type="curve"/>
      <point x="242" y="411"/>
      <point x="287" y="434"/>
      <point x="336" y="434" type="curve" smooth="yes"/>
      <point x="391" y="434"/>
      <point x="419" y="396"/>
      <point x="419" y="332" type="curve"/>
      <point x="476" y="333"/>
      <point x="538" y="340"/>
      <point x="538" y="352" type="curve" smooth="yes"/>
      <point x="538" y="469"/>
      <point x="475" y="547"/>
    </contour>
    <contour>
      <point x="351" y="-10" type="curve" smooth="yes"/>
      <point x="468" y="-10"/>
      <point x="538" y="72"/>
      <point x="538" y="213" type="curve" smooth="yes"/>
      <point x="538" y="352" type="line" smooth="yes"/>
      <point x="538" y="413"/>
      <point x="486" y="473"/>
      <point x="426" y="473" type="curve" smooth="yes"/>
      <point x="401" y="473"/>
      <point x="387" y="464"/>
      <point x="386" y="446" type="curve"/>
      <point x="408" y="412"/>
      <point x="419" y="385"/>
      <point x="419" y="332" type="curve" smooth="yes"/>
      <point x="419" y="212" type="line" smooth="yes"/>
      <point x="419" y="137"/>
      <point x="387" y="100"/>
      <point x="324" y="100" type="curve" smooth="yes"/>
      <point x="276" y="100"/>
      <point x="229" y="116"/>
      <point x="181" y="165" type="curve"/>
      <point x="168" y="156"/>
      <point x="165" y="126"/>
      <point x="167" y="111" type="curve" smooth="yes"/>
      <point x="178" y="51"/>
      <point x="259" y="-10"/>
    </contour>
  </outline>
</glyph>
<glyph name="r" format="1">
  <advance width="450"/>
  <unicode hex="0072"/>
  <outline>
    <contour>
      <point x="206" y="0" type="curve"/>
      <point x="206" y="524" type="line" smooth="yes"/>
      <point x="206" y="527"/>
      <point x="205" y="530"/>
      <point x="203" y="532" type="curve" smooth="yes"/>
      <point x="201" y="534"/>
      <point x="198" y="535"/>
      <point x="195" y="535" type="curve" smooth="yes"/>
      <point x="161" y="535"/>
      <point x="124" y="535"/>
      <point x="84" y="535" type="curve"/>
      <point x="84" y="511"/>
      <point x="84" y="477"/>
      <point x="84" y="437" type="curve" smooth="yes"/>
      <point x="84" y="11" type="line" smooth="yes"/>
      <point x="84" y="5"/>
      <point x="89" y="0"/>
      <point x="95" y="0" type="curve" smooth="yes"/>
      <point x="132" y="0"/>
      <point x="169" y="0"/>
    </contour>
    <contour>
      <point x="185" y="312" type="curve"/>
      <point x="252" y="400"/>
      <point x="293" y="420"/>
      <point x="368" y="420" type="curve" smooth="yes"/>
      <point x="384" y="420"/>
      <point x="400" y="420"/>
      <point x="414" y="420" type="curve"/>
      <point x="429" y="420" type="line"/>
      <point x="429" y="459"/>
      <point x="429" y="494"/>
      <point x="429" y="534" type="curve"/>
      <point x="429" y="541"/>
      <point x="425" y="545"/>
      <point x="418" y="545" type="curve" smooth="yes"/>
      <point x="382" y="545" type="line" smooth="yes"/>
      <point x="297" y="545"/>
      <point x="244" y="501"/>
      <point x="198" y="427" type="curve" smooth="yes"/>
      <point x="176" y="386"/>
      <point x="172" y="352"/>
    </contour>
    <contour>
      <point x="256" y="546" type="move" name="top"/>
    </contour>
    <contour>
      <point x="147" y="-1" type="move" name="bottom"/>
    </contour>
  </outline>
</glyph>
<glyph name="s" format="1">
  <advance width="550"/>
  <unicode hex="0073"/>
  <outline>
    <contour>
      <point x="316" y="545" type="curve" smooth="yes"/>
      <point x="300" y="545" type="line" smooth="yes"/>
      <point x="156" y="545"/>
      <point x="69" y="476"/>
      <point x="69" y="378" type="curve" smooth="yes"/>
      <point x="69" y="336"/>
      <point x="123" y="315"/>
      <point x="184" y="315" type="curve"/>
      <point x="184" y="331"/>
      <point x="184" y="362"/>
      <point x="184" y="378" type="curve" smooth="yes"/>
      <point x="184" y="410"/>
      <point x="221" y="433"/>
      <point x="299" y="433" type="curve" smooth="yes"/>
      <point x="365" y="433"/>
      <point x="404" y="426"/>
      <point x="454" y="410" type="curve"/>
      <point x="472" y="410" type="line"/>
      <point x="472" y="443"/>
      <point x="472" y="476"/>
      <point x="472" y="510" type="curve"/>
      <point x="472" y="514"/>
      <point x="470" y="517"/>
      <point x="468" y="519" type="curve" smooth="yes"/>
      <point x="457" y="531"/>
      <point x="398" y="545"/>
    </contour>
    <contour>
      <point x="346" y="313" type="curve" smooth="yes"/>
      <point x="254" y="328" type="line" smooth="yes"/>
      <point x="202" y="338"/>
      <point x="184" y="351"/>
      <point x="184" y="378" type="curve" smooth="yes"/>
      <point x="184" y="397"/>
      <point x="184" y="421"/>
      <point x="184" y="448" type="curve"/>
      <point x="119" y="448"/>
      <point x="69" y="416"/>
      <point x="69" y="378" type="curve"/>
      <point x="69" y="302"/>
      <point x="113" y="252"/>
      <point x="215" y="234" type="curve" smooth="yes"/>
      <point x="302" y="219" type="line" smooth="yes"/>
      <point x="369" y="207"/>
      <point x="384" y="187"/>
      <point x="384" y="161" type="curve" smooth="yes"/>
      <point x="384" y="141"/>
      <point x="384" y="119"/>
      <point x="384" y="96" type="curve"/>
      <point x="456" y="98"/>
      <point x="499" y="127"/>
      <point x="499" y="164" type="curve" smooth="yes"/>
      <point x="499" y="234"/>
      <point x="458" y="294"/>
    </contour>
    <contour>
      <point x="268" y="102" type="curve" smooth="yes"/>
      <point x="177" y="102"/>
      <point x="131" y="113"/>
      <point x="72" y="143" type="curve"/>
      <point x="55" y="143" type="line"/>
      <point x="55" y="114"/>
      <point x="55" y="79"/>
      <point x="55" y="39" type="curve" smooth="yes"/>
      <point x="55" y="36"/>
      <point x="55" y="34"/>
      <point x="57" y="32" type="curve" smooth="yes"/>
      <point x="73" y="16"/>
      <point x="161" y="-9"/>
      <point x="250" y="-9" type="curve" smooth="yes"/>
      <point x="266" y="-9" type="line" smooth="yes"/>
      <point x="414" y="-9"/>
      <point x="499" y="54"/>
      <point x="499" y="164" type="curve" smooth="yes"/>
      <point x="499" y="207"/>
      <point x="446" y="227"/>
      <point x="384" y="227" type="curve"/>
      <point x="384" y="201"/>
      <point x="384" y="180"/>
      <point x="384" y="161" type="curve" smooth="yes"/>
      <point x="384" y="128"/>
      <point x="357" y="102"/>
    </contour>
    <contour>
      <point x="276" y="546" type="move" name="top"/>
    </contour>
    <contour>
      <point x="276" y="-1" type="move" name="bottom"/>
    </contour>
  </outline>
</glyph>
<glyph name="t" format="1">
  <advance width="500"/>
  <unicode hex="0074"/>
  <outline>
    <contour>
      <point x="134" y="700" type="curve"/>
      <point x="134" y="209" type="line" smooth="yes"/>
      <point x="134" y="113"/>
      <point x="193" y="39"/>
      <point x="306" y="57" type="curve"/>
      <point x="264" y="107"/>
      <point x="250" y="143"/>
      <point x="250" y="219" type="curve" smooth="yes"/>
      <point x="250" y="689" type="line" smooth="yes"/>
      <point x="250" y="695"/>
      <point x="245" y="700"/>
      <point x="239" y="700" type="curve" smooth="yes"/>
      <point x="205" y="700"/>
      <point x="170" y="700"/>
    </contour>
    <contour>
      <point x="437" y="110" type="curve"/>
      <point x="420" y="110" type="line"/>
      <point x="390" y="110"/>
      <point x="392" y="110"/>
      <point x="351" y="110" type="curve" smooth="yes"/>
      <point x="279" y="110"/>
      <point x="250" y="137"/>
      <point x="250" y="219" type="curve"/>
      <point x="155" y="240"/>
      <point x="134" y="227"/>
      <point x="134" y="209" type="curve" smooth="yes"/>
      <point x="134" y="63"/>
      <point x="212" y="0"/>
      <point x="346" y="0" type="curve" smooth="yes"/>
      <point x="426" y="0" type="line" smooth="yes"/>
      <point x="429" y="0"/>
      <point x="432" y="1"/>
      <point x="434" y="3" type="curve" smooth="yes"/>
      <point x="436" y="5"/>
      <point x="437" y="8"/>
      <point x="437" y="11" type="curve" smooth="yes"/>
      <point x="437" y="46"/>
      <point x="437" y="75"/>
    </contour>
    <contour>
      <point x="43" y="535" type="line"/>
      <point x="43" y="501"/>
      <point x="43" y="473"/>
      <point x="43" y="438" type="curve" smooth="yes"/>
      <point x="43" y="435"/>
      <point x="44" y="432"/>
      <point x="46" y="430" type="curve" smooth="yes"/>
      <point x="48" y="428"/>
      <point x="51" y="427"/>
      <point x="54" y="427" type="curve"/>
      <point x="437" y="427" type="line"/>
      <point x="437" y="462"/>
      <point x="437" y="490"/>
      <point x="437" y="524" type="curve" smooth="yes"/>
      <point x="437" y="530"/>
      <point x="432" y="535"/>
      <point x="426" y="535" type="curve"/>
    </contour>
    <contour>
      <point x="393" y="711" type="move" name="caronslovak"/>
    </contour>
    <contour>
      <point x="288" y="-1" type="move" name="bottom"/>
    </contour>
  </outline>
</glyph>
<glyph name="u" format="1">
  <advance width="600"/>
  <unicode hex="0075"/>
  <outline>
    <contour>
      <point x="395" y="535" type="curve"/>
      <point x="395" y="11" type="line" smooth="yes"/>
      <point x="395" y="8"/>
      <point x="396" y="5"/>
      <point x="398" y="3" type="curve" smooth="yes"/>
      <point x="400" y="1"/>
      <point x="403" y="0"/>
      <point x="406" y="0" type="curve" smooth="yes"/>
      <point x="440" y="0"/>
      <point x="477" y="0"/>
      <point x="518" y="0" type="curve"/>
      <point x="518" y="24"/>
      <point x="518" y="59"/>
      <point x="518" y="99" type="curve" smooth="yes"/>
      <point x="518" y="524" type="line" smooth="yes"/>
      <point x="518" y="530"/>
      <point x="513" y="535"/>
      <point x="507" y="535" type="curve" smooth="yes"/>
      <point x="469" y="535"/>
      <point x="433" y="535"/>
    </contour>
    <contour>
      <point x="220" y="-11" type="curve" smooth="yes"/>
      <point x="280" y="-11"/>
      <point x="339" y="19"/>
      <point x="399" y="91" type="curve" smooth="yes"/>
      <point x="423" y="119"/>
      <point x="448" y="163"/>
      <point x="431" y="221" type="curve"/>
      <point x="357" y="138"/>
      <point x="311" y="110"/>
      <point x="258" y="110" type="curve" smooth="yes"/>
      <point x="224" y="110"/>
      <point x="206" y="129"/>
      <point x="206" y="174" type="curve"/>
      <point x="100" y="174"/>
      <point x="83" y="158"/>
      <point x="83" y="142" type="curve" smooth="yes"/>
      <point x="83" y="54"/>
      <point x="134" y="-11"/>
    </contour>
    <contour>
      <point x="83" y="535" type="curve"/>
      <point x="83" y="504"/>
      <point x="83" y="471"/>
      <point x="83" y="437" type="curve" smooth="yes"/>
      <point x="83" y="142" type="line"/>
      <point x="83" y="100"/>
      <point x="154" y="75"/>
      <point x="209" y="104" type="curve"/>
      <point x="206" y="124"/>
      <point x="206" y="140"/>
      <point x="206" y="174" type="curve" smooth="yes"/>
      <point x="206" y="524" type="line" smooth="yes"/>
      <point x="206" y="530"/>
      <point x="201" y="535"/>
      <point x="195" y="535" type="curve" smooth="yes"/>
      <point x="157" y="535"/>
      <point x="121" y="535"/>
    </contour>
    <contour>
      <point x="300" y="546" type="move" name="top"/>
    </contour>
    <contour>
      <point x="519" y="0" type="move" name="ogonek"/>
    </contour>
    <contour>
      <point x="287" y="-1" type="move" name="bottom"/>
    </contour>
  </outline>
</glyph>
<glyph name="v" format="1">
  <advance width="600"/>
  <unicode hex="0076"/>
  <outline>
    <contour>
      <point x="542" y="535" type="curve" smooth="yes"/>
      <point x="435" y="535" type="line"/>
      <point x="391" y="381"/>
      <point x="345" y="229"/>
      <point x="298" y="75" type="curve"/>
      <point x="285" y="25"/>
      <point x="274" y="13"/>
      <point x="249" y="0" type="curve"/>
      <point x="385" y="0" type="line"/>
      <point x="441" y="173"/>
      <point x="497" y="346"/>
      <point x="553" y="519" type="curve"/>
      <point x="556" y="528"/>
      <point x="551" y="535"/>
    </contour>
    <contour>
      <point x="155" y="535" type="curve" smooth="yes"/>
      <point x="42" y="535" type="line"/>
      <point x="98" y="361"/>
      <point x="154" y="188"/>
      <point x="211" y="14" type="curve"/>
      <point x="214" y="4"/>
      <point x="221" y="0"/>
      <point x="229" y="0" type="curve" smooth="yes"/>
      <point x="256" y="0" type="line" smooth="yes"/>
      <point x="300" y="0"/>
      <point x="379" y="25"/>
      <point x="381" y="112" type="curve"/>
      <point x="350" y="112"/>
      <point x="328" y="112"/>
      <point x="303" y="112" type="curve" smooth="yes"/>
      <point x="297" y="112"/>
      <point x="294" y="115"/>
      <point x="292" y="122" type="curve"/>
      <point x="250" y="256"/>
      <point x="210" y="388"/>
      <point x="169" y="522" type="curve"/>
      <point x="166" y="531"/>
      <point x="162" y="535"/>
    </contour>
  </outline>
</glyph>
<glyph name="y" format="1">
  <advance width="600"/>
  <unicode hex="0079"/>
  <outline>
    <contour>
      <point x="544" y="535" type="curve" smooth="yes"/>
      <point x="506" y="535"/>
      <point x="471" y="535"/>
      <point x="440" y="535" type="curve"/>
      <point x="386" y="331"/>
      <point x="299" y="7"/>
      <point x="278" y="-72" type="curve" smooth="yes"/>
      <point x="265" y="-119"/>
      <point x="235" y="-140"/>
      <point x="190" y="-140" type="curve" smooth="yes"/>
      <point x="91" y="-140" type="line"/>
      <point x="91" y="-239" type="line" smooth="yes"/>
      <point x="91" y="-247"/>
      <point x="95" y="-250"/>
      <point x="102" y="-250" type="curve" smooth="yes"/>
      <point x="202" y="-250" type="line" smooth="yes"/>
      <point x="301" y="-250"/>
      <point x="354" y="-201"/>
      <point x="382" y="-98" type="curve" smooth="yes"/>
      <point x="436" y="104"/>
      <point x="500" y="323"/>
      <point x="556" y="519" type="curve" smooth="yes"/>
      <point x="559" y="529"/>
      <point x="551" y="535"/>
    </contour>
    <contour>
      <point x="154" y="535" type="curve" smooth="yes"/>
      <point x="114" y="535"/>
      <point x="78" y="535"/>
      <point x="43" y="535" type="curve"/>
      <point x="101" y="362"/>
      <point x="216" y="19"/>
      <point x="219" y="10" type="curve" smooth="yes"/>
      <point x="221" y="3"/>
      <point x="225" y="0"/>
      <point x="231" y="0" type="curve" smooth="yes"/>
      <point x="336" y="0" type="line" smooth="yes"/>
      <point x="359" y="0"/>
      <point x="375" y="22"/>
      <point x="377" y="98" type="curve"/>
      <point x="314" y="98" type="line"/>
      <point x="309" y="98"/>
      <point x="306" y="101"/>
      <point x="304" y="106" type="curve" smooth="yes"/>
      <point x="299" y="121"/>
      <point x="201" y="422"/>
      <point x="173" y="522" type="curve" smooth="yes"/>
      <point x="170" y="533"/>
      <point x="166" y="535"/>
    </contour>
    <contour>
      <point x="307" y="546" type="move" name="top"/>
    </contour>
  </outline>
</glyph>
<glyph name="z" format="1">
  <advance width="550"/>
  <unicode hex="007A"/>
  <outline>
    <contour>
      <point x="68" y="535" type="line"/>
      <point x="68" y="502"/>
      <point x="68" y="469"/>
      <point x="68" y="435" type="curve" smooth="yes"/>
      <point x="68" y="432"/>
      <point x="69" y="429"/>
      <point x="71" y="427" type="curve" smooth="yes"/>
      <point x="73" y="425"/>
      <point x="76" y="424"/>
      <point x="79" y="424" type="curve" smooth="yes"/>
      <point x="357" y="424" type="line" smooth="yes"/>
      <point x="398" y="424"/>
      <point x="445" y="426"/>
      <point x="482" y="434" type="curve"/>
      <point x="482" y="524" type="line" smooth="yes"/>
      <point x="482" y="527"/>
      <point x="481" y="530"/>
      <point x="479" y="532" type="curve" smooth="yes"/>
      <point x="477" y="534"/>
      <point x="474" y="535"/>
      <point x="471" y="535" type="curve" smooth="yes"/>
    </contour>
    <contour>
      <point x="372" y="467" type="curve"/>
      <point x="271" y="345"/>
      <point x="169" y="223"/>
      <point x="68" y="101" type="curve"/>
      <point x="68" y="18"/>
      <point x="148" y="44"/>
      <point x="186" y="75" type="curve" smooth="yes"/>
      <point x="289" y="200"/>
      <point x="482" y="432"/>
      <point x="482" y="434" type="curve"/>
      <point x="482" y="456"/>
      <point x="448" y="467"/>
    </contour>
    <contour>
      <point x="482" y="0" type="line"/>
      <point x="482" y="34"/>
      <point x="482" y="66"/>
      <point x="482" y="100" type="curve"/>
      <point x="482" y="106"/>
      <point x="477" y="111"/>
      <point x="471" y="111" type="curve" smooth="yes"/>
      <point x="196" y="111" type="line" smooth="yes"/>
      <point x="153" y="111"/>
      <point x="111" y="111"/>
      <point x="68" y="101" type="curve"/>
      <point x="68" y="11" type="line" smooth="yes"/>
      <point x="68" y="8"/>
      <point x="69" y="5"/>
      <point x="71" y="3" type="curve" smooth="yes"/>
      <point x="73" y="1"/>
      <point x="76" y="0"/>
      <point x="79" y="0" type="curve" smooth="yes"/>
    </contour>
    <contour>
      <point x="275" y="546" type="move" name="top"/>
    </contour>
  </outline>
</glyph>
<glyph name="braceleft" format="1">
  <advance width="500"/>
  <unicode hex="007B"/>
  <outline>
    <contour>
      <point x="335" y="650" type="curve" smooth="yes"/>
      <point x="400" y="650"/>
      <point x="398" y="650"/>
      <point x="454" y="650" type="curve"/>
      <point x="474" y="650" type="line"/>
      <point x="474" y="683"/>
      <point x="474" y="716"/>
      <point x="474" y="749" type="curve"/>
      <point x="474" y="756"/>
      <point x="470" y="760"/>
      <point x="463" y="760" type="curve" smooth="yes"/>
      <point x="289" y="760" type="line" smooth="yes"/>
      <point x="208" y="760"/>
      <point x="180" y="698"/>
      <point x="180" y="660" type="curve" smooth="yes"/>
      <point x="180" y="656" type="line" smooth="yes"/>
      <point x="180" y="648"/>
      <point x="187" y="643"/>
      <point x="294" y="611" type="curve"/>
      <point x="296" y="640"/>
      <point x="307" y="650"/>
    </contour>
    <contour>
      <point x="357" y="444" type="curve" smooth="yes"/>
      <point x="357" y="529"/>
      <point x="295" y="558"/>
      <point x="295" y="602" type="curve" smooth="yes"/>
      <point x="295" y="610"/>
      <point x="295" y="655"/>
      <point x="295" y="675" type="curve"/>
      <point x="184" y="670"/>
      <point x="180" y="666"/>
      <point x="180" y="660" type="curve" smooth="yes"/>
      <point x="180" y="615" type="line" smooth="yes"/>
      <point x="180" y="528"/>
      <point x="241" y="508"/>
      <point x="241" y="445" type="curve" smooth="yes"/>
      <point x="241" y="387"/>
      <point x="177" y="355"/>
      <point x="64" y="355" type="curve" smooth="yes"/>
      <point x="32" y="355" type="line"/>
      <point x="32" y="283" type="line" smooth="yes"/>
      <point x="32" y="275"/>
      <point x="38" y="270"/>
      <point x="46" y="270" type="curve" smooth="yes"/>
      <point x="64" y="270" type="line" smooth="yes"/>
      <point x="270" y="270"/>
      <point x="357" y="347"/>
    </contour>
    <contour>
      <point x="357" y="154" type="curve" smooth="yes"/>
      <point x="357" y="255"/>
      <point x="272" y="330"/>
      <point x="64" y="330" type="curve" smooth="yes"/>
      <point x="53" y="330"/>
      <point x="43" y="330"/>
      <point x="32" y="330" type="curve"/>
      <point x="32" y="256" type="line" smooth="yes"/>
      <point x="32" y="249"/>
      <point x="36" y="245"/>
      <point x="43" y="245" type="curve" smooth="yes"/>
      <point x="64" y="245" type="line" smooth="yes"/>
      <point x="177" y="245"/>
      <point x="241" y="210"/>
      <point x="241" y="154" type="curve" smooth="yes"/>
      <point x="241" y="90"/>
      <point x="180" y="71"/>
      <point x="180" y="-16" type="curve" smooth="yes"/>
      <point x="180" y="-61" type="line" smooth="yes"/>
      <point x="180" y="-67"/>
      <point x="184" y="-71"/>
      <point x="295" y="-75" type="curve"/>
      <point x="295" y="-51"/>
      <point x="295" y="-27"/>
      <point x="295" y="-3" type="curve" smooth="yes"/>
      <point x="295" y="41"/>
      <point x="357" y="70"/>
    </contour>
    <contour>
      <point x="335" y="-51" type="curve" smooth="yes"/>
      <point x="307" y="-51"/>
      <point x="296" y="-41"/>
      <point x="294" y="-12" type="curve"/>
      <point x="189" y="-44"/>
      <point x="180" y="-49"/>
      <point x="180" y="-57" type="curve" smooth="yes"/>
      <point x="180" y="-61" type="line" smooth="yes"/>
      <point x="180" y="-99"/>
      <point x="208" y="-161"/>
      <point x="289" y="-161" type="curve" smooth="yes"/>
      <point x="463" y="-161" type="line" smooth="yes"/>
      <point x="470" y="-161"/>
      <point x="474" y="-157"/>
      <point x="474" y="-150" type="curve"/>
      <point x="474" y="-51" type="line"/>
      <point x="454" y="-51" type="line"/>
      <point x="398" y="-51"/>
      <point x="400" y="-51"/>
    </contour>
  </outline>
</glyph>
<glyph name="bar" format="1">
  <advance width="300"/>
  <unicode hex="007C"/>
  <outline>
    <contour>
      <point x="89" y="760" type="curve"/>
      <point x="89" y="725"/>
      <point x="89" y="691"/>
      <point x="89" y="656" type="curve" smooth="yes"/>
      <point x="89" y="-149" type="line" smooth="yes"/>
      <point x="89" y="-155"/>
      <point x="94" y="-160"/>
      <point x="100" y="-160" type="curve" smooth="yes"/>
      <point x="137" y="-160"/>
      <point x="174" y="-160"/>
      <point x="211" y="-160" type="curve"/>
      <point x="211" y="749" type="line" smooth="yes"/>
      <point x="211" y="752"/>
      <point x="210" y="755"/>
      <point x="208" y="757" type="curve" smooth="yes"/>
      <point x="206" y="759"/>
      <point x="203" y="760"/>
      <point x="200" y="760" type="curve" smooth="yes"/>
      <point x="163" y="760"/>
      <point x="126" y="760"/>
    </contour>
  </outline>
</glyph>
<glyph name="braceright" format="1">
  <advance width="500"/>
  <unicode hex="007D"/>
  <outline>
    <contour>
      <point x="165" y="-24" type="curve" smooth="yes"/>
      <point x="100" y="-24"/>
      <point x="102" y="-24"/>
      <point x="46" y="-24" type="curve"/>
      <point x="26" y="-24" type="line"/>
      <point x="26" y="-58"/>
      <point x="26" y="-90"/>
      <point x="26" y="-124" type="curve"/>
      <point x="26" y="-131"/>
      <point x="30" y="-135"/>
      <point x="37" y="-135" type="curve" smooth="yes"/>
      <point x="211" y="-135" type="line" smooth="yes"/>
      <point x="292" y="-135"/>
      <point x="320" y="-73"/>
      <point x="320" y="-35" type="curve" smooth="yes"/>
      <point x="320" y="-31" type="line" smooth="yes"/>
      <point x="320" y="-22"/>
      <point x="313" y="-18"/>
      <point x="206" y="14" type="curve"/>
      <point x="204" y="-15"/>
      <point x="193" y="-24"/>
    </contour>
    <contour>
      <point x="143" y="181" type="curve" smooth="yes"/>
      <point x="143" y="96"/>
      <point x="205" y="67"/>
      <point x="205" y="23" type="curve" smooth="yes"/>
      <point x="205" y="15"/>
      <point x="205" y="-30"/>
      <point x="205" y="-50" type="curve"/>
      <point x="316" y="-45"/>
      <point x="320" y="-41"/>
      <point x="320" y="-35" type="curve" smooth="yes"/>
      <point x="320" y="10" type="line" smooth="yes"/>
      <point x="320" y="97"/>
      <point x="259" y="117"/>
      <point x="259" y="181" type="curve" smooth="yes"/>
      <point x="259" y="238"/>
      <point x="323" y="270"/>
      <point x="436" y="270" type="curve" smooth="yes"/>
      <point x="468" y="270" type="line"/>
      <point x="468" y="342" type="line" smooth="yes"/>
      <point x="468" y="350"/>
      <point x="462" y="355"/>
      <point x="454" y="355" type="curve" smooth="yes"/>
      <point x="436" y="355" type="line" smooth="yes"/>
      <point x="230" y="355"/>
      <point x="143" y="278"/>
    </contour>
    <contour>
      <point x="143" y="471" type="curve" smooth="yes"/>
      <point x="143" y="371"/>
      <point x="228" y="296"/>
      <point x="436" y="296" type="curve" smooth="yes"/>
      <point x="447" y="296"/>
      <point x="457" y="296"/>
      <point x="468" y="296" type="curve"/>
      <point x="468" y="369" type="line" smooth="yes"/>
      <point x="468" y="376"/>
      <point x="464" y="380"/>
      <point x="457" y="380" type="curve" smooth="yes"/>
      <point x="436" y="380" type="line" smooth="yes"/>
      <point x="323" y="380"/>
      <point x="259" y="416"/>
      <point x="259" y="471" type="curve" smooth="yes"/>
      <point x="259" y="535"/>
      <point x="320" y="555"/>
      <point x="320" y="641" type="curve" smooth="yes"/>
      <point x="320" y="687" type="line" smooth="yes"/>
      <point x="320" y="692"/>
      <point x="316" y="697"/>
      <point x="205" y="700" type="curve"/>
      <point x="205" y="676"/>
      <point x="205" y="652"/>
      <point x="205" y="628" type="curve" smooth="yes"/>
      <point x="205" y="585"/>
      <point x="143" y="555"/>
    </contour>
    <contour>
      <point x="165" y="676" type="curve" smooth="yes"/>
      <point x="193" y="676"/>
      <point x="204" y="666"/>
      <point x="206" y="638" type="curve"/>
      <point x="311" y="669"/>
      <point x="320" y="674"/>
      <point x="320" y="683" type="curve" smooth="yes"/>
      <point x="320" y="687" type="line" smooth="yes"/>
      <point x="320" y="724"/>
      <point x="292" y="786"/>
      <point x="211" y="786" type="curve" smooth="yes"/>
      <point x="37" y="786" type="line" smooth="yes"/>
      <point x="30" y="786"/>
      <point x="26" y="782"/>
      <point x="26" y="775" type="curve"/>
      <point x="26" y="676" type="line"/>
      <point x="46" y="676" type="line"/>
      <point x="102" y="676"/>
      <point x="100" y="676"/>
    </contour>
  </outline>
</glyph>
<glyph name="asciitilde" format="1">
  <advance width="600"/>
  <unicode hex="007E"/>
  <outline>
    <contour>
      <point x="427" y="305" type="curve" smooth="yes"/>
      <point x="344" y="305"/>
      <point x="280" y="405"/>
      <point x="177" y="405" type="curve" smooth="yes"/>
      <point x="124" y="405"/>
      <point x="89" y="389"/>
      <point x="65" y="362" type="curve" smooth="yes"/>
      <point x="57" y="353"/>
      <point x="57" y="348"/>
      <point x="57" y="338" type="curve" smooth="yes"/>
      <point x="57" y="311"/>
      <point x="57" y="278"/>
      <point x="57" y="246" type="curve"/>
      <point x="74" y="246" type="line"/>
      <point x="103" y="281"/>
      <point x="133" y="295"/>
      <point x="173" y="295" type="curve" smooth="yes"/>
      <point x="256" y="295"/>
      <point x="320" y="195"/>
      <point x="423" y="195" type="curve" smooth="yes"/>
      <point x="476" y="195"/>
      <point x="511" y="212"/>
      <point x="535" y="239" type="curve" smooth="yes"/>
      <point x="543" y="247"/>
      <point x="543" y="252"/>
      <point x="543" y="262" type="curve" smooth="yes"/>
      <point x="543" y="289"/>
      <point x="543" y="322"/>
      <point x="543" y="355" type="curve"/>
      <point x="526" y="355" type="line"/>
      <point x="497" y="320"/>
      <point x="467" y="305"/>
    </contour>
  </outline>
</glyph>
<glyph name="exclamdown" format="1">
  <advance width="400"/>
  <unicode hex="00A1"/>
  <outline>
    <contour>
      <point x="157" y="262" type="line"/>
      <point x="147" y="186"/>
      <point x="138" y="110"/>
      <point x="129" y="33" type="curve"/>
      <point x="129" y="-154" type="line" smooth="yes"/>
      <point x="129" y="-161"/>
      <point x="134" y="-165"/>
      <point x="140" y="-165" type="curve" smooth="yes"/>
      <point x="194" y="-165"/>
      <point x="237" y="-165"/>
      <point x="271" y="-165" type="curve"/>
      <point x="271" y="-127"/>
      <point x="271" y="-92"/>
      <point x="271" y="-55" type="curve" smooth="yes"/>
      <point x="271" y="33" type="line"/>
      <point x="246" y="252"/>
      <point x="245" y="255"/>
      <point x="241" y="259" type="curve" smooth="yes"/>
      <point x="239" y="261"/>
      <point x="237" y="262"/>
      <point x="233" y="262" type="curve"/>
    </contour>
    <contour>
      <point x="113" y="543" type="curve"/>
      <point x="113" y="382" type="line" smooth="yes"/>
      <point x="113" y="376"/>
      <point x="118" y="371"/>
      <point x="124" y="371" type="curve" smooth="yes"/>
      <point x="176" y="371"/>
      <point x="235" y="371"/>
      <point x="287" y="371" type="curve"/>
      <point x="287" y="532" type="line" smooth="yes"/>
      <point x="287" y="538"/>
      <point x="282" y="543"/>
      <point x="276" y="543" type="curve" smooth="yes"/>
      <point x="224" y="543"/>
      <point x="165" y="543"/>
    </contour>
  </outline>
</glyph>
<glyph name="sterling" format="1">
  <advance width="600"/>
  <unicode hex="00A3"/>
  <outline>
    <contour>
      <point x="375" y="605" type="curve" smooth="yes"/>
      <point x="428" y="605"/>
      <point x="462" y="594"/>
      <point x="508" y="569" type="curve"/>
      <point x="525" y="569" type="line"/>
      <point x="525" y="594"/>
      <point x="525" y="630"/>
      <point x="525" y="672" type="curve" smooth="yes"/>
      <point x="525" y="676"/>
      <point x="524" y="678"/>
      <point x="522" y="680" type="curve" smooth="yes"/>
      <point x="506" y="696"/>
      <point x="452" y="720"/>
      <point x="374" y="720" type="curve" smooth="yes"/>
      <point x="229" y="720"/>
      <point x="147" y="644"/>
      <point x="147" y="538" type="curve" smooth="yes"/>
      <point x="147" y="515" type="line" smooth="yes"/>
      <point x="147" y="502"/>
      <point x="156" y="499"/>
      <point x="263" y="515" type="curve"/>
      <point x="263" y="579"/>
      <point x="297" y="605"/>
    </contour>
    <contour>
      <point x="147" y="515" type="curve" smooth="yes"/>
      <point x="147" y="406"/>
      <point x="147" y="317"/>
      <point x="147" y="201" type="curve" smooth="yes"/>
      <point x="147" y="141"/>
      <point x="113" y="108"/>
      <point x="64" y="108" type="curve" smooth="yes"/>
      <point x="59" y="108"/>
      <point x="53" y="108"/>
      <point x="47" y="108" type="curve"/>
      <point x="43" y="108" type="line"/>
      <point x="43" y="75"/>
      <point x="43" y="50"/>
      <point x="43" y="11" type="curve" smooth="yes"/>
      <point x="43" y="3"/>
      <point x="47" y="0"/>
      <point x="54" y="0" type="curve" smooth="yes"/>
      <point x="59" y="0" type="line" smooth="yes"/>
      <point x="175" y="0"/>
      <point x="263" y="60"/>
      <point x="263" y="219" type="curve" smooth="yes"/>
      <point x="263" y="322"/>
      <point x="263" y="417"/>
      <point x="263" y="515" type="curve" smooth="yes"/>
      <point x="263" y="549"/>
      <point x="263" y="580"/>
      <point x="263" y="611" type="curve"/>
      <point x="198" y="611"/>
      <point x="147" y="576"/>
    </contour>
    <contour>
      <point x="59" y="0" type="curve"/>
      <point x="235" y="0"/>
      <point x="338" y="0"/>
      <point x="471" y="0" type="curve" smooth="yes"/>
      <point x="536" y="0" type="line" smooth="yes"/>
      <point x="544" y="0"/>
      <point x="547" y="3"/>
      <point x="547" y="11" type="curve"/>
      <point x="547" y="44"/>
      <point x="547" y="75"/>
      <point x="547" y="108" type="curve"/>
      <point x="527" y="108" type="line"/>
      <point x="502" y="108"/>
      <point x="483" y="108"/>
      <point x="451" y="108" type="curve" smooth="yes"/>
      <point x="353" y="108"/>
      <point x="280" y="108"/>
      <point x="129" y="108" type="curve"/>
      <point x="51" y="7"/>
      <point x="54" y="0"/>
    </contour>
    <contour>
      <point x="63" y="396" type="line"/>
      <point x="63" y="362"/>
      <point x="63" y="354"/>
      <point x="63" y="320" type="curve" smooth="yes"/>
      <point x="63" y="317"/>
      <point x="64" y="314"/>
      <point x="66" y="312" type="curve" smooth="yes"/>
      <point x="68" y="310"/>
      <point x="71" y="309"/>
      <point x="74" y="309" type="curve" smooth="yes"/>
      <point x="450" y="309" type="line"/>
      <point x="450" y="343"/>
      <point x="450" y="351"/>
      <point x="450" y="385" type="curve" smooth="yes"/>
      <point x="450" y="391"/>
      <point x="445" y="396"/>
      <point x="439" y="396" type="curve" smooth="yes"/>
    </contour>
  </outline>
</glyph>
<glyph name="yen" format="1">
  <advance width="600"/>
  <unicode hex="00A5"/>
  <outline>
    <contour>
      <point x="26" y="462" type="line"/>
      <point x="26" y="428"/>
      <point x="26" y="420"/>
      <point x="26" y="386" type="curve" smooth="yes"/>
      <point x="26" y="383"/>
      <point x="27" y="380"/>
      <point x="29" y="378" type="curve" smooth="yes"/>
      <point x="31" y="376"/>
      <point x="34" y="375"/>
      <point x="37" y="375" type="curve"/>
      <point x="215" y="375" type="line"/>
      <point x="215" y="409"/>
      <point x="215" y="417"/>
      <point x="215" y="451" type="curve" smooth="yes"/>
      <point x="215" y="457"/>
      <point x="210" y="462"/>
      <point x="204" y="462" type="curve"/>
    </contour>
    <contour>
      <point x="385" y="462" type="line"/>
      <point x="385" y="428"/>
      <point x="385" y="420"/>
      <point x="385" y="386" type="curve" smooth="yes"/>
      <point x="385" y="380"/>
      <point x="390" y="375"/>
      <point x="396" y="375" type="curve"/>
      <point x="574" y="375" type="line"/>
      <point x="574" y="409"/>
      <point x="574" y="417"/>
      <point x="574" y="451" type="curve" smooth="yes"/>
      <point x="574" y="457"/>
      <point x="569" y="462"/>
      <point x="563" y="462" type="curve"/>
    </contour>
    <contour>
      <point x="574" y="139" type="line"/>
      <point x="574" y="173"/>
      <point x="574" y="181"/>
      <point x="574" y="215" type="curve" smooth="yes"/>
      <point x="574" y="218"/>
      <point x="573" y="221"/>
      <point x="571" y="223" type="curve" smooth="yes"/>
      <point x="569" y="225"/>
      <point x="566" y="226"/>
      <point x="563" y="226" type="curve"/>
      <point x="26" y="226" type="line"/>
      <point x="26" y="192"/>
      <point x="26" y="184"/>
      <point x="26" y="150" type="curve" smooth="yes"/>
      <point x="26" y="144"/>
      <point x="31" y="139"/>
      <point x="37" y="139" type="curve"/>
    </contour>
    <contour>
      <point x="24" y="700" type="line"/>
      <point x="97" y="551"/>
      <point x="172" y="403"/>
      <point x="245" y="253" type="curve"/>
      <point x="248" y="246"/>
      <point x="255" y="243"/>
      <point x="264" y="243" type="curve"/>
      <point x="310" y="243"/>
      <point x="333" y="301"/>
      <point x="322" y="331" type="curve"/>
      <point x="268" y="449"/>
      <point x="213" y="567"/>
      <point x="160" y="685" type="curve"/>
      <point x="157" y="695"/>
      <point x="152" y="700"/>
      <point x="143" y="700" type="curve" smooth="yes"/>
    </contour>
    <contour>
      <point x="447" y="700" type="line"/>
      <point x="393" y="576"/>
      <point x="339" y="454"/>
      <point x="285" y="330" type="curve"/>
      <point x="265" y="283"/>
      <point x="269" y="260"/>
      <point x="264" y="243" type="curve"/>
      <point x="350" y="243" type="line"/>
      <point x="423" y="389"/>
      <point x="497" y="536"/>
      <point x="570" y="683" type="curve"/>
      <point x="573" y="692"/>
      <point x="568" y="700"/>
      <point x="559" y="700" type="curve"/>
    </contour>
    <contour>
      <point x="361" y="0" type="curve"/>
      <point x="361" y="33"/>
      <point x="361" y="66"/>
      <point x="361" y="100" type="curve" smooth="yes"/>
      <point x="361" y="296" type="line" smooth="yes"/>
      <point x="361" y="302"/>
      <point x="356" y="307"/>
      <point x="239" y="307" type="curve"/>
      <point x="239" y="11" type="line" smooth="yes"/>
      <point x="239" y="8"/>
      <point x="240" y="5"/>
      <point x="242" y="3" type="curve" smooth="yes"/>
      <point x="244" y="1"/>
      <point x="247" y="0"/>
      <point x="250" y="0" type="curve" smooth="yes"/>
      <point x="287" y="0"/>
      <point x="324" y="0"/>
    </contour>
  </outline>
</glyph>
<glyph name="brokenbar" format="1">
  <advance width="300"/>
  <unicode hex="00A6"/>
  <outline>
    <contour>
      <point x="89" y="760" type="curve"/>
      <point x="89" y="727"/>
      <point x="89" y="694"/>
      <point x="89" y="661" type="curve" smooth="yes"/>
      <point x="89" y="380" type="line" smooth="yes"/>
      <point x="89" y="374"/>
      <point x="94" y="369"/>
      <point x="100" y="369" type="curve" smooth="yes"/>
      <point x="137" y="369"/>
      <point x="173" y="369"/>
      <point x="211" y="369" type="curve"/>
      <point x="211" y="749" type="line" smooth="yes"/>
      <point x="211" y="752"/>
      <point x="210" y="755"/>
      <point x="208" y="757" type="curve" smooth="yes"/>
      <point x="206" y="759"/>
      <point x="203" y="760"/>
      <point x="200" y="760" type="curve" smooth="yes"/>
      <point x="162" y="760"/>
      <point x="126" y="760"/>
    </contour>
    <contour>
      <point x="89" y="231" type="curve"/>
      <point x="89" y="-149" type="line"/>
      <point x="89" y="-155"/>
      <point x="94" y="-160"/>
      <point x="100" y="-160" type="curve" smooth="yes"/>
      <point x="137" y="-160"/>
      <point x="173" y="-160"/>
      <point x="211" y="-160" type="curve"/>
      <point x="211" y="220" type="line" smooth="yes"/>
      <point x="211" y="227"/>
      <point x="207" y="231"/>
      <point x="200" y="231" type="curve" smooth="yes"/>
      <point x="162" y="231"/>
      <point x="126" y="231"/>
    </contour>
  </outline>
</glyph>
<glyph name="dieresis" format="1">
  <advance width="600"/>
  <unicode hex="00A8"/>
  <outline>
    <contour>
      <point x="258" y="633" type="curve"/>
      <point x="258" y="753" type="line" smooth="yes"/>
      <point x="258" y="759"/>
      <point x="253" y="764"/>
      <point x="247" y="764" type="curve" smooth="yes"/>
      <point x="208" y="764"/>
      <point x="168" y="764"/>
      <point x="128" y="764" type="curve"/>
      <point x="128" y="644" type="line" smooth="yes"/>
      <point x="128" y="638"/>
      <point x="133" y="633"/>
      <point x="139" y="633" type="curve" smooth="yes"/>
      <point x="179" y="633"/>
      <point x="219" y="633"/>
    </contour>
    <contour>
      <point x="472" y="633" type="curve"/>
      <point x="472" y="753" type="line" smooth="yes"/>
      <point x="472" y="759"/>
      <point x="467" y="764"/>
      <point x="461" y="764" type="curve" smooth="yes"/>
      <point x="421" y="764"/>
      <point x="381" y="764"/>
      <point x="342" y="764" type="curve"/>
      <point x="342" y="644" type="line" smooth="yes"/>
      <point x="342" y="638"/>
      <point x="347" y="633"/>
      <point x="353" y="633" type="curve" smooth="yes"/>
      <point x="392" y="633"/>
      <point x="432" y="633"/>
    </contour>
  </outline>
</glyph>
<glyph name="guillemotleft" format="1">
  <advance width="600"/>
  <unicode hex="00AB"/>
  <outline>
    <contour>
      <point x="327" y="522" type="line"/>
      <point x="292" y="522"/>
      <point x="267" y="522"/>
      <point x="241" y="522" type="curve" smooth="yes"/>
      <point x="229" y="522"/>
      <point x="224" y="521"/>
      <point x="215" y="512" type="curve" smooth="yes"/>
      <point x="186" y="482"/>
      <point x="100" y="391"/>
      <point x="38" y="325" type="curve"/>
      <point x="38" y="305" type="line"/>
      <point x="38" y="293"/>
      <point x="45" y="290"/>
      <point x="102" y="267" type="curve"/>
      <point x="174" y="343"/>
      <point x="229" y="401"/>
      <point x="327" y="504" type="curve"/>
    </contour>
    <contour>
      <point x="327" y="96" type="line"/>
      <point x="228" y="199"/>
      <point x="179" y="250"/>
      <point x="115" y="319" type="curve"/>
      <point x="47" y="319"/>
      <point x="38" y="318"/>
      <point x="38" y="309" type="curve"/>
      <point x="38" y="285" type="line" smooth="yes"/>
      <point x="38" y="277"/>
      <point x="39" y="273"/>
      <point x="48" y="263" type="curve" smooth="yes"/>
      <point x="68" y="242"/>
      <point x="199" y="105"/>
      <point x="213" y="90" type="curve"/>
      <point x="224" y="79"/>
      <point x="226" y="78"/>
      <point x="239" y="78" type="curve" smooth="yes"/>
      <point x="282" y="78"/>
      <point x="303" y="78"/>
      <point x="327" y="78" type="curve"/>
    </contour>
    <contour>
      <point x="557" y="522" type="line"/>
      <point x="522" y="522"/>
      <point x="497" y="522"/>
      <point x="471" y="522" type="curve" smooth="yes"/>
      <point x="459" y="522"/>
      <point x="454" y="521"/>
      <point x="445" y="512" type="curve" smooth="yes"/>
      <point x="416" y="482"/>
      <point x="330" y="391"/>
      <point x="268" y="325" type="curve"/>
      <point x="268" y="305" type="line"/>
      <point x="268" y="293"/>
      <point x="275" y="290"/>
      <point x="332" y="267" type="curve"/>
      <point x="404" y="343"/>
      <point x="459" y="401"/>
      <point x="557" y="504" type="curve"/>
    </contour>
    <contour>
      <point x="557" y="96" type="line"/>
      <point x="458" y="199"/>
      <point x="409" y="250"/>
      <point x="345" y="319" type="curve"/>
      <point x="277" y="319"/>
      <point x="268" y="318"/>
      <point x="268" y="309" type="curve"/>
      <point x="268" y="285" type="line" smooth="yes"/>
      <point x="268" y="277"/>
      <point x="269" y="273"/>
      <point x="278" y="263" type="curve" smooth="yes"/>
      <point x="298" y="242"/>
      <point x="429" y="105"/>
      <point x="443" y="90" type="curve"/>
      <point x="454" y="79"/>
      <point x="456" y="78"/>
      <point x="469" y="78" type="curve" smooth="yes"/>
      <point x="512" y="78"/>
      <point x="533" y="78"/>
      <point x="557" y="78" type="curve"/>
    </contour>
  </outline>
</glyph>
<glyph name="logicalnot" format="1">
  <advance width="600"/>
  <unicode hex="00AC"/>
  <outline>
    <contour>
      <point x="65" y="443" type="line"/>
      <point x="65" y="408"/>
      <point x="65" y="382"/>
      <point x="65" y="347" type="curve" smooth="yes"/>
      <point x="65" y="344"/>
      <point x="66" y="341"/>
      <point x="68" y="339" type="curve" smooth="yes"/>
      <point x="70" y="337"/>
      <point x="73" y="336"/>
      <point x="76" y="336" type="curve"/>
      <point x="535" y="336" type="line"/>
      <point x="535" y="432" type="line"/>
      <point x="535" y="438"/>
      <point x="530" y="443"/>
      <point x="524" y="443" type="curve"/>
    </contour>
    <contour>
      <point x="535" y="141" type="curve"/>
      <point x="535" y="386" type="line" smooth="yes"/>
      <point x="535" y="392"/>
      <point x="530" y="397"/>
      <point x="524" y="397" type="curve"/>
      <point x="419" y="397" type="line"/>
      <point x="419" y="152" type="line" smooth="yes"/>
      <point x="419" y="146"/>
      <point x="424" y="141"/>
      <point x="430" y="141" type="curve" smooth="yes"/>
      <point x="467" y="141"/>
      <point x="497" y="141"/>
    </contour>
  </outline>
</glyph>
<glyph name="uni00AD" format="1">
  <advance width="600"/>
  <unicode hex="00AD"/>
  <outline>
    <contour>
      <point x="115" y="355" type="line"/>
      <point x="115" y="321"/>
      <point x="115" y="290"/>
      <point x="115" y="255" type="curve" smooth="yes"/>
      <point x="115" y="252"/>
      <point x="116" y="249"/>
      <point x="118" y="247" type="curve" smooth="yes"/>
      <point x="120" y="245"/>
      <point x="123" y="244"/>
      <point x="126" y="244" type="curve"/>
      <point x="485" y="244" type="line"/>
      <point x="485" y="279"/>
      <point x="485" y="310"/>
      <point x="485" y="344" type="curve" smooth="yes"/>
      <point x="485" y="350"/>
      <point x="480" y="355"/>
      <point x="474" y="355" type="curve"/>
    </contour>
  </outline>
</glyph>
<glyph name="macron" format="1">
  <advance width="600"/>
  <unicode hex="00AF"/>
  <outline>
    <contour>
      <point x="122" y="762" type="line"/>
      <point x="122" y="732"/>
      <point x="122" y="705"/>
      <point x="122" y="675" type="curve" smooth="yes"/>
      <point x="122" y="668"/>
      <point x="126" y="664"/>
      <point x="133" y="664" type="curve"/>
      <point x="478" y="664" type="line"/>
      <point x="478" y="694"/>
      <point x="478" y="721"/>
      <point x="478" y="751" type="curve" smooth="yes"/>
      <point x="478" y="757"/>
      <point x="473" y="762"/>
      <point x="467" y="762" type="curve"/>
    </contour>
  </outline>
</glyph>
<glyph name="degree" format="1">
  <advance width="600"/>
  <unicode hex="00B0"/>
  <outline>
    <contour>
      <point x="300" y="445" type="curve"/>
      <point x="243" y="445"/>
      <point x="212" y="472"/>
      <point x="212" y="516" type="curve" smooth="yes"/>
      <point x="212" y="558" type="line" smooth="yes"/>
      <point x="212" y="604"/>
      <point x="245" y="630"/>
      <point x="300" y="630" type="curve" smooth="yes"/>
      <point x="336" y="630"/>
      <point x="354" y="628"/>
      <point x="378" y="621" type="curve"/>
      <point x="384" y="670"/>
      <point x="363" y="710"/>
      <point x="300" y="710" type="curve"/>
      <point x="196" y="710"/>
      <point x="129" y="654"/>
      <point x="129" y="565" type="curve" smooth="yes"/>
      <point x="129" y="511" type="line" smooth="yes"/>
      <point x="129" y="421"/>
      <point x="196" y="365"/>
      <point x="300" y="365" type="curve"/>
      <point x="309" y="365"/>
      <point x="309" y="414"/>
    </contour>
    <contour>
      <point x="300" y="630" type="curve"/>
      <point x="357" y="630"/>
      <point x="388" y="604"/>
      <point x="388" y="558" type="curve" smooth="yes"/>
      <point x="388" y="516" type="line" smooth="yes"/>
      <point x="388" y="472"/>
      <point x="355" y="445"/>
      <point x="300" y="445" type="curve" smooth="yes"/>
      <point x="264" y="445"/>
      <point x="247" y="447"/>
      <point x="222" y="454" type="curve"/>
      <point x="216" y="406"/>
      <point x="237" y="365"/>
      <point x="300" y="365" type="curve"/>
      <point x="404" y="365"/>
      <point x="471" y="421"/>
      <point x="471" y="511" type="curve" smooth="yes"/>
      <point x="471" y="565" type="line" smooth="yes"/>
      <point x="471" y="654"/>
      <point x="404" y="710"/>
      <point x="300" y="710" type="curve"/>
      <point x="287" y="710"/>
      <point x="289" y="663"/>
    </contour>
  </outline>
</glyph>
<glyph name="threesuperior" format="1">
  <advance width="600"/>
  <unicode hex="00B3"/>
  <outline>
    <contour>
      <point x="283" y="633" type="curve" smooth="yes"/>
      <point x="324" y="633"/>
      <point x="344" y="624"/>
      <point x="344" y="607" type="curve" smooth="yes"/>
      <point x="344" y="602"/>
      <point x="344" y="597"/>
      <point x="344" y="594" type="curve"/>
      <point x="407" y="595"/>
      <point x="426" y="604"/>
      <point x="426" y="620" type="curve" smooth="yes"/>
      <point x="426" y="629" type="line" smooth="yes"/>
      <point x="426" y="685"/>
      <point x="369" y="711"/>
      <point x="289" y="711" type="curve"/>
      <point x="237" y="711"/>
      <point x="192" y="697"/>
      <point x="180" y="685" type="curve" smooth="yes"/>
      <point x="175" y="680"/>
      <point x="175" y="677"/>
      <point x="175" y="671" type="curve" smooth="yes"/>
      <point x="175" y="649"/>
      <point x="175" y="631"/>
      <point x="175" y="613" type="curve"/>
      <point x="187" y="613" type="line"/>
      <point x="221" y="628"/>
      <point x="246" y="633"/>
    </contour>
    <contour>
      <point x="255" y="527" type="curve" smooth="yes"/>
      <point x="368" y="527"/>
      <point x="426" y="560"/>
      <point x="426" y="620" type="curve" smooth="yes"/>
      <point x="426" y="634"/>
      <point x="407" y="642"/>
      <point x="344" y="642" type="curve"/>
      <point x="344" y="633"/>
      <point x="344" y="624"/>
      <point x="344" y="607" type="curve" smooth="yes"/>
      <point x="344" y="583"/>
      <point x="328" y="569"/>
      <point x="244" y="569" type="curve"/>
      <point x="244" y="563"/>
      <point x="244" y="547"/>
      <point x="244" y="538" type="curve" smooth="yes"/>
      <point x="244" y="531"/>
      <point x="248" y="527"/>
    </contour>
    <contour>
      <point x="255" y="503" type="curve" smooth="yes"/>
      <point x="330" y="503"/>
      <point x="350" y="485"/>
      <point x="350" y="465" type="curve" smooth="yes"/>
      <point x="350" y="454"/>
      <point x="350" y="445"/>
      <point x="350" y="436" type="curve"/>
      <point x="419" y="436"/>
      <point x="430" y="443"/>
      <point x="430" y="457" type="curve" smooth="yes"/>
      <point x="430" y="531"/>
      <point x="347" y="545"/>
      <point x="244" y="545" type="curve"/>
      <point x="244" y="541"/>
      <point x="244" y="526"/>
      <point x="244" y="514" type="curve" smooth="yes"/>
      <point x="244" y="507"/>
      <point x="248" y="503"/>
    </contour>
    <contour>
      <point x="284" y="435" type="curve" smooth="yes"/>
      <point x="246" y="435"/>
      <point x="220" y="440"/>
      <point x="178" y="458" type="curve"/>
      <point x="166" y="458" type="line"/>
      <point x="166" y="439"/>
      <point x="166" y="419"/>
      <point x="166" y="397" type="curve" smooth="yes"/>
      <point x="166" y="391"/>
      <point x="167" y="388"/>
      <point x="171" y="383" type="curve" smooth="yes"/>
      <point x="184" y="371"/>
      <point x="232" y="357"/>
      <point x="285" y="357" type="curve" smooth="yes"/>
      <point x="375" y="357"/>
      <point x="430" y="389"/>
      <point x="430" y="449" type="curve" smooth="yes"/>
      <point x="430" y="457" type="line" smooth="yes"/>
      <point x="430" y="475"/>
      <point x="408" y="486"/>
      <point x="350" y="486" type="curve"/>
      <point x="350" y="481"/>
      <point x="350" y="472"/>
      <point x="350" y="465" type="curve" smooth="yes"/>
      <point x="350" y="445"/>
      <point x="333" y="435"/>
    </contour>
  </outline>
</glyph>
<glyph name="acute" format="1">
  <advance width="600"/>
  <unicode hex="00B4"/>
  <outline>
    <contour>
      <point x="337" y="627" type="curve" smooth="yes"/>
      <point x="345" y="627"/>
      <point x="351" y="631"/>
      <point x="354" y="635" type="curve" smooth="yes"/>
      <point x="412" y="702"/>
      <point x="446" y="741"/>
      <point x="495" y="799" type="curve"/>
      <point x="501" y="807"/>
      <point x="497" y="815"/>
      <point x="489" y="815" type="curve" smooth="yes"/>
      <point x="442" y="815"/>
      <point x="406" y="815"/>
      <point x="357" y="815" type="curve"/>
      <point x="319" y="752"/>
      <point x="281" y="689"/>
      <point x="245" y="627" type="curve"/>
      <point x="274" y="627"/>
      <point x="304" y="627"/>
    </contour>
  </outline>
</glyph>
<glyph name="uni00B5" format="1">
  <advance width="600"/>
  <unicode hex="00B5"/>
  <outline>
    <contour>
      <point x="83" y="535" type="curve"/>
      <point x="83" y="504"/>
      <point x="83" y="471"/>
      <point x="83" y="437" type="curve" smooth="yes"/>
      <point x="83" y="142" type="line"/>
      <point x="83" y="100"/>
      <point x="154" y="75"/>
      <point x="206" y="104" type="curve"/>
      <point x="206" y="124"/>
      <point x="206" y="140"/>
      <point x="206" y="174" type="curve" smooth="yes"/>
      <point x="206" y="524" type="line" smooth="yes"/>
      <point x="206" y="530"/>
      <point x="201" y="535"/>
      <point x="195" y="535" type="curve" smooth="yes"/>
      <point x="157" y="535"/>
      <point x="121" y="535"/>
    </contour>
    <contour>
      <point x="233" y="-11" type="curve" smooth="yes"/>
      <point x="293" y="-11"/>
      <point x="345" y="17"/>
      <point x="399" y="92" type="curve" smooth="yes"/>
      <point x="421" y="122"/>
      <point x="444" y="169"/>
      <point x="425" y="224" type="curve"/>
      <point x="357" y="138"/>
      <point x="311" y="110"/>
      <point x="258" y="110" type="curve" smooth="yes"/>
      <point x="224" y="110"/>
      <point x="206" y="129"/>
      <point x="206" y="174" type="curve"/>
      <point x="100" y="174"/>
      <point x="83" y="158"/>
      <point x="83" y="142" type="curve" smooth="yes"/>
      <point x="83" y="54"/>
      <point x="147" y="-11"/>
    </contour>
    <contour>
      <point x="516" y="535" type="line"/>
      <point x="480" y="535"/>
      <point x="441" y="535"/>
      <point x="405" y="535" type="curve" smooth="yes"/>
      <point x="399" y="535"/>
      <point x="394" y="530"/>
      <point x="394" y="524" type="curve" smooth="yes"/>
      <point x="394" y="109" type="line" smooth="yes"/>
      <point x="394" y="58"/>
      <point x="447" y="25"/>
      <point x="516" y="25" type="curve"/>
      <point x="516" y="52"/>
      <point x="516" y="79"/>
      <point x="516" y="114" type="curve"/>
    </contour>
    <contour>
      <point x="571" y="99" type="line"/>
      <point x="555" y="99" type="line"/>
      <point x="552" y="99"/>
      <point x="549" y="99"/>
      <point x="545" y="99" type="curve" smooth="yes"/>
      <point x="526" y="99"/>
      <point x="516" y="110"/>
      <point x="516" y="134" type="curve"/>
      <point x="397" y="135"/>
      <point x="394" y="123"/>
      <point x="394" y="109" type="curve" smooth="yes"/>
      <point x="394" y="41"/>
      <point x="440" y="-10"/>
      <point x="527" y="-10" type="curve" smooth="yes"/>
      <point x="560" y="-10" type="line" smooth="yes"/>
      <point x="567" y="-10"/>
      <point x="571" y="-6"/>
      <point x="571" y="1" type="curve"/>
    </contour>
    <contour>
      <point x="83" y="157" type="line"/>
      <point x="83" y="38"/>
      <point x="83" y="-71"/>
      <point x="83" y="-189" type="curve" smooth="yes"/>
      <point x="83" y="-197"/>
      <point x="87" y="-200"/>
      <point x="94" y="-200" type="curve" smooth="yes"/>
      <point x="136" y="-200"/>
      <point x="183" y="-200"/>
      <point x="208" y="-200" type="curve"/>
      <point x="208" y="-169"/>
      <point x="208" y="-164"/>
      <point x="208" y="-135" type="curve" smooth="yes"/>
      <point x="208" y="-129"/>
      <point x="128" y="157"/>
      <point x="126" y="157" type="curve" smooth="yes"/>
    </contour>
  </outline>
</glyph>
<glyph name="paragraph" format="1">
  <advance width="600"/>
  <unicode hex="00B6"/>
  <outline>
    <contour>
      <point x="340" y="-150" type="curve"/>
      <point x="340" y="633" type="line"/>
      <point x="340" y="639"/>
      <point x="335" y="644"/>
      <point x="329" y="644" type="curve" smooth="yes"/>
      <point x="301" y="644"/>
      <point x="273" y="644"/>
      <point x="244" y="644" type="curve"/>
      <point x="244" y="-139" type="line" smooth="yes"/>
      <point x="244" y="-146"/>
      <point x="248" y="-150"/>
      <point x="255" y="-150" type="curve" smooth="yes"/>
      <point x="284" y="-150"/>
      <point x="312" y="-150"/>
    </contour>
    <contour>
      <point x="523" y="-150" type="curve"/>
      <point x="523" y="-118"/>
      <point x="523" y="-80"/>
      <point x="523" y="-40" type="curve" smooth="yes"/>
      <point x="523" y="633" type="line" smooth="yes"/>
      <point x="523" y="639"/>
      <point x="518" y="644"/>
      <point x="512" y="644" type="curve" smooth="yes"/>
      <point x="483" y="644"/>
      <point x="456" y="644"/>
      <point x="427" y="644" type="curve"/>
      <point x="427" y="-139" type="line" smooth="yes"/>
      <point x="427" y="-146"/>
      <point x="431" y="-150"/>
      <point x="438" y="-150" type="curve" smooth="yes"/>
      <point x="467" y="-150"/>
      <point x="494" y="-150"/>
    </contour>
    <contour>
      <point x="264" y="700" type="line" smooth="yes"/>
      <point x="125" y="700"/>
      <point x="45" y="622"/>
      <point x="45" y="487" type="curve" smooth="yes"/>
      <point x="45" y="401" type="line" smooth="yes"/>
      <point x="45" y="291"/>
      <point x="106" y="212"/>
      <point x="220" y="212" type="curve" smooth="yes"/>
      <point x="317" y="212" type="line" smooth="yes"/>
      <point x="324" y="212"/>
      <point x="329" y="222"/>
      <point x="329" y="301" type="curve"/>
      <point x="301" y="301" type="line" smooth="yes"/>
      <point x="249" y="301"/>
      <point x="219" y="325"/>
      <point x="219" y="397" type="curve" smooth="yes"/>
      <point x="219" y="490" type="line" smooth="yes"/>
      <point x="219" y="561"/>
      <point x="252" y="594"/>
      <point x="315" y="594" type="curve" smooth="yes"/>
      <point x="402" y="594"/>
      <point x="497" y="594"/>
      <point x="563" y="594" type="curve"/>
      <point x="574" y="594" type="line"/>
      <point x="574" y="611"/>
      <point x="574" y="625"/>
      <point x="574" y="689" type="curve" smooth="yes"/>
      <point x="574" y="692"/>
      <point x="573" y="695"/>
      <point x="571" y="697" type="curve" smooth="yes"/>
      <point x="569" y="699"/>
      <point x="566" y="700"/>
      <point x="563" y="700" type="curve" smooth="yes"/>
    </contour>
  </outline>
</glyph>
<glyph name="cedilla" format="1">
  <advance width="600"/>
  <unicode hex="00B8"/>
  <outline>
    <contour>
      <point x="411" y="-115" type="curve" smooth="yes"/>
      <point x="411" y="-59"/>
      <point x="376" y="-25"/>
      <point x="320" y="-14" type="curve"/>
      <point x="325" y="9"/>
      <point x="329" y="26"/>
      <point x="333" y="44" type="curve"/>
      <point x="285" y="44"/>
      <point x="278" y="41"/>
      <point x="274" y="30" type="curve" smooth="yes"/>
      <point x="264" y="5"/>
      <point x="259" y="-12"/>
      <point x="249" y="-39" type="curve" smooth="yes"/>
      <point x="246" y="-47"/>
      <point x="250" y="-53"/>
      <point x="257" y="-53" type="curve" smooth="yes"/>
      <point x="303" y="-53"/>
      <point x="316" y="-67"/>
      <point x="316" y="-95" type="curve" smooth="yes"/>
      <point x="316" y="-123"/>
      <point x="292" y="-140"/>
      <point x="255" y="-140" type="curve" smooth="yes"/>
      <point x="225" y="-140"/>
      <point x="209" y="-134"/>
      <point x="191" y="-123" type="curve"/>
      <point x="179" y="-123" type="line"/>
      <point x="179" y="-143"/>
      <point x="179" y="-183"/>
      <point x="179" y="-210" type="curve" smooth="yes"/>
      <point x="179" y="-220"/>
      <point x="202" y="-240"/>
      <point x="266" y="-240" type="curve" smooth="yes"/>
      <point x="363" y="-240"/>
      <point x="411" y="-185"/>
    </contour>
  </outline>
</glyph>
